<?xml version="1.0" encoding="utf-8"?>
<!-- Generator: Adobe Illustrator 21.0.0, SVG Export Plug-In . SVG Version: 6.00 Build 0)  -->
<svg version="1.1" id="Layer_1" xmlns="http://www.w3.org/2000/svg" xmlns:xlink="http://www.w3.org/1999/xlink" x="0px" y="0px"
	 viewBox="0 0 100 69.5" style="enable-background:new 0 0 100 69.5;" xml:space="preserve">
<style type="text/css">
	.st0{fill:#58CAE7;}
</style>
<g>
	<path class="st0" d="M98.7,1.6L99,1.8L99.8,3v1.5l-0.9,4.2l-1.2,2.8l-1,1.2l-0.9,1.8l-2.5,3.3l-2.8,2.1l-4.5,2.4l-4.6,1.3h-3.7
		l-0.3,0.2h-1.8l-0.3-0.2h-1.8l-0.3,0.2H72l-0.3,0.1h-1.3l-0.3-0.1h-2.7l-0.3-0.2h-4.9l-0.3,0.2h-5.8l-0.3,0.1l-1.6-0.3l-3-0.1
		l-2.7,0.3L48,23.3h-1.2L46.5,23l-0.6,0.4h-3.1l-0.3,0.2h-4.9l-2.8-0.3l-0.3-0.4l-1,0.6L33,23.3l-0.4-0.9l-0.3,0.2l-0.3,0.9
		l-0.4,0.2l-3-0.2l-0.3,0.2h-3.4l-1.2-0.3l-2.5-0.2l-0.3,0.2h-1.5L19,23.4H6.3L6,23.3l-1,0.3L4,23.1l-1.2,0.2l-1-0.4l-0.4-0.4
		l-0.6-1.2l0.4-1.5l-0.2-0.1l-0.3,0.3H0.5l-0.1-0.3v-2.5l0.1-0.3v-5.3L0.2,8.6l0.9-0.7L0.6,7.7L0.5,7.4V4.2l0.7-2.1L2,1.5l1.3-0.6
		h4.5L7.9,1l1.6-0.3h5.6l0.6,0.6V3l0.3,0.1l0.9-0.7l0.9-0.1l-0.1-0.4l-0.9-0.3L16.9,1l0.6-0.1l0.9,0.7l0.7,0.1l0.6-0.3l0.4-0.6h8.3
		l0.6,0.3l0.4-0.3L30.7,1l0.7-0.4h3.3L35,0.7h3.7l1.2-0.3l2.4-0.1l0.3,0.1h1.8l0.3,0.2h1.2l0.3,0.1h10.4l0.3,0.2h1.8l0.3-0.2h5.8
		L65,0.9H67l0.9-0.3h9.8l1.5,0.3l1.8-0.3h7.4l1.3,0.3h3l0.3-0.2h1.2l0.3-0.1H96l2.4,0.7L98.7,1.6z M79.3,26.6h0.6l1.5,0.7l1,1.5v2.4
		l-1.5,4.3l-1.5,3l-1.5,1.9l-2.1,2.1L72,45.1l-0.9,0.2L71,45h-0.3l-0.4,0.6l-1.5,0.7l-3.9,1.2h-4.2l-0.3-0.1h-6.2L51.5,47l-0.3,0.1
		h-3L48,47h-3.6l-0.2,0.1h-3.6L40.4,47h-1.8l-0.2,0.1h-3.9L34.5,47H26l-0.3,0.1H15.6L15.5,47H3.6l-2.2-0.9l-0.7-2.1v-5.2l-0.2-0.3
		v-2.5l-0.1-0.3V34l0.1-0.3v-1.8l0.2-0.3v-1.9l0.9-2.2l1.2-0.7h2.4l0.3-0.2h4l0.4-0.3l0.9-0.2l0.3,0.3h4.5l0.3,0.1h3.9l0.3-0.3h4.7
		l0.3,0.2h1.5l0.3,0.1h3.7l0.3-0.1h4l0.6,0.6l0.6-0.2l0.3-0.4l0.4,0.3h0.9l0.4-0.3h3.9l0.3,0.1h1.9l0.3-0.1h1.2l0.3-0.2h2.4l0.2-0.2
		h5l0.3,0.2h2.1l0.2,0.2h1.2l0.3,0.1h1.2l0.3-0.1l3.6-0.2l0.3,0.2h3.3l0.3-0.2h1.2l0.3-0.2h8.3l2.8,0.3L79.3,26.6z M60.7,50.2
		l2.2,0.6l0.6,0.6l0.4,0.9v1.9l-0.6,2.5l-0.6,0.2l0.3,0.9l-0.2,0.6l-2.1,3.3l-3.1,3.1l-2.4,1.8L52,68.3l-2.7,0.6h-4.9l-0.2-0.3
		l0.3-0.7L44,68.1l-0.6,0.6L42.8,69h-6.2l-0.4-0.2l-1.3,0.3l-1-0.4l-3,0.3l-0.3-0.2h-2.1l-0.3-0.1H17.4l-1.3,0.1l0.3-0.7L16.1,68
		l-0.3,0.2l0.2,0.3l-0.2,0.4l-1.3-0.1H9.1L7.2,69l-0.7-0.4H4.6l-1.9,0.3l-1.6-1.2l0.2-0.6l-0.6-1.3l-0.3-2.5l0.3-0.6V58l-0.2-0.3
		v-2.2l0.4-0.4l-0.4-0.9L0.6,53l0.6-1.6l1.2-0.7l1.5-0.3h4.7l0.3-0.1h1.5l0.7,0.3l1.8-0.3h6.2l0.3,0.1h3l2.4-0.3l0.2,0.2h2.4
		l0.3-0.2l3.9,0.3l1.2-0.3l1.5,0.3l2.1-0.3h9.9l0.3,0.2h3.3L50,50h3l2.5,0.3l0.9-0.1l0.2,0.9l1.2-0.9l2.7-0.2L60.7,50.2z M1.1,18.5
		l0.6-0.2l-0.2-0.3H1.2l-0.4,0.6L1.1,18.5z M1.5,40.2H1.2l-0.2,0.4h0.4V40.2z M1.4,59.8L1.8,60v-0.3l-0.4-0.2V59.8z M1.8,64.7
		l-0.4-0.3v0.4L2,65L1.8,64.7z M2.1,17.5l0.3-0.3L2.3,16H2l-0.4,0.4l0.2,1H2.1z M2,52.5l-0.3-0.2l-0.2,0.4H2V52.5z M2.1,31.6
		l0.3,0.2l0.3-0.4H2.1V31.6z M2.5,52.1l0.3-0.2l-0.3-0.3H2.3l-0.2,0.6l0.3,0.2L2.5,52.1z M3.1,18.3l0.3-0.7l-0.6,0.1l-0.1,0.6H3.1z
		 M3.1,67.5L3,67.2l-0.3,0.2v0.3L3.1,67.5z M3.1,10.1L3,9.9l-0.2,0.3L3.1,10.1z M4.2,61l-0.3-0.9l-0.4-0.3L2.8,60l0.7,1.3L4,61.1
		L4.2,61z M3.1,63.5l0.2-0.1L3,63.2l-0.2,0.4L3.1,63.5z M3.6,8.8L3,9.2l1,0.2L3.3,9.9l0.6-0.1l0.3-0.6V8.8L3.9,8.5H3.6V8.8z M3.9,38
		l0.7,0.3l-0.2-0.6l-0.7-0.1L3.3,38v0.3L3.9,38z M3.7,14.2l0.1-0.6l-0.3-0.1l-0.1,0.7H3.7z M3.6,59.2v-0.3l-0.1,0.1L3.6,59.2z
		 M3.6,4l0.2,0.1L4,4L3.6,3.7V4z M23.9,17.4l0.3,0.2l0.4-0.4l-0.3-0.1l0.4-0.4l-0.1-0.2l-0.6,0.3l-0.4-0.3V16l0.6-0.6v-0.3L23.8,15
		l-0.2-0.7l-1.2-0.3l0.1-0.3l0.6-0.3l0.2-0.3l-0.4-0.7l0.2-0.7l1-0.6v-0.4l-0.9-0.1l-0.6,0.3H22l-0.2-0.4l0.7-0.9l0.2-0.6l-0.2-0.6
		h-0.3L22,8.8l-0.9,0.1l0.3,1.5l-1.6,0.9V11l0.4-0.4v-0.4h-0.6l-0.3,0.3L19,11.6l0.1,0.6l1.2-0.6h0.4l0.7,1.9l-0.1,0.9l-0.7-0.4
		l-0.6-1.2l-0.7,0.7h0.6l-0.2,0.3L19,13.9l-2.2,1l0.3-0.7l1-0.7l-0.1-1l-0.4-0.6l0.9-0.6v-0.6h-0.6l-0.4,0.4L16.9,12l-0.9,0.7h-0.3
		L15.3,12l0.9-0.4l0.1-0.3L15.5,11l-1,0.6l-0.6-0.1l0.1-0.3l1-0.7l1.9,0.1l0.4-0.7l-1.2,0.1l-1-1.3V7.9L15,7.7L14.7,8l-0.1,1.2
		l-0.4,0.2l-0.7-0.4l-0.4,0.2v0.9l0.4,0.9L12.2,11L12,10.8l0.3-0.7l-0.9-0.4V9.3l0.9-1l0.3-1.6L11.7,7L9.7,7.1L9.4,7l0.2,0.7
		l0.3,0.4l0.6,0.2l1-0.6L12,7.9h-0.3L11,8.8l-0.6,0.1L10,8.5L9.5,9.9l-0.9,0.2v0.7L8.8,11l1-0.3l0.3,0.9v1.2l1.3,0.4l-0.2-1.3
		l0.3-0.1l0.6,0.1l0.3,0.3l-0.3,0.3l0.7,1.2l-0.4,0.6l0.7,0.6l-0.4,0.4l-0.2,0.6l0.2,0.4l-1-0.4l0.7-1l-0.2-0.7l-0.4-0.4l-1.3,0.2
		l-0.3-0.3l-0.7-0.2l-0.4,0.3l-0.6-0.3L8,13.5l0.6,1L8,14.8l-0.7-0.2l0.2,0.2v0.4l-0.3,0.6v0.4l-0.7,0.4l-0.6-0.4V16l1-0.7L5.5,15
		l-0.4-0.6l-0.7,0.9h0.7l0.4,0.3l0.2,0.6l-0.3,0.1V16l-0.6-0.1l-0.2,0.7l-0.4-0.4L3.6,16v0.3L4,16.9l0.1,0.6l0.3,0.3l0.9,0.3
		l2.2-1.5H8l0.4,0.6l-1.3,0.3L6.7,18l0.9,0.4h0.6L8,18.3l0.6-0.2l-0.3,0.6l0.3,0.2l1-0.9l0.4,0.1l0.6,0.7l0.4,0.1l0.9-0.9h0.4
		l0.3,0.3l0.3-0.6l0.3-0.2l0.7,0.2l-0.4,0.6v0.3l0.4-0.1l0.4-0.4l0.1,0.6l0.6-0.4l0.4,0.1l0.7,0.9l0.4-0.9l0.7,0.3v-0.6l-0.4-1
		l-0.4-0.4l-1.2,0.2l-1-0.4l0.6-0.1l0.4-0.4l1.9-0.3l0.6,0.3l0.2,0.4l-0.4,0.6l0.7,0.3l0.3-1.8l0.9-0.6v0.9l1.8,0.2l0.7,0.6l0.2,0.6
		l0.7-0.4l0.3,0.1l0.3,0.6L23.9,17.4z M5.1,35.8h0.3l0.7-0.6l0.1-0.6l-1.9,0.7l-0.4-0.1l-0.3,1.5L3.7,37l0.6-0.2l0.4-1.2L5.1,35.8z
		 M3.9,63.2L4,63.1l-0.4-0.1v0.3H3.9z M4.2,12.5l-0.3,0.7l0.7,0.4v-1.2H4.2z M4.3,8V7l0.1-0.9L4.3,6.2V5.5L4.2,6.2L4,6.4l0.1,0.3
		L4,8H4.3z M4.2,12l1-0.6V11H4.8l-0.6,0.3L4,11.6l0.1,0.6V12z M4.3,19.6l0.3-0.3l-0.3-0.4L4,19.4L4.3,19.6z M4.8,30l-0.2-0.2L4,30
		l0.1,0.4h0.6V30z M4.3,7V6.2H4.2v0.4L4.3,7z M6.1,63.4h0.7l-0.4-1l-0.9,0.3l-0.3-0.7l-0.6-0.2l0.4,0.7l0.3,1.6l-0.2,0.3l-0.7,0.3
		l-0.3,0.4l0.6,0.2l1-0.4L6,63.5L6.1,63.4z M4.9,66.6l0.4-0.4v-0.3l-0.3-0.3L4.5,66l-0.1,0.6H4.9z M4.8,57.3l-0.3,0.1l0.4,0.4
		l0.7-0.2H5.4l-0.3-0.4H4.8z M5.4,31.3l-0.7,1l0.6,0.2l0.4-0.6L5.4,31V31.3z M5.2,4L4.8,4.7l0.6-0.1L5.5,4H5.2z M4.8,9.1h0.3
		L4.9,8.8L4.8,9.1z M5.4,55.6l-0.6,0.3v0.3l0.4,0.4v-0.3l0.6-0.4l-0.1-0.3l-0.2,0.3L5.4,55.6z M6.7,13.6l0.4,0.9v-0.3l0.4-1
		l-0.4,0.1l-0.3-0.3l-0.3-1.5l-0.3,0.2l-1,1.5v0.9L6.7,13.6z M5.7,8.8l0.7,0.4l0.3,0.4l-0.2,0.9l1.2,1.2L7.6,12l0.2,1l1-0.9l0.6,0.1
		L9.5,12l-0.6-0.3l-0.6-0.9l0.3-1.8L8.3,8.9L7.9,9.3L7.6,8.9l0.3-1L7.2,7.6L6.9,7.1l2.5-0.3l0.2-0.4l0.6-0.2l0.7,0.4l0.4-0.4l1-0.4
		l-0.1-0.3L11,4.7v0.9l-0.1,0.1L10,5.6L9.4,5.2L9.1,5.8L8,6.4V5L7.3,5.2L7,6.5L6.1,7L6,7.3l0.3,0.2L6,7.6l0.3,0.6L5.7,8.8z
		 M6.4,42.3L6.3,42H6v0.3H6.4z M6.4,39.9h0.3l-0.4-0.4l-0.1,0.3L6.4,39.9z M6.4,59.1l-0.2-0.1l-0.1,0.3L6.4,59.1z M7,31.8l-0.4-0.2
		l-0.3,0.6l0.3,0.1L7,32.1V31.8z M6.4,56.4l-0.2,0.2h0.3l-0.1-0.4V56.4z M6.6,65.3l0.3-0.2l0.3-0.6L7,64.3l-0.4,0.2l-0.3,0.4
		l0.2,0.6L6.6,65.3z M7,38.7l-0.3-0.4l-0.2,0.1L6.7,39H7V38.7z M7.6,42.3l-0.7,0.1L6.6,43l0.6,0.4l0.4-0.9V42.3z M6.9,59.7l-0.3-0.2
		v0.3L7,60L6.9,59.7z M7.2,35H6.9l-0.1,0.3l0.6,0.6l-0.1,0.6H8l0.6-0.3l0.2-0.6l-0.6-0.1L7.9,35l-0.1,0.2l-0.4-0.4L7.2,35z
		 M9.8,57.4l0.6-0.6H9.2l-0.6-0.6l-0.1,0.1l0.1,0.4L8,57.4l-0.6,0.3l-0.7,0.7L8,58.2l0.6,0.1l0.9,0.9l0.3-0.6l-0.6-0.9v-0.3H9.8z
		 M7.2,9.8L6.9,9.6l0.4-0.3l0.3,0.4H7.2z M16.8,37.7l1-0.9l0.6,0.2l0.7,0.9h0.6l0.3-0.3L19.5,37l-0.6-1.6l0.2-0.6h-0.3l-0.4,1
		l-1.2,0.4l0.3,0.7l-0.9-0.2l-1.3-0.9v-0.4L14.7,35l-0.1,0.7l-1-0.2L13.4,35l0.2-0.4l-1-1l-0.2-0.7L12,32.6l-0.1-0.4h-0.4l-0.3-0.4
		l0.6-0.6l0.2-0.4l-1.3,0.1v0.4l-0.3,0.3v-1.2l-1.2-0.6l-1.3,0.6L7.6,31l1.3,0.3L9.1,31l0.4-0.2l-0.3,1.3H8.9l-0.4-0.7v0.6l0.9,1.8
		v0.6l-0.7,0.1l-0.3,0.3L8.8,35l0.7-0.1l-0.2,0.9H10l0.9-0.6l0.7-0.2l0.2,0.4l-0.6,0.7l-0.3,1.2l2.2,0.7l0.2,0.3l-0.7,0.4l-0.6-0.4
		h-0.3v0.7l-0.1,0.1L10.7,39v0.3l0.6,1L11,40.7l-0.3-0.4l-1,0.1l-0.4-0.1l0.2-0.7l-0.2-0.3l-1,0.4l-0.3-0.2l-0.4,1l-0.6,0.6h0.3
		L8,41.7l0.2-0.3l-0.3-0.7l0.4-0.2l0.3,0.2l0.4,1l0.9-0.4l0.6,0.4h-0.3l0.2,0.4l0.6-0.4l0.6,1.3l0.4-0.2l-0.4-0.3L11.5,42l0.6-1.3
		h0.7l0.4,0.3l0.6,1.3v-0.9l-0.7-1.2l-0.3-0.9l0.7-0.1l0.3,0.3v0.7l0.4,0.1l1.3-0.4v-0.6l0.3-0.4l0.7-0.2V38L16.8,37.7z M7.6,37.7
		l0.3-0.4L7.4,37l-0.3,0.1L7,37.7H7.6z M7.4,45.1l-0.2-0.3H7v0.3H7.4z M7.3,66.2L7.2,66L7,66.3L7.3,66.2z M7.2,60.3h0.6L7.9,60
		l-0.4,0.1L7.2,60V60.3z M7.7,62.5l0.6-0.6l0.3-0.7H8.2l-0.4,0.3l-0.3,1.2L7.7,62.5z M8,64.4l0.4-0.7l0.9-0.3l-0.3-0.6l-0.9,0.7
		l-0.6,1L8,64.7V64.4z M8,4.4L7.7,4.3v0.3L8,4.7V4.4z M7.9,20.6l0.3,0.1l0.1-0.1L8,20.2l-0.3,0.1L7.9,20.6z M7.9,55.2l-0.1,0.3
		l0.4,0.1l0.3-0.1l0.4-0.9H8.5L7.9,55.2z M8.2,15.3l0.3,0.3v0.3L8.2,16l-0.3-0.3v-0.4H8.2z M7.9,28.5l0.3,0.4l0.4-1l-0.3-0.3
		L7.9,28.5z M8,32.6l-0.2,0.3L8,33.2l0.3-0.3v-0.3H8z M9.4,42.9l-1-0.3L8.6,43l0.7,0.4V42.9z M8.9,16.5v0.3l-0.3-0.2L8.9,16.5z
		 M8.8,1.9l0.1,0.3h0.3L8.8,1.6V1.9z M9.8,36.1l-0.2,0.6l-0.1-0.1l-0.3,0.1l-0.3,0.9l0.6,0.1l0.7-0.3l0.2-1.2L10,35.9l-0.4,0.1H9.8z
		 M10.4,14.5l-0.3,0.6H9.7l-0.6-0.3v-0.3l1.3-0.3V14.5z M10,27.6H9.7l-0.6,0.7l0.1,0.1l0.6-0.1l0.3-0.4L10,27.6z M9.4,54.8l-0.2-0.2
		l-0.1,0.3L9.4,54.8z M9.8,66.8l-0.7-0.2v0.3l0.7,0.2V66.8z M10.3,55.5l-0.9,0.4v0.3l0.3,0.1l1-0.7v-0.3l-0.6-0.1L10.3,55.5z
		 M10.9,44.1l-0.7-0.1l-0.4,0.3l-0.1,0.6l0.6-0.1l0.6-0.4l0.2,0.2V44.1z M10.3,28.9v-0.1l-0.6-0.2l0.2,0.6h0.3L10.3,28.9z
		 M10.6,15.3L11,16l-0.4,1.2L10,16.9l-0.1-0.7l0.4-1L10.6,15.3z M11,38.1l-0.4-0.3L10,38v0.3l0.3,0.3l0.7-0.2V38.1z M10.1,3.7
		l0.1,0.1l0.2-0.6l-0.3-0.2V3.7z M10.4,34.9h0.3L10.6,35L10.4,34.9z M10.9,20.5l0.3-0.3h-0.6l0.2,0.6L10.9,20.5z M10.9,57.9
		l-0.3,0.3v0.4l0.4,0.3l0.3-1H10.9z M11.3,9.9l0.2,0.2v1l-0.3,0.6h-0.3l-0.2-1.5L11,9.8L11.3,9.9z M10.7,17.7l0.2-0.4l0.6-0.3h0.4
		l-0.2,0.7L10.9,18L10.7,17.7z M10.7,54H11l-0.3-0.3V54z M10.9,28.9l0.6,1.3v-1.3L11,28.6L10.9,28.9z M11.2,62h0.6l0.3-0.3l-0.6-0.3
		l-0.6,0.4L11.2,62z M11.6,51.5l-0.3,0.6l0.6-0.4L11.6,51.5z M13.1,60.4l0.3-0.1v1l0.3-0.2l0.4-0.7l-0.3-0.3L13.2,60l-0.6-0.4
		l-1.3,0.3l1.3,0.6H13.1z M12,19.4l-0.3,0.2l0.3,0.3V19.4z M11.7,58v0.7H12l0.2-2.2l-0.3,1.2L11.7,58z M12.2,27.8l0.4,0.1v-0.3
		L12,27.5L12.2,27.8z M12.5,35.5l-0.2-0.3H12l0.4-0.3l0.3,0.1L12.5,35.5z M12.2,37l0.1-0.6l0.3-0.1l-0.3,1L12.2,37z M12.5,66.3
		L12.2,66v0.4L12.5,66.3z M12.3,55.8h0.3l-0.3-0.3V55.8z M12.6,4.4l-0.1,0.3l0.4-0.3H12.6z M13.1,12v0.3h-0.3L12.6,12l0.2-0.2
		L13.1,12z M12.6,29.8V30l0.3-0.2H12.6z M12.6,36.2l0.4-0.3l-0.1-0.6L12.6,36.2z M14,20.8v-0.3l-0.6-0.2l-0.3,0.2l0.6,0.3l0.2,0.3
		L14,20.8z M13.5,30.3l-0.4,1.9h0.3l0.9-1L14,31l-0.1-0.7L13.5,30V30.3z M13.1,35.9l0.3,0.1v0.6L13.1,35.9z M13.2,56.5l0.1-0.3h-0.3
		L13.2,56.5z M14.4,3.9L14.1,4l-0.9-0.2l0.4,0.7l0.4,0.3l0.7-0.7l-0.2-0.3H14.4z M13.8,13.6l0.1,0.4l-0.6,0.1l0.2-0.6H13.8z
		 M13.7,16.5l0.2,0.3h-0.4v-0.4L13.7,16.5z M13.7,43.2h1l-0.1-0.3l-1.2-0.6V43L13.7,43.2z M13.8,66.8l-0.3-0.2l-0.2,0.3l0.4,0.2
		V66.8z M13.7,12.8H14v0.3l-0.4-0.2L13.7,12.8z M14.4,37.8l0.9-0.7l0.3,0.2L15,38.6L14.4,39l-0.7-0.9l0.4-0.2L14.4,37.8z M14.1,7.1
		l0.3-0.6l-0.1-0.1l-0.4,0.3l0.3,0.6V7.1z M14.1,56.7L14,56.5l-0.1,0.3L14.1,56.7z M14.3,66.3l0.3-0.3l-0.3-0.2L14,66.2L14.3,66.3z
		 M14.4,12.5L14.1,12l0.6,0.2v0.3H14.4z M15,31.8l-0.6,0.1l-0.3,0.4l0.4,0.4l0.7-0.9L15,31.8z M16.2,14.1l0.4-0.2v0.3l-1.5,1
		L15,15.6l-0.4-0.1l-0.3-0.7l0.4-1.5h0.4l0.6,0.9H16.2z M14.6,61.6l-0.2-0.2l-0.1,0.3L14.6,61.6z M14.6,1.6h0.3l-0.2-0.3L14.6,1.6z
		 M14.7,62.8l0.3,0.3h0.3l-0.1-0.9l-0.4-0.4l-0.1,0.7L14.7,62.8z M15,54.6l-0.3,0.4l0.4-0.1l0.3,0.1l0.4-0.3L15,54.3V54.6z
		 M16.2,56.5l-0.6-0.6l-0.9,0.3l0.2,0.3l1.2,0.9h0.9l0.7-1l-0.2-0.6l-0.6,0.3l-0.7,0.7V56.5z M15,59.2L14.7,60H15l0.3-0.4h0.3v-0.3
		l-0.4-0.3L15,59.2z M15.3,14.2l-0.1-0.3h-0.3v0.3H15.3z M15.6,65.7l-0.3-0.6L15,65.3l-0.1,0.4H15.6z M15.3,30.3l-0.1-0.1L15,30.4
		L15.3,30.3z M15,41.1l0.3-0.1L15,40.7V41.1z M15.5,64.1l0.2,0.2l0.4-0.2l0.4-0.4l-1.2,0.1L15.5,64.1z M15.9,41.8l-0.3-0.1l0.1,0.3
		L15.9,41.8z M15.8,22.6l0.4,0.4l0.3-0.3l-0.2-0.3l-0.6-0.1V22.6z M15.9,31.3l-0.2,0.2l0.3,0.1l0.2-0.7L16.1,31L15.9,31.3z M18,35
		l-0.2-0.6L17.1,34l-0.7,0.2l-0.4,0.3l-0.2,0.7l0.4,0.1l0.7-0.7l0.1,0.4l0.9,0.4V35z M16.9,4.4l-0.9-0.1l0.3,0.4l0.6,0.2l0.1-0.3
		L16.9,4.4z M19.8,62l2.1-0.9l0.2-0.4l-0.4-0.4L21.1,61l-0.7-0.2l-0.3,0.3v0.3l-0.4,0.3l-0.4-0.1h-2.1l-0.6-0.3l-0.3,0.3l-0.2,1.2
		l0.7-0.3l0.3,0.3l-0.1,0.4l0.6,0.2v-0.3l-0.4-0.4l0.2-0.3l0.9,0.1l0.2-0.4l0.3-0.2l0.9,0.3L19.8,62z M16.6,9.1l0.3-1h-0.3l-0.4,0.7
		l0.1,0.6h0.3V9.1z M16.9,60.4l-0.4-0.3l-0.2,0.2l0.2,0.3L16.9,60.4z M17.2,20l-0.4-0.1v0.3l0.6,0.1L17.2,20z M17.2,41.6l0.3-0.2V41
		l-0.6-0.3v0.9H17.2z M17.1,42.4l-0.1-0.1v0.3L17.1,42.4z M16.9,58.6v0.3l0.4,0.1v-0.3l-0.3-0.3L16.9,58.6z M17.5,40.1l0.3-0.1
		l0.2-1.2l-0.4-0.4h-0.4l0.3,1.3l-0.1,0.4H17.5z M17.8,53.4l-0.7,0.9l0.3,0.2l0.4-0.2l0.2-0.6L17.8,53.4z M17.5,20.2l0.4,0.1v-0.4
		h-0.6L17.5,20.2z M17.5,29.5l0.4,0.2l0.1-0.6l-0.6,0.1V29.5z M18.1,61.1l0.3-0.1v-0.4l-0.7-0.2l0.1,0.7H18.1z M18.3,4l-0.4,1.6h0.3
		l0.4-0.4l0.1-0.7L18.4,4H18.3z M18,7.7l-0.2,0.1L18,8.2h0.3V7.9L18,7.7z M19,8.3l-0.7,0.3L18,8.5l0.4,1.2h0.3l0.9-0.9l0.1-0.6
		l0.3,0.4l0.4-0.1L20.7,8l-0.4-0.4l-0.6,0.2L19,8.3z M18,55.4l0.3,0.2l0.3-0.2l-0.4-0.3L18,55.4z M20.7,40.2l1.9-1.5l-0.1-0.1
		l-0.7,0.1l-2.4,1.6l-0.9-0.1l-0.1,0.3l1,0.6l0.4-0.1l0.4-0.6l0.3,0.2L20.7,40.2z M18.6,56.4V57l0.3,0.2l0.2-0.7l-0.3-0.1L18.6,56.4
		z M19,58.9l-0.3-0.3l-0.1,0.3l0.1,0.3H19V58.9z M18.9,44.5h0.3v-0.3l-0.4,0.2L18.9,44.5z M18.7,66.8l0.3-0.3l-0.3-0.1V66.8z
		 M19.3,5.6L19,5.9l0.1,0.1l0.4-0.3L19.3,5.6z M19.5,1.2l-0.1-0.4h0.4v0.6L19.5,1.2z M19.5,17.7L19.3,18l0.6-0.2l0.1-0.4L19.5,17.7z
		 M20.1,34.6L19.3,35l0.6,0.2l0.4-0.4L20.1,34.6z M19.9,36.4l0.3-0.3v-0.3h-0.3l0.1,0.3l-0.4,0.3H19.9z M19.9,43l-0.2-0.2l-0.1,0.3
		L19.9,43z M20.1,52.7l-0.3,0.4l0.6,0.4v-0.9H20.1z M19.8,59.7l0.6,0.3l1.8,0.3l0.6-1l-2.2-0.3l-0.7,0.4V59.7z M20.5,5l-0.6,0.6
		l0.4,0.3L21,5.8l0.1,0.3l0.6,0.3l0.6-0.2l-0.2-0.4l-0.4-0.4l-0.4,0.3l-0.4-0.4L21,4.9L20.5,5z M20.4,17.4l0.7,0.3l0.2-0.9l-0.2-0.6
		l-1.2,0.4l0.1,0.7H20.4z M20.1,54.8l0.2-0.4l-0.3-0.1l0.1,0.9V54.8z M20.4,14.2l0.3,0.2V15l-0.3-0.1l-0.3-0.6H20.4z M20.4,41.3
		L20.2,41l-0.2,0.3l0.3,0.1V41.3z M20.5,56.8L20.2,57l-0.2,0.4l0.6-0.3l0.1-0.3H20.5z M20.7,20.5l-0.2-0.2l-0.3,0.3v0.3l0.4,0.4
		V20.5z M20.2,56.1l0.4-0.1l-0.4-0.2V56.1z M21.4,32.9l-0.6,0.2l-0.3,0.4h1v-0.4L21.4,32.9z M21.4,34l-0.2,0.3h-0.7l0.2,0.6l1.2,0.7
		l0.3-1.5l-0.7-0.4V34z M20.5,63.7h0.3l-0.1-0.3L20.5,63.7z M21.1,19.6l0.4-0.7l-0.3-0.2L20.7,19l0.1,0.6H21.1z M21.5,8l0.3-0.4
		l-0.4-0.3l-0.3,0.6l0.2,0.3L21.5,8z M22.3,56.1l-0.6-0.3l-0.6,0.3l0.4,0.4l0.6-0.2L22.3,56.1z M22,56.8l-0.7,0.4L22,58l0.9-1.2H22z
		 M21.7,18l0.3,0.1l0.4-0.1l-0.2-0.4L22,17.4l-0.6,0.3V18H21.7z M21.8,41.1L22,41l-0.2-0.2l-0.4,0.3H21.8z M22.4,13.1h-0.9l0.2-0.6
		l0.4-0.3l0.3,0.1l0.1,0.6L22.4,13.1z M22.1,62.8l0.7,0.7l0.4-0.3l-0.2-0.4l-0.7-0.6L21.5,62v0.7H22.1z M21.7,4.9L21.8,5l0.3-0.3
		l-0.4-0.4V4.9z M22.1,15.1l0.3,0.1l0.1,0.6L22,15.7l-0.2-0.6H22.1z M22.3,37.4v-0.3l-0.4-0.6l0.2,1.2h0.4L22.3,37.4z M22.3,20.2
		h0.9l0.3-0.3l-0.7-0.3v0.3L22.1,20L22,20.3L22.3,20.2z M22.4,21.7l0.1-0.7l-0.3-0.2L22,21.7H22.4z M23.6,64.4H22l0.4,0.6L23.6,64.4
		z M22.6,5.5l0.2-0.1L22.4,5L22.6,5.5z M22.9,52.7l0.3-0.1L23,51.8l-0.4,0.4L22.9,52.7z M23.8,6.8l-0.4-0.9l-0.4-0.2L23,5.9
		l-0.3,0.9l1,0.2V6.8z M23,31.6l0.3-0.4l-0.6,0.1v0.3H23z M22.9,39.2l0.2,0.1l0.3-0.4L23,38.7l-0.3,0.2L22.9,39.2z M23.3,42.3H23
		l-0.3,0.3l0.3,0.3L23.3,42.3z M27,61.4l1-0.4l0.3-0.4l-0.2-0.3l-1.3,0.4l-0.6-0.6h-1.5l-1.3-0.3l-0.6,0.3l0.2,0.6l-0.3,0.4l0.6,0.6
		h0.9v-0.1l-0.6-0.2v-0.3l0.4-0.4l0.7-0.2L25,61l0.6-0.6h0.3l0.7,1H27z M23.8,56.8l-0.6-0.2V57l0.6,0.2V56.8z M23.3,30.3v0.3
		l0.4,0.3l0.1-0.7L23.5,30L23.3,30.3z M24.1,32.9l-0.6,0.4l0.3,0.9l0.4,0.3l0.2-0.3v-1.2L24.1,32.9z M24.1,37.2l0.9,0.4h0.4l0.1-0.3
		L24.8,37v-0.7l-0.6-1l-0.7,1.5L24.1,37.2z M23.8,58.5h-0.3v0.3h0.4L23.8,58.5z M23.9,3.6l-0.1,0.2l0.1,0.1l0.3-0.1L23.9,3.6z
		 M24.2,12.3l-0.1-0.1l-0.3,0.1l0.1,0.3h0.3V12.3z M24.5,7.4L24.1,8l-0.2,0.7l0.2,0.3l0.7-0.3L24.4,8l0.3-0.2V7.6L24.5,7.4z
		 M24.4,39.8l1-0.4l0.3-0.4l0.1-0.7l-1.8,1.8L24.4,39.8z M25.3,58l-1,1l-0.1,0.4l0.6-0.2l1.2,0.2l0.3-0.4l0.7,0.7l0.2-0.6l-0.4-0.4
		h-0.3l-0.4-0.4V58l-0.4-0.3L25.3,58z M24.1,64.4l1,0.1L25,64.1L24.5,64L24.1,64.4z M24.8,62.8h0.6l0.3,0.3l0.9,0.3l-0.3-0.6
		L25.4,62L25,62.2l-0.4,0.7L24.8,62.8z M25,19.9l0.7,0.3l-0.9-1l-0.1,0.7H25z M25.1,6.7L25,6.5l-0.2,0.3L25.1,6.7z M24.8,31.9
		l0.3,0.2v-0.3l-0.3-0.2V31.9z M25.4,9.3l0.1-0.2L25,8.9v0.6l0.3,0.2L25.4,9.3z M25.3,19l0.6-0.3l0.2-0.6L25,19H25.3z M25,40.7
		l0.3,0.1l0.2-0.1L25,40.4V40.7z M25.5,14.8l-0.4,1l0.3-0.2l0.4-0.9H25.5z M26,12.2l0.2-0.2l-0.3-0.4h-0.4l-0.2,0.6H26z M25.7,13.1
		l0.3-0.2l0.2-0.4l-0.3-0.2l-0.4,0.6L25.7,13.1z M25.5,31.3l-0.1,0.3h0.3l0.1-0.3H25.5z M26.9,35.6l-1-0.1l-0.4,0.3l1.5,0.3l0.3-0.4
		H26.9z M26,32.8l-0.3,0.3v0.3l0.6-0.6H26z M26.7,40.8l-0.3-0.1l-0.6,0.1l-0.1,0.3l0.3,0.2l0.7-0.2V40.8z M26,66.3h0.3L26,65.9
		l-0.2,0.3L26,66.3z M26.1,14.5l0.4,0.6l0.4-0.4l-0.2-0.4L26,14.4L26.1,14.5z M26.3,37.8L26,38.1l0.3,0.2l0.3-0.3L26.3,37.8z
		 M26.3,7.3l0.2,0.6l0.4,0.3L28.1,8l0.4-0.3l0.3-0.9l-0.7,0.3l-0.2-0.3l-0.6-0.1L26.4,7L26.3,7.3z M26.3,9.5l0.4-0.1V8.8l-0.4,0.3
		V9.5z M26.6,10.2l0.4,1.2l0.6,0.1v-0.7L27,10.1l-0.6-0.2L26.6,10.2z M27,56.4l-0.3-0.1l-0.2,0.3l0.2,0.1l0.4-0.1L27,56.4z
		 M26.9,17.5h0.6l0.1-0.3l-0.3-0.2l-0.4,0.3l-0.1,0.4L26.9,17.5z M26.7,34.9h0.4L27,34.6h-0.3V34.9z M27,37.7l0.6-0.3L27,37
		l-0.3,0.1v0.4L27,37.7z M26.9,65.7l0.2-0.2l-0.3-0.1L26.9,65.7z M27.3,7.6l-0.4,0.2V7.3h0.4V7.6z M28.2,19.6l0.6-0.3L29,19
		l-0.1-0.3h-0.7l-1.2,0.7v0.3l0.9,0.2l0.1,0.3L28.2,19.6z M27,5.5v0.3h0.3l0.3-0.3l-0.4-0.3L27,5.5z M27.6,4.3l-0.1,0.4h0.3l0.7-1
		l-0.6,0.1v0.4H27.6z M27.8,16l-0.2-0.1l-0.1,0.3L27.8,16z M27.5,58l0.9,0.4l0.3-0.2l-0.1-0.4l-0.4-0.3l-0.6,0.1V58z M27.6,31
		l0.2,0.3l-0.2,0.9l1,0.3l0.2-0.4l-0.4-0.7l-0.3,0.2v-0.3l-0.4-0.4V31z M29.1,39.8l0.1-0.4l-0.9-0.4L27.6,39v0.4l0.9,0.2l0.4,0.4
		L29.1,39.8z M29,36.1l-0.1-0.6l-0.7-0.2l-0.3,0.3l0.1,0.4l0.7,0.3L29,36.1z M27.8,65.7l0.3,0.1l0.4-0.1l-0.2-0.3l-0.6-0.3V65.7z
		 M28.1,42.6l0.3,0.1l0.4-0.4l0.1-0.4l-0.3-0.1L28.5,42h-0.3l-0.3,0.4L28.1,42.6z M30.4,16.3l0.6-0.1l0.2-0.3l-1.9-1.2h-0.7
		l-0.2,0.6l0.7,0.2l-1,0.9h0.7l0.7,0.9l0.2-0.3l-0.2-0.4l0.3-0.2H30.4z M28.1,21.2l0.3,0.1l0.3-0.1v-0.3h-0.6V21.2z M28.1,33.4
		l0.3,0.2v-0.4h-0.3V33.4z M28.4,62.2l0.9-0.4l-0.4-0.4l-0.6,0.1L28.1,62L28.4,62.2z M28.7,68.1l-0.3-0.4l-0.3,0.1v0.3l0.4,0.3
		L28.7,68.1z M29,59.8l-0.3-0.4h-0.4l0.2,0.7L29,59.8z M28.4,37.4l0.3-0.1l-0.3-0.2V37.4z M29.4,5.5H29l-0.1,0.3l0.6,0.2V5.5z
		 M29.3,12.2H29l-0.1,0.3l0.6,0.3l0.4-0.3L29.4,12L29.3,12.2z M29.7,18.4L29.6,18L29,17.8l-0.1,0.3l0.3,0.2L29,18.5h0.3v-0.3h0.3
		l-0.1,0.3L29.7,18.4z M29.1,38.1l0.4-0.4l-0.3-0.1L28.8,38L29.1,38.1z M29,39l0.2,0.2l0.3-0.2H29z M29.4,9.1l-0.2-0.4v0.7L29.4,9.1
		z M29.7,58l0.3-0.3l-0.3-0.1L29.4,58H29.7z M30.4,8.2V7.9L30,7.4l-0.4,0.3l0.7,0.9L30.4,8.2z M29.6,34.7l0.4,0.2v0.9l0.7,0.9
		l0.7-2.5h-0.6l-0.2-0.7L29.6,34.7z M29.9,66.6l0.1-0.2h-0.3l-0.2,0.3L29.9,66.6z M30.3,17.5l0.3-0.3h-0.4L30,17.5H30.3z M30.2,18.4
		L30,19h0.2V18.4z M30.4,41.1l-0.3-0.3v0.3l0.4,0.3L30.4,41.1z M30.3,36.8v0.3l0.4-0.3H30.3z M30.7,39.8l0.3-0.4L30.3,39l0.2,0.9
		L30.7,39.8z M30.6,57.3l0.2-0.3l-0.4,0.3l0.2,0.1L30.6,57.3z M30.9,58.9l0.3-0.6l-0.6,0.2v0.4H30.9z M31,17.2l0.9,1v-1.2l-0.6-0.1
		l-0.4,0.1L31,17.2z M31.6,61l-0.1-0.3L31,60.5l-0.1,0.3l0.1,0.3l0.6,0.2V61z M31.3,67.7l-0.1-0.3L30.9,68h0.4V67.7z M32.8,33.1
		L31,32.8l0.3,0.4l0.6,0.3h0.9l0.1-0.3L32.8,33.1z M31,62.5h0.2L31,62.2V62.5z M31.5,11.4l-0.3,0.3l0.1,0.3h0.3l0.2-0.6H31.5z
		 M31.3,41.7l0.7,0.1l0.4-0.6L32.4,41l-1,0.3V41.7z M31.6,51.8l0.3-0.2v-0.3h-0.6v0.4H31.6z M31.5,5.8l0.1,0.7L32.1,7l0.2-0.6
		l-0.4-0.7l-0.2,0.4L31.5,5.8z M31.6,12.9v0.7l0.3,0.2l0.3-0.2l0.1-0.4l-0.3-0.4l-0.6-0.2L31.6,12.9z M32.8,15.3L33,15l-0.3-0.7
		l-0.6-0.3l-0.1,0.6l0.1,0.7l0.4,0.2L32.8,15.3z M32.1,18.8l-0.1-0.3v0.6h0.1V18.8z M31.9,29.4l0.4,0.3l0.3-0.2v-0.3l-0.7-0.1V29.4z
		 M32.7,35.6h-0.3l-0.4,0.6l0.4,1l0.7,0.1l-0.6-1.2l0.4-0.4L32.7,35.6z M32.2,40.1l-0.3-0.1v0.3l0.3,0.1V40.1z M31.9,58.3l0.1,0.3
		l0.3-0.2l0.2-0.6l-0.3-0.2L31.9,58.3z M33.3,8.9l-0.6-0.1l-0.6,0.1v0.3l0.6,0.4l0.6-0.2l0.3-0.4L33.3,8.9z M32.1,16.3l0.3-0.3
		l-0.3,0.2V16.3z M32.1,38.6l0.6-0.2l0.2-0.7h-0.7V38.6z M32.5,55.2l0.3-0.7l-0.7,0.4l0.2,0.3H32.5z M32.1,63.4l0.2,0.1l0.3-0.1
		v-0.3h-0.4V63.4z M32.4,8L33,8.2V7.9l-0.6-0.1V8z M32.5,42.3h0.3l0.1-0.4L32.5,42V42.3z M34.3,18.8l-0.4-0.3l0.1-0.3l-0.6-1.5
		l-0.6,0.2l0.1,0.1l-0.3,0.3l1,1.5l-0.4,0.3l0.3,0.9l0.4,0.2l0.2-1.2h0.3L34.3,18.8z M33.6,11.6v-0.3L33.3,11L33,11.1v0.3l0.4,0.4
		L33.6,11.6z M33.7,15.3l0.4-0.3v-0.9l-0.4,0.3l-0.3,0.9H33.7z M34,39.6l0.6-0.6l0.6,0.2v-0.4l-0.3-0.3l-0.7,0.2L33.7,39l-0.3,0.9
		L34,39.6z M34.5,41.4l-0.3-1l-0.7,0.2l0.2,1.6l0.4,0.4V42l0.4-0.4V41.4z M33.4,56.8l0.3,0.3h0.4l0.1-0.3l-0.9-0.3V56.8z M34,30.3
		L33.6,31v1.2l0.9-0.2l0.4,0.4l0.1,0.6l0.4-0.2l0.2-0.6l-0.2-0.9l-1.2,0.1L33.9,31l0.6-0.4v-0.3l-0.3-0.1L34,30.3z M34,63.4
		l-0.1-0.3l-0.3,0.4L34,63.4z M34.6,7.7l-0.2,0.4l-0.6,0.4l-0.2,0.4l0.6,0.4l1.5,0.6l0.3-0.6l-0.1-0.1L35,9.6l0.3-2.4l-0.6-0.7
		l-0.3,0.7L34.6,7.7z M33.7,29.4l0.4,0.3v-0.7l-0.4-0.3V29.4z M35,37.4l0.2-0.7l-0.3-0.4l-0.6-0.2l-0.4,0.3L33.7,37H34l0.6,0.4v0.2
		L35,37.4z M34.5,61.7h0.3l-0.3-0.4l-0.3,0.3L34.5,61.7z M34.8,11.4l0.3-0.3l-0.1-0.6h-0.3L34.3,11l0.2,0.4H34.8z M34.6,33.4
		l-0.3-0.2v0.3l0.3,0.1l0.1-0.1L34.6,33.4z M34.6,62.3l-0.2-0.4l-0.2,0.6L34.6,62.3z M36.5,13.4v0.3l1,0.7l1.2,0.3v-0.7l0.3-0.7
		l-0.4-0.3l-0.3,0.3l0.1,0.6h-0.6l-0.6-0.3l0.7-0.7l0.1-0.6l-0.7,0.1l0.4-0.7l0.9-0.3l0.7-0.9l-0.4-1l-0.6-0.7l1.2-1.8l-0.3-0.1
		L38.8,7l-1,2.4l0.9,0.9v0.3l-0.3,0.3l-0.9-0.1v0.4l-0.3,0.3l-1-0.4l-0.1,0.2l0.1,0.7l-0.1,0.4L35.6,12l-0.9,0.6l-0.3,0.4l0.3,0.2
		l0.9-0.4l0.3,0.3h0.4L36.5,13.4z M34.8,59.8l0.3,0.9h0.2l0.6-1.3l-0.1-0.7H35l-0.1,0.4l-0.3-0.6l-0.2,0.2l0.2,0.3l-0.2,0.1l0.6,0.2
		L34.8,59.8z M34.6,37.4l0.1,0.2v-0.3L34.6,37.4z M34.9,40.8l0.1-0.3l-0.3-0.2l-0.1,0.3L34.9,40.8z M34.9,30v0.2l0.3-0.2H34.9z
		 M36.7,16.9V16l-0.6-1l0.2-0.7l-0.6,0.2v0.7l-0.4,0.1L35,15.6l0.2,0.3h0.7l0.1,0.4l-0.3,0.4L35,17.1l0.3,0.3l1.2-0.1L36.7,16.9z
		 M36.2,5.5l-1,0.6l1.2,0.6l0.2-1L36.2,5.5z M35.6,22l-0.4,0.3l0.1,0.3h0.3V22z M38,34.7l-0.3-0.3h-0.6l-0.6,0.3l-1-0.2l0.2,0.9
		l0.4,0.4l0.4-0.7l0.6-0.3l0.3,0.4l-0.3,0.4l1.2-0.2l0.9-0.6l-0.2-1.2l-0.6,0.3l-0.1,0.3l0.3,0.4L38,35.2V34.7z M35.6,58.3h0.4
		L35.9,58h-0.3V58.3z M36.2,13.5l-0.2-0.2l-0.3,0.3L36.2,13.5z M35.8,61.4l0.2,0.3h0.4l0.2-0.6h-0.7V61.4z M36.1,29.1l-0.1,0.1h0.1
		V29.1z M37.1,42l0.4-0.3v-0.9l-0.4-0.7l-1.2,0.3v0.3h0.6l0.6,0.6L36.8,42H37.1z M36.4,53.6l-0.1-0.1l-0.2,0.3L36.4,53.6z
		 M37.1,62.8l-0.3-0.4h-0.1l-0.4,0.4l-0.2,0.4l0.3,0.2l0.3-0.2l0.3-0.6L37.1,62.8z M36.7,37.4v0.7H37l0.1-0.6l-0.4-0.4l-0.3,0.2
		L36.7,37.4z M36.7,62.2l0.1,0.2V62L36.7,62.2z M37.7,64l0.2,0.1h0.7l-0.2-0.3l-0.9-0.1L37.1,64H37.7z M37.6,4.2l-0.2-0.4l-0.1,0.6
		L37.6,4.2z M37.3,8.6h0.1V8.3h-0.1V8.6z M37.9,39.6l1.5,0.1l0.4-0.3l0.2-0.6l-1.3-0.3l-0.9,0.1L37.3,39L37.9,39.6z M38.6,61.6
		l0.6-0.4v-0.6L38.9,60l-1.6-0.6l0.1,0.9l0.6,1.5l-0.6,0.9l0.9,0.3l0.4-0.3l0.2-0.4h-0.3l-0.2-0.3L38.6,61.6z M37.6,17.4h0.3
		l-0.2-0.3l-0.3,0.2L37.6,17.4z M39.8,15.9l-0.1-0.2l-0.4,0.2l-0.2,0.6l-0.3,0.1L38.5,16l-0.9-0.6v0.9l1,0.6l1.2-0.7V15.9z M38,36.5
		h-0.4l0.1,0.4l0.4-0.2L38,36.5z M38.3,17.8l-0.4-0.2L37.7,18l0.3,0.1L38.3,17.8z M38.5,43.2v-0.3l-0.6-0.4L37.7,43l0.4,0.3
		L38.5,43.2z M38.8,18.1l-0.1,0.2h0.1V18.1z M39.1,17.4l-0.3-0.1l0.3,0.4V17.4z M39.1,37.5l-0.3,0.1V38h0.6v-0.4H39.1z M39.8,59.7
		l0.4-0.2l0.2-1.8L40.1,57l0.2-0.6l-0.7,0.2l-0.1-0.3v-1.2l0.3,0.2l0.4-0.7l-0.6-0.2l-0.7,0.9l0.2,0.3l-0.2,1.6l0.3,0.3v0.4
		l-0.3,0.6v0.6l0.6,0.4L39.8,59.7z M39.4,4l-0.2-0.2l-0.2,0.3L39.4,4z M39.5,41l-0.1-0.3l-0.3,0.4L39.5,41z M43.7,40.2l0.3,0.1
		l0.9-0.3l0.3-0.4L45,39.3l-0.9-0.4L44,38.6v-1.2l-1.2,0.3l-0.2,0.6l-0.3-0.2v-0.7l-0.7-0.9l0.7-0.3l-0.4-0.4l-0.6,0.4l-1.2-0.9
		l0.4,1l-1.2,0.7l0.7,0.4l1.3,0.3l0.1,0.6L41.4,39h1.9l0.1,0.6l-0.1,0.6H43.7z M39.9,42.7l0.1-0.3l-0.6,0.3l0.2,0.3h0.3V42.7z
		 M39.9,9.9l0.6,0.2l-0.1-0.3l-0.4-0.2V9.9z M40.7,30.6l-0.3-0.1l-0.4,0.3l0.1,0.3v-0.2h0.6V30.6z M40.4,32.1l-0.2-0.2l-0.2,0.4
		l0.3,0.2l0.4,0.7h0.4l0.4-0.4l0.1-0.4l-0.3-0.4l-0.3,0.4H41L40.4,32.1z M40.4,40.7l0.7-0.7h-0.6l-0.4,0.7H40.4z M41.1,34.6
		l-0.3-0.3l-0.6-0.1l0.3,0.6L41,35l0.3-0.1L41.1,34.6z M40.7,12.3h0.9l-0.1,0.7l1.3-0.7l-1.6-1.2l-0.7,1L40.7,12.3z M40.5,57
		l-0.1,0.3l0.3,0.3l0.1-0.6H40.5z M40.8,42.3l1.2-0.9l0.7-1.2l-0.3-0.2l-0.3,0.2l-0.6,0.9l-0.4,0.2l-0.4,0.4l-0.2,0.6H40.8z
		 M41,53.6l0.3-0.4l-0.2-0.6l-0.6,0.6l0.2,0.6L41,53.6z M40.7,62.9v0.3l0.3-0.2L40.7,62.9z M44.8,14.7L44,14.1l-2.7-0.4l-0.4-0.3
		v0.6l0.6,0.4h1.8L43.1,15l0.7,0.9l0.4-0.6l0.6,0.2V14.7z M40.8,16.8l0.3,0.2l0.3-0.2v-0.3h-0.6V16.8z M41.1,37.2l-0.3-0.6l0.4,0.2
		L41.1,37.2z M41,10.5h0.3l0.3-1l-0.3,0.6L41,10.5z M41,18l0.7,0.1L42,18v-0.3l-0.4-0.1L41,17.7V18z M41,31.3l0.3,0.4l0.4-0.2
		L41.1,31L41,31.3z M41.1,58.2v0.3h0.4l-0.3-0.6L41.1,58.2z M41.6,54.9l-0.1-0.2l-0.2,0.3L41.6,54.9z M41.7,34.3l0.1-0.3l-0.4-0.3
		v0.6H41.7z M42,62.6V62l-0.3-0.4h-0.3v1l0.3,0.1L42,62.6z M41.7,64.6l0.6-1l-0.6,0.2l-0.3,0.9H41.7z M41.9,43.5l-0.1-0.3v0.4
		L41.9,43.5z M42.5,34.4l-0.3,0.1v0.6l0.4,0.1l0.3-0.9H42.5z M42.3,5.5l0.4,0.3V5.5l-0.4-0.1V5.5z M42.5,52.4l0.3-0.2l-0.3-0.1
		l-0.1,0.1L42.5,52.4z M42.6,43.3h0.4l0.1-0.3h-0.6V43.3z M42.8,62.8l0.6,0.2l-0.2-0.6L42.8,62V62.8z M42.9,61.4h0.4l-0.2-0.3h-0.3
		V61.4z M44.4,42.7l-0.3-0.6l-0.7-0.3l-0.3,0.4l0.9,0.3l0.4,0.4V42.7z M43.4,60.3v-0.2l-0.3,0.3L43.4,60.3z M43.4,64.7l0.1-0.3
		l-0.3-0.2l-0.1,0.6L43.4,64.7z M43.8,3.6l-0.3-0.2l-0.3,0.2L43.7,4L44,3.9L43.8,3.6z M48.6,64.3l0.3-1.2l-0.3,0.2l-0.4-0.3L48,62.3
		l0.6,0.1l0.2-0.6l-0.6-0.4l-0.4,0.2l-1-0.7l0.2-0.9l0.7,0.3h0.6v-0.9l0.7-1.3l-0.3-0.1h-1.3l-0.3-0.3l-0.1-1.2L46,54.8l-0.7-0.4
		l-0.1,0.3l-0.6,0.3l-1.2,0.1l-0.2,0.7l0.2,1.8l0.4,0.3l0.7-0.2L44,56.4l0.2-0.6l0.4-0.3l0.6,0.4v0.6l-0.4,1.2l1.2-0.4l0.3,0.1
		l0.4,1.6h-0.7l-0.6,0.4v1.8l0.3,0.4l1.6,0.3l0.4,0.3l0.4,2.4l0.6-0.2L48.6,64.3z M43.4,54.5l0.1,0.3h0.3l-0.3-0.4L43.4,54.5z
		 M44,18.1h0.3v-0.4L44,17.5l-0.4,0.3l0.2,0.4L44,18.1z M43.5,31.2l0.2,0.3l0.3-0.2l-0.2-0.4L43.5,31.2z M44,11.1l-0.2,0.6l0.3,0.3
		l0.6-0.2L44,11.1z M44.2,12.5l-0.1-0.2L44,12.6L44.2,12.5z M44.5,59.2l0.6-0.3l0.3-0.4l-0.3-0.3l-0.6,0.3l-0.3,0.6L44.5,59.2z
		 M45.1,33.2h-0.3l-0.4,0.6l0.1,0.6h0.3l0.4-0.4l0.2-0.6L45.1,33.2z M45.1,37.8l0.1,0.1l0.4-0.4l-0.3-0.2L45,37.5L45.1,37.8z
		 M45.3,36.2l-0.1,0.3l0.3,0.1v-0.3L45.3,36.2z M45.6,35.8l0.6,0.6l0.4-1l-1.3,0.3L45.6,35.8z M45.7,53.1l-0.3,0.6l0.1,0.2l0.4-0.7
		l-0.3-0.3V53.1z M45.9,41.4l0.4,0.3l0.3-0.6l-0.1-0.3l-0.9-0.3L45.9,41.4z M46.3,14.4v-0.3l-0.6,0.1v0.4L46.3,14.4z M46,30.9V31
		l0.4,0.2l0.1-0.3l-0.4-0.3L46,30.9z M46.6,32.1l-0.1-0.3l-0.3,0.3l0.4,0.2V32.1z M46.8,38.6l-0.6,0.3l0.9,0.3l0.6-0.2l0.3-0.4
		l0.2-0.7L47.8,38l-0.2,0.4l-0.3,0.2H46.8z M49.6,40.4l-0.3-0.3L49,40.7l-1.3-0.2l-0.7-0.6l-0.1,0.3l0.9,1.5l-0.3,0.6l-0.9,0.6
		l-0.2,0.6l0.3,0.2l1.3-0.7L47.7,42h0.6l0.9-0.9h0.4V40.4z M46.3,62.9l0.2,0.3l0.6,0.2v-0.3l-0.6-0.4L46.3,62.9z M46.9,13.4v-0.3
		h-0.4v0.4l0.3,0.1L46.9,13.4z M46.6,41.7l0.2,0.1l-0.2-0.4V41.7z M47.1,7.7l0.1,0.4l0.3-0.3V7.6l-0.3-0.1L47.1,7.7z M47.5,9.5
		l0.1-0.4h-0.4v0.6L47.5,9.5z M47.8,32.9l-0.4,0.3l0.2,0.4l0.6-0.6L47.8,32.9z M48.6,34.9l-0.4-0.4l-0.6,0.1l0.4,0.6l0.6,0.1V34.9z
		 M47.8,31.8l0.1-0.2l-0.1-0.3V31.8z M48.6,65.9l0.2-0.3l-0.3-0.3l-0.6-0.2v0.6l0.4,0.3L48.6,65.9z M48.3,56.5l0.9,0.1l-1-0.7
		L48,56.4L48.3,56.5z M48.6,67.8l0.2-0.3l-0.4-0.6H48l0.2,0.9H48.6z M48.1,31v0.3l1,0.3L48.9,31l-0.6-0.3L48.1,31z M48.9,34.3
		l0.4-0.3l0.2-0.6h-0.3l-0.6,0.4v0.3L48.9,34.3z M48.9,30.1l0.3,0.1l0.1-0.3L49,29.8L48.9,30.1z M49.9,11.7l-0.2-0.3l-0.6,0.1L49,12
		l0.4,0.3l0.4-0.1V11.7z M49,14.5l0.3,0.3l0.3-0.2L49,14.2V14.5z M49.7,38.9l0.6-0.9l-0.6-0.1v0.3l-0.3,0.3l0.3,0.2L49.4,39
		L49.7,38.9z M49.7,64l0.2-0.3l-0.4-0.2V64H49.7z M49.7,52.7l0.6,0.3l-0.1-0.6h-0.4V52.7z M50.5,32.6l-0.2-0.1l-0.1,0.3L50.5,32.6z
		 M50.6,57.3l-0.1-0.2l-0.3,0.3l0.6,0.2L50.6,57.3z M50.2,62.8l0.3,0.2l0.1-0.2l-0.4-0.6V62.8z M50.8,14.8l0.2-0.6l0.3-0.1h-0.3
		l-0.6,0.4v0.3H50.8z M51.4,61.4l0.2-0.3l-0.4-0.4l-0.7-0.3V61l0.9,0.9L51.4,61.4z M50.8,7.3l-0.2,0.2l0.2,0.4h0.3l0.3-0.3V7.3H50.8
		z M51.2,38.7l1.6,0.4l-0.7-0.9h-0.6l-0.6,0.4H51.2z M51.5,57.7l0.3-0.3v-0.3l-0.6,0.2l-0.3,0.4H51.5z M51.1,13.8v0.1l0.4-0.1H51.1z
		 M51.1,34.3v0.3h0.6v-0.3L51.2,34L51.1,34.3z M51.1,54.9l0.3,0.1v-0.3l-0.3-0.2V54.9z M51.8,53.4l0.4-0.6L51.7,53l-0.4,0.7
		L51.8,53.4z M51.2,59.5l0.1,0.3l0.2-0.1l-0.2-0.2l0.2-0.3l-0.3-0.2V59.5z M52,43l0.3-0.2l-0.4-0.2l-0.2,0.2L52,43z M52.1,32.6
		L52,32.9l0.2,0.2l0.3-0.4H52.1z M52,46.3h0.3l0.1-0.6H52V46.3z M52,56.4l0.2,0.2l0.4-0.2H52z M52.9,14.1l0.1-0.3l-0.4-0.2l-0.2,0.3
		l0.3,0.3L52.9,14.1z M53.2,54.2l-0.6,0.1l0.3,0.2l0.1-0.2l0.3,0.2L53.2,54.2z M52.9,58.9l1.2-0.6h0.6v-0.6l-0.4-0.1l-0.4,0.3
		l-0.3-0.2l0.2,0.3l-0.2,0.2l-0.6-0.3l-0.3,1H52.9z M52.7,63.2l0.3-0.3l-0.4,0.1L52.7,63.2z M53.3,11.9L53,11.7l-0.3,0.9l0.3,0.4
		h0.3V11.9z M53.5,44.2L53,44.4l0.4,0.4V44.2z M53.2,55.4l0.7-1l-0.4,0.3L53,55.4H53.2z M53.5,41.7l-0.2-0.2l-0.1,0.3L53.5,41.7z
		 M53.5,11.3l0.2-0.3h-0.3v0.3H53.5z M53.5,56.2l0.3,0.1v-0.1H53.5z M53.6,60.1h0.6l-0.4-0.4l-0.3,0.1L53.6,60.1z M53.6,16.5v0.1
		l0.3-0.1H53.6z M54.5,18.1l-0.9-0.6l0.3,0.6H54.5z M54.6,5.6L54,5v0.3l0.4,0.6l0.2-0.2V5.6z M54,13.4l0.4,1.2l0.4,0.3l0.6-0.2
		L54,12.6V13.4z M54.8,8.3l0.4-0.7l-0.7,0.2l-0.3,0.6H54.8z M54.6,15.7l0.3-0.3v-0.3l-0.6,0.4L54.6,15.7z M55.2,40.7v-0.3h-0.4v0.3
		l0.3,0.1L55.2,40.7z M54.8,60.4l0.4-0.4l-0.3,0.1L54.8,60.4z M55.1,34.3l0.3,0.2l0.2-0.2L54.9,34L55.1,34.3z M55.4,59.2l-0.4-0.2
		v0.2H55.4z M57,11.4l-1.6,0.3l1.9-0.3H57z M55.7,15.7l0.4-0.4h-0.3l-0.3,0.3L55.7,15.7z M57.8,13.6l-0.6-0.1l0.3-0.2l0.2-0.4
		l-0.3-0.1l-1,0.1l-0.6,0.7l0.1,0.4l0.3,0.1l0.2-0.3l0.6-0.3l0.9,0.3V13.6z M56.1,56.7l-0.3-0.3v0.3H56.1z M56.4,39.6l0.2,0.1
		l0.3-0.1v-0.3h-0.6L56.4,39.6z M57,46.1h0.1l0.2-0.4L56.7,46L57,46.1z M56.9,57.7l0.3-0.4h-0.3l-0.2,0.4H56.9z M57.3,10.8l-0.2-0.4
		L57,11L57.3,10.8z M57.8,38.7l0.4-0.3l0.6-1.5l-0.3,0.6l-1,1.2H57.8z M57.9,39.8l0.4-0.1V39l-0.7,0.6v0.3L57.9,39.8z M57.9,56.7
		l0.3-0.3l-0.3-0.1l-0.3,0.3L57.9,56.7z M57.9,11.4l0.3,0.3h0.3l-0.6-0.6V11.4z M58.8,30.6l-0.6,0.3l-0.3,0.6l0.3,0.1l0.7-0.6
		l0.1-0.4H58.8z M58.6,34.7l-0.2-0.3l-0.6,0.1v0.3l0.7,0.1V34.7z M58.8,16.9l0.2-0.3h-0.3l0.1-0.3V16l0.7-1l-0.4-0.4l-0.1,0.6
		l-0.6,0.3l-0.2,0.3l0.3,0.2v0.7L58,17.1l0.4,0.4l0.3-0.2V16.9z M58.6,31.8h-0.4L58,32.3l0.7,0.3l0.3-0.1l0.2-0.4L58.6,31.8z
		 M58.4,10.1v0.4l0.4,0.3l-0.3-1L58.4,10.1z M58.4,18.4h0.3l-0.3-0.3V18.4z M59.2,42.4V42l-0.3-0.6l-0.6-0.3v0.3l0.4,0.4l0.2,0.6
		H59.2z M58.5,16.6v0.9l0.2-0.9v-0.1L58.5,16.6z M58.6,8.3l0.4,0.6l0.3-0.7l-0.3-0.9L58.6,7V8.3z M59.1,6.5l0.2,0.2l0.2-0.3
		l-0.3-0.2V6.5z M59.5,38l-0.1-0.3h-0.3l0.2,0.6h0.3V38z M59.5,39.6h-0.4v0.3l0.4,0.3V39.6z M60,7.3l-0.4,0.3l0.6,0.6h0.3l0.4-0.4
		L60,7.3z M59.8,10.4l-0.3,0.4L60,11l0.1-0.6H59.8z M59.8,17.7h0.3L60,16.9l-0.3-0.2l-0.2,0.4l0.3,0.1l-0.3,0.2L59.8,17.7z
		 M60.3,38.9l-0.2-0.2L60,39L60.3,38.9z M60.4,15.9l0.1-0.4l-0.4-0.3v0.7H60.4z M60.3,16.3l0.3,0.2l0.4-0.2L60.9,16h-0.7L60.3,16.3z
		 M61.2,34.1l0.3-0.4l-0.3-0.6l-0.3,0.4l-0.6,0.1l-0.2,0.4H61.2z M60.4,41.8h-0.2l0.4,0.3v-0.4L60.4,41.8z M60.4,13.9l0.4,0.4v-0.6
		l-0.4-0.2V13.9z M61.5,44.5v-0.3L61,43.6l-0.6,0.1l0.3,0.7l0.6,0.3L61.5,44.5z M61,10.8l-0.2-0.3h-0.3v0.3l0.4,0.3l0.1-0.2L61,10.8
		z M62.7,11.9L62.2,12l-0.4-0.3L61,12.3l-0.2,0.7l0.2-0.2l1.5,0.2v-0.3l0.4-0.4v-0.4H62.7z M61.2,37.5l0.7-0.2l0.7-1L61,36.8
		l-0.2,0.6L61.2,37.5z M61.3,19l-0.2-0.1L61,19.1L61.3,19z M61.6,1.8l-0.3-0.1l-0.2,0.1l0.4,0.3V1.8z M62.9,16l0.2-0.6l0.4-0.4
		l0.2-0.6l-0.3,0.2l-1-0.4l-0.4,0.4l-0.6,1.6l1.5,0.1L62.9,16z M62.1,39.5l-0.3-0.2l-0.2,0.6h0.4V39.5z M61.8,7.7V8l0.3-0.2
		l-0.2-0.4L61.8,7.7z M62.5,34.4l-0.1-0.3l-0.6,0.1l0.1,0.3l0.6,0.2V34.4z M62.2,9.2l0.2-0.7l-0.3-0.2l-0.2,0.9H62.2z M62.1,10.2
		h-0.2v0.4h0.3l0.2-0.3L62.1,10.2z M62.1,6.7v0.1l0.4-0.1H62.1z M63.5,37.4v-0.6h-0.3l-0.3,0.6l0.4,0.3L63.5,37.4z M65.5,35.5
		l-0.2-0.3l-1.2,0.1l-0.3,0.4l0.2,0.2l1.5-0.2V35.5z M64.6,9.5H64l0.3,0.3l0.4-0.2L64.6,9.5z M64.1,15.9l0.6-0.3L65,15l-0.9,0.3
		L64,15.7L64.1,15.9z M64.6,4l-0.4,0.3l0.1,0.3l0.6-0.3V4H64.6z M64.4,8V7.9l-0.3,0.3L64.4,8z M64.9,13.8l-0.4,0.1l0.3,0.3l0.1-0.1
		V13.8z M64.9,8l0.6-0.6h-0.6l-0.3,0.3v0.4L64.9,8z M65.6,14.8l0.4-0.7l-0.3-0.2l-0.4,0.4l0.2,0.6L65.6,14.8z M66.2,12l-0.1-0.3
		h-0.4l-0.1,0.6h0.7V12z M65.6,36.5l0.3,0.1l0.9-0.6l-0.3-0.4l-0.6-0.1l-0.4,0.6L65.6,36.5z M65.6,33.7l0.2,0.3l0.6,0.3l0.2-0.1
		l-0.2-0.6l-0.6-0.2L65.6,33.7z M65.9,5.5v0.3l0.3,0.2V5.6L65.9,5.5z M66.1,38h0.3v-0.1h-0.4L66.1,38z M66.4,31.8l0.3,0.6l0.6,0.2
		l0.3-0.2v-0.3l-0.3-0.3l-0.9-0.3V31.8z M66.8,7.4l0.3-0.2l-0.3-0.2V7.4z M67.1,12.5L67,12.3l-0.1,0.3L67.1,12.5z M66.8,36.5
		l0.3,0.6l0.3,0.2l0.1-0.9L67,36.2L66.8,36.5z M67,30.6l0.3-0.1L67,30.1V30.6z M67.3,6.2l0.3-0.2l0.2-0.4l-0.6,0.4L67.3,6.2z
		 M67.5,38.1H68l0.4-0.3l0.1-0.4h-0.4l-0.6,0.3l-0.3,0.6L67.5,38.1z M67.5,13.9l0.3,0.2l0.3-0.4h-0.7L67.5,13.9z M68.1,41.7h0.3
		v-0.3h-0.3l-0.3,0.3l0.1,0.1L68.1,41.7z M68.4,16.5l0.1-0.7L68,15.9l0.2,0.6H68.4z M68.9,35.3L68.7,35l0.7-0.3v-0.6l-0.9,0.3
		l-0.6,1l1,0.4l0.4-0.3L68.9,35.3z M68.6,30.9l-0.3-0.3L68.1,31L68.6,30.9z M68.6,15.3l0.6-0.6l0.1-0.9H69l-0.3-0.3l-0.4,0.1
		l0.3,0.6v0.4l-0.3,0.4L68.6,15.3z M68.9,5.5h-0.3v0.2L68.9,5.5z M69.2,33.2l0.6,0.6l-0.2-0.7l-0.4-0.4l-0.4,0.4l0.2,0.1H69.2z
		 M69.5,13.1l0.6-0.6L69.6,12l-0.4,0.9L69.5,13.1z M69.6,16.5l0.6,0.1l-0.4-0.4l-0.3,0.1L69.6,16.5z M71,35.8v-0.3l-0.3-0.3
		l-0.7,0.1v0.4H71z M70.2,6.7l0.4,1.2V7.4l0.4-0.7H70.2z M70.8,38.3l0.7-0.2l-0.2-0.3l-0.9-0.2V37l-0.3-0.2v0.9l0.4,0.9L70.8,38.3z
		 M70.5,13.6h0.9l-0.1-0.6l0.1-0.6l-0.7,0.1L70.5,13.6z M71.1,42.3l-0.3,0.1h0.3V42.3z M71.1,15.9L71,16.2l0.4-0.3H71.1z M71.1,36.8
		L71,36.5l0.2,0.6l0.3-0.1L71.1,36.8z M71.6,17.1v-0.3l-0.4,0.4l0.3,0.1L71.6,17.1z M71.9,40.4v-0.3l-0.4-0.4h-0.3v0.7l0.6,0.2
		L71.9,40.4z M72,20.6l0.3-0.3H72V20.6z M72.2,17.2h0.3l0.2-0.4l-0.4,0.2V17.2z M72.3,22.1h0.4l-0.1-0.3h-0.4L72.3,22.1z M72.7,37.7
		v-0.6l0.3-0.6h-0.3l-0.6,1.3l0.4,0.1L72.7,37.7z M73.3,6.4L73,6.1h-0.3l0.2,0.6L73.3,7V6.4z M74.7,34.6l-0.2,1l0.4,0.4v-0.7
		l-0.2-0.1v-0.7L74.7,34.6z M76.6,12.9H77l0.3-0.9h-0.9l-0.1,0.3L76.6,12.9z M77.6,16.9h0.6l-0.2-0.4v0.3l-0.4-0.2V16.9z M77.9,20.5
		l0.4-0.4l-0.3-0.1l-0.4,0.4L77.9,20.5z M78.1,22.3l0.2-0.2l-0.4-0.4l-0.1,0.6H78.1z M77.9,14.5l0.1,0.1l0.4-0.7l-0.7,0.3L77.9,14.5
		z M80.2,16.2v0.1l0.3-0.1H80.2z M80.2,18.4l0.2,0.3h0.3v-0.3l-0.4-0.3V18.4z M92.8,6.5h0.3l0.2-0.1l-0.2-0.3L92.8,6.5z M94,5.6
		l0.6-0.3l0.3-0.6l-1.6,0.9H94z"/>
</g>
</svg>
