<?xml version="1.0" encoding="utf-8"?>
<!-- Generator: Adobe Illustrator 21.0.1, SVG Export Plug-In . SVG Version: 6.00 Build 0)  -->
<svg version="1.1" id="Layer_1" xmlns="http://www.w3.org/2000/svg" xmlns:xlink="http://www.w3.org/1999/xlink" x="0px" y="0px"
	 viewBox="0 0 357.3 417.8" style="enable-background:new 0 0 357.3 417.8;" xml:space="preserve">
<style type="text/css">
	.st0{fill:none;stroke:#000000;stroke-miterlimit:10;}
	.st1{fill:#BFBFBF;}
	.st2{fill:#74CEE2;}
	.st3{fill:#2A71B9;}
	.st4{fill:none;}
	.st5{font-family:'Veneer';}
	.st6{font-size:21px;}
	.st7{letter-spacing:9;}
	.st8{font-family:'Helvetica';}
	.st9{font-size:13px;}
	.st10{letter-spacing:16;}
	.st11{letter-spacing:17;}
	.st12{letter-spacing:15;}
	.st13{font-family:'Helvetica-Bold';}
	.st14{font-size:12px;}
</style>
<g>
	<g>
		<rect x="1.1" y="378" class="st1" width="85.1" height="22.2"/>
	</g>
</g>
<g>
	<g>
		<rect x="1.1" y="332.8" class="st2" width="103.7" height="22.2"/>
	</g>
</g>
<g>
	<g>
		<rect x="1.1" y="287.7" class="st1" width="124.9" height="22.2"/>
	</g>
</g>
<g>
	<g>
		<rect x="1.1" y="242.5" class="st2" width="138.2" height="22.2"/>
	</g>
</g>
<g>
	<g>
		<rect x="1.1" y="197.3" class="st1" width="151.5" height="22.2"/>
	</g>
</g>
<g>
	<g>
		<rect x="1.1" y="152.2" class="st2" width="178.1" height="22.2"/>
	</g>
</g>
<g>
	<g>
		<rect x="1.1" y="107" class="st1" width="241.9" height="22.2"/>
	</g>
</g>
<g>
	<g>
		<rect x="1.1" y="61.8" class="st2" width="257.8" height="22.2"/>
	</g>
</g>
<g>
	<g>
		<rect x="1.1" y="16.7" class="st1" width="356.2" height="22.2"/>
	</g>
</g>
<rect x="7.1" y="21" class="st4" width="429.1" height="430.1"/>
<text transform="matrix(1 0 0 1 7.1115 36.2017)"><tspan x="0" y="0" class="st3 st5 st6">134</tspan><tspan x="22.3" y="0" class="st3 st5 st6 st7">	</tspan><tspan x="0" y="16.5" class="st3 st8 st9">Katastrofit</tspan><tspan x="0" y="45" class="st3 st5 st6">97</tspan><tspan x="15.6" y="45" class="st3 st5 st6 st10">	</tspan><tspan x="0" y="61.5" class="st3 st8 st9">Koulutus</tspan><tspan x="0" y="90" class="st3 st5 st6">91</tspan><tspan x="14.1" y="90" class="st3 st5 st6 st11">	</tspan><tspan x="0" y="106.5" class="st3 st8 st9">Varhaiskasvatus</tspan><tspan x="0" y="135" class="st3 st5 st6">67</tspan><tspan x="15.8" y="135" class="st3 st5 st6 st12">	</tspan><tspan x="0" y="151.5" class="st3 st8 st9">Lasten osallistuminen</tspan><tspan x="0" y="180" class="st3 st5 st6">57</tspan><tspan x="15.7" y="180" class="st3 st5 st6 st10">	</tspan><tspan x="0" y="196.5" class="st3 st8 st9">Puhdas vesi ja sanitaatio</tspan><tspan x="0" y="225" class="st3 st5 st6">52</tspan><tspan x="16.7" y="225" class="st3 st5 st6 st12">	</tspan><tspan x="0" y="241.5" class="st3 st8 st9">Taloudellinen turvallisuus</tspan><tspan x="0" y="270" class="st3 st5 st6">47</tspan><tspan x="15.7" y="270" class="st3 st5 st6 st10">	</tspan><tspan x="0" y="286.5" class="st3 st8 st9">Lastensuojelu</tspan><tspan x="0" y="315" class="st3 st5 st6">39</tspan><tspan x="0" y="331.5" class="st3 st8 st9">Kehitysaiheinen koulutus ja kummiviestintä</tspan><tspan x="247.1" y="331.5" class="st3 st13 st9">  </tspan><tspan x="0" y="360" class="st3 st5 st6">32</tspan><tspan x="0" y="376.5" class="st3 st8 st9">Seksuaali- ja lisääntymisterveys</tspan></text>
<rect x="7.1" y="5.6" class="st4" width="201.1" height="28.3"/>
<text transform="matrix(1 0 0 1 7.1113 12.2437)" class="st3 st5 st14">miljoonaa euroa </text>
</svg>
