<?xml version="1.0" encoding="utf-8"?>
<!-- Generator: Adobe Illustrator 21.0.2, SVG Export Plug-In . SVG Version: 6.00 Build 0)  -->
<svg version="1.1" id="Layer_1" xmlns="http://www.w3.org/2000/svg" xmlns:xlink="http://www.w3.org/1999/xlink" x="0px" y="0px"
	 viewBox="0 0 478.9 249.4" style="enable-background:new 0 0 478.9 249.4;" xml:space="preserve">
<style type="text/css">
	.st0{fill:none;stroke:#000000;stroke-miterlimit:10;}
	.st1{fill:#BFBFBF;}
	.st2{fill:#74CEE2;}
	.st3{fill:none;}
	.st4{fill:#2A71B9;}
	.st5{font-family:'Veneer';}
	.st6{font-size:21px;}
	.st7{letter-spacing:7;}
	.st8{font-family:'Helvetica';}
	.st9{font-size:11px;}
	.st10{letter-spacing:31;}
	.st11{letter-spacing:14;}
	.st12{letter-spacing:15;}
	.st13{letter-spacing:26;}
	.st14{letter-spacing:13;}
	.st15{letter-spacing:30;}
	.st16{letter-spacing:29;}
	.st17{font-family:'Helvetica-Bold';}
	.st18{font-size:12px;}
	.st19{fill:#0072CE;}
</style>
<g>
	<path class="st0" d="M0,196.2"/>
	<g>
		<g>
			<line class="st0" x1="0" y1="115.4" x2="13.4" y2="115.4"/>
		</g>
	</g>
</g>
<g>
	<g>
		<g>
			<rect y="206.8" class="st1" width="93.9" height="23.2"/>
		</g>
	</g>
	<g>
		<g>
			<rect y="181.1" class="st2" width="114.4" height="23.2"/>
		</g>
	</g>
	<g>
		<g>
			<rect y="155.3" class="st1" width="137.9" height="23.2"/>
		</g>
	</g>
	<g>
		<g>
			<rect y="129.5" class="st2" width="152.6" height="23.2"/>
		</g>
	</g>
	<g>
		<g>
			<rect y="103.8" class="st1" width="167.2" height="23.2"/>
		</g>
	</g>
	<g>
		<g>
			<rect y="78" class="st2" width="196.5" height="23.2"/>
		</g>
	</g>
	<g>
		<g>
			<rect y="52.3" class="st1" width="267" height="23.2"/>
		</g>
	</g>
	<g>
		<g>
			<rect y="26.5" class="st2" width="284.5" height="23.2"/>
		</g>
	</g>
	<g>
		<g>
			<rect y="0.7" class="st1" width="393" height="23.2"/>
		</g>
	</g>
</g>
<rect x="4.4" y="5.1" class="st3" width="352.1" height="257.8"/>
<text transform="matrix(1 0 0 1 5.3887 20.3153)" class="st4 st5 st6">134</text>
<text transform="matrix(1 0 0 1 27.6887 20.3153)" class="st4 st5 st6 st7"> </text>
<text transform="matrix(1 0 0 1 41.3887 18.3153)" class="st4 st8 st9 st10">          </text>
<text transform="matrix(1 0 0 1 401.3887 18.3153)" class="st4 st8 st9">Katastrofit</text>
<text transform="matrix(1 0 0 1 5.3887 46.1153)" class="st4 st5 st6">97</text>
<text transform="matrix(1 0 0 1 20.9887 46.1153)" class="st4 st5 st6 st11"> </text>
<text transform="matrix(1 0 0 1 41.3887 44.1153)" class="st4 st8 st9 st10">       </text>
<text transform="matrix(1 0 0 1 293.3887 44.1153)" class="st4 st8 st9">Koulutus</text>
<text transform="matrix(1 0 0 1 5.3887 71.9153)" class="st4 st5 st6">91</text>
<text transform="matrix(1 0 0 1 19.4887 71.9153)" class="st4 st5 st6 st12"> </text>
<text transform="matrix(1 0 0 1 40.6887 71.9153)" class="st4 st5 st6 st13"> </text>
<text transform="matrix(1 0 0 1 72.4887 71.9153)" class="st4 st5 st6 st14"> </text>
<text transform="matrix(1 0 0 1 91.4887 71.9153)" class="st4 st5 st6 st15"> </text>
<text transform="matrix(1 0 0 1 5.3887 97.7153)" class="st4 st5 st6">67</text>
<text transform="matrix(1 0 0 1 21.1887 97.7153)" class="st4 st5 st6 st14"> </text>
<text transform="matrix(1 0 0 1 5.3887 123.5153)" class="st4 st5 st6">57</text>
<text transform="matrix(1 0 0 1 21.0887 123.5153)" class="st4 st5 st6 st11"> </text>
<text transform="matrix(1 0 0 1 5.3887 149.3153)" class="st4 st5 st6">52</text>
<text transform="matrix(1 0 0 1 22.0887 149.3153)" class="st4 st5 st6 st14"> </text>
<text transform="matrix(1 0 0 1 5.3887 175.1153)" class="st4 st5 st6">47</text>
<text transform="matrix(1 0 0 1 21.0887 175.1153)" class="st4 st5 st6 st11"> </text>
<text transform="matrix(1 0 0 1 5.3887 200.9153)" class="st4 st5 st6">39</text>
<text transform="matrix(1 0 0 1 21.8887 200.9153)" class="st4 st5 st6 st11"> </text>
<text transform="matrix(1 0 0 1 41.3887 200.9153)" class="st4 st5 st6 st15">   </text>
<text transform="matrix(1 0 0 1 41.3887 200.9153)" class="st4 st5 st6 st16">   </text>
<text transform="matrix(1 0 0 1 123.3887 198.9153)" class="st4 st8 st9">Kehitysaiheinen koulutus ja kummiviestintä</text>
<text transform="matrix(1 0 0 1 358.4887 198.9153)" class="st4 st17 st18">  </text>
<text transform="matrix(1 0 0 1 5.3887 226.7153)" class="st4 st5 st6">32</text>
<text transform="matrix(1 0 0 1 21.8887 226.7153)" class="st4 st5 st6 st14"> </text>
<text transform="matrix(1 0 0 1 41.3887 226.7153)" class="st4 st5 st6 st16">  </text>
<text transform="matrix(1 0 0 1 113.3887 226.7153)" class="st4 st5 st6">   </text>
<text transform="matrix(1 0 0 1 103.9887 224.7153)" class="st4 st8 st9">Seksuaali- ja lisääntymisterveys</text>
<text transform="matrix(1 0 0 1 5.3887 247.7153)" class="st4 st5 st18">miljoonaa euroa </text>
<rect x="275" y="62.1" class="st3" width="83" height="11.5"/>
<text transform="matrix(1 0 0 1 275 69.9973)" class="st19 st8 st9">Varhaiskasvatus</text>
<rect x="206.5" y="86.9" class="st3" width="106.5" height="11.5"/>
<text transform="matrix(1 0 0 1 206.5 94.7974)" class="st19 st8 st9">Lasten osallistuminen</text>
<rect x="176.5" y="113.2" class="st3" width="128" height="11.5"/>
<text transform="matrix(1 0 0 1 176.5 121.1092)" class="st4 st8 st9">Puhdas vesi ja sanitaatio</text>
<rect x="161.5" y="139.5" class="st3" width="128" height="11.5"/>
<text transform="matrix(1 0 0 1 161.5 147.421)" class="st4 st8 st9">Taloudellinen turvallisuus</text>
<rect x="149" y="165" class="st3" width="71.5" height="11.5"/>
<text transform="matrix(1 0 0 1 149 172.921)" class="st4 st8 st9">Lastensuojelu</text>
</svg>
