<?xml version="1.0" encoding="utf-8"?>
<!-- Generator: Adobe Illustrator 21.0.2, SVG Export Plug-In . SVG Version: 6.00 Build 0)  -->
<svg version="1.1" id="Layer_1" xmlns="http://www.w3.org/2000/svg" xmlns:xlink="http://www.w3.org/1999/xlink" x="0px" y="0px"
	 viewBox="0 0 478.9 249.4" style="enable-background:new 0 0 478.9 249.4;" xml:space="preserve">
<style type="text/css">
	.st0{fill:none;stroke:#000000;stroke-miterlimit:10;}
	.st1{fill:#BFBFBF;}
	.st2{fill:#74CEE2;}
	.st3{fill:none;}
	.st4{fill:#2A71B9;}
	.st5{font-family:'Veneer';}
	.st6{font-size:21px;}
	.st7{letter-spacing:8;}
	.st8{enable-background:new    ;}
	.st9{font-family:'Helvetica';}
	.st10{font-size:11px;}
	.st11{letter-spacing:32;}
	.st12{letter-spacing:15;}
	.st13{letter-spacing:16;}
	.st14{letter-spacing:27;}
	.st15{letter-spacing:14;}
	.st16{letter-spacing:31;}
	.st17{letter-spacing:30;}
	.st18{font-family:'Helvetica-Bold';}
	.st19{font-size:12px;}
</style>
<g>
	<path class="st0" d="M0,196.2"/>
	<g>
		<g>
			<line class="st0" x1="0" y1="115.4" x2="13.4" y2="115.4"/>
		</g>
	</g>
</g>
<g>
	<g>
		<g>
			<rect y="206.8" class="st1" width="93.9" height="23.2"/>
		</g>
	</g>
	<g>
		<g>
			<rect y="181.1" class="st2" width="114.4" height="23.2"/>
		</g>
	</g>
	<g>
		<g>
			<rect y="155.3" class="st1" width="137.9" height="23.2"/>
		</g>
	</g>
	<g>
		<g>
			<rect y="129.5" class="st2" width="152.6" height="23.2"/>
		</g>
	</g>
	<g>
		<g>
			<rect y="103.8" class="st1" width="167.2" height="23.2"/>
		</g>
	</g>
	<g>
		<g>
			<rect y="78" class="st2" width="196.5" height="23.2"/>
		</g>
	</g>
	<g>
		<g>
			<rect y="52.3" class="st1" width="267" height="23.2"/>
		</g>
	</g>
	<g>
		<g>
			<rect y="26.5" class="st2" width="284.5" height="23.2"/>
		</g>
	</g>
	<g>
		<g>
			<rect y="0.7" class="st1" width="393" height="23.2"/>
		</g>
	</g>
</g>
<rect x="4.4" y="5.1" class="st3" width="352.1" height="257.8"/>
<text transform="matrix(1 0 0 1 5.3887 20.3153)" class="st4 st5 st6">134</text>
<text transform="matrix(1 0 0 1 27.6887 20.3153)" class="st4 st5 st6 st7"> </text>
<text transform="matrix(1 0 0 1 41.3887 18.3153)" class="st8"><tspan x="0" y="0" class="st4 st9 st10 st11">										</tspan><tspan x="360" y="0" class="st4 st9 st10">Katastrofit</tspan></text>
<text transform="matrix(1 0 0 1 5.3887 46.1153)" class="st4 st5 st6">97</text>
<text transform="matrix(1 0 0 1 20.9887 46.1153)" class="st4 st5 st6 st12"> </text>
<text transform="matrix(1 0 0 1 41.3887 44.1153)" class="st8"><tspan x="0" y="0" class="st4 st9 st10 st11">							</tspan><tspan x="252" y="0" class="st4 st9 st10">Koulutus</tspan></text>
<text transform="matrix(1 0 0 1 5.3887 71.9153)" class="st4 st5 st6">91</text>
<text transform="matrix(1 0 0 1 19.4887 71.9153)" class="st8"><tspan x="0" y="0" class="st4 st5 st6 st13"> </tspan><tspan x="21.2" y="0" class="st4 st5 st6 st14">	</tspan><tspan x="53" y="0" class="st4 st5 st6 st15">	</tspan><tspan x="72" y="0" class="st4 st5 st6 st16">	</tspan></text>
<text transform="matrix(1 0 0 1 41.3887 69.9153)" class="st8"><tspan x="0" y="0" class="st4 st9 st10 st11">						</tspan><tspan x="216" y="0" class="st4 st9 st10">      Varhaiskasvatus</tspan></text>
<text transform="matrix(1 0 0 1 5.3887 97.7153)" class="st4 st5 st6">67</text>
<text transform="matrix(1 0 0 1 21.1887 97.7153)" class="st4 st5 st6 st15"> </text>
<text transform="matrix(1 0 0 1 41.3887 95.7153)" class="st8"><tspan x="0" y="0" class="st4 st9 st10 st11">				</tspan><tspan x="144" y="0" class="st4 st9 st10">       Lasten osallistuminen</tspan></text>
<text transform="matrix(1 0 0 1 5.3887 123.5153)" class="st4 st5 st6">57</text>
<text transform="matrix(1 0 0 1 21.0887 123.5153)" class="st4 st5 st6 st12"> </text>
<text transform="matrix(1 0 0 1 41.3887 121.5153)" class="st8"><tspan x="0" y="0" class="st4 st9 st10 st11">			</tspan><tspan x="108" y="0" class="st4 st9 st10">         Puhdas vesi ja sanitaatio</tspan></text>
<text transform="matrix(1 0 0 1 5.3887 149.3153)" class="st4 st5 st6">52</text>
<text transform="matrix(1 0 0 1 22.0887 149.3153)" class="st4 st5 st6 st15"> </text>
<text transform="matrix(1 0 0 1 41.3887 147.3153)" class="st8"><tspan x="0" y="0" class="st4 st9 st10 st11">			</tspan><tspan x="108" y="0" class="st4 st9 st10">    Taloudellinen turvallisuus</tspan></text>
<text transform="matrix(1 0 0 1 5.3887 175.1153)" class="st4 st5 st6">47</text>
<text transform="matrix(1 0 0 1 21.0887 175.1153)" class="st4 st5 st6 st12"> </text>
<text transform="matrix(1 0 0 1 41.3887 173.1153)" class="st8"><tspan x="0" y="0" class="st4 st9 st10 st11">		</tspan><tspan x="72" y="0" class="st4 st9 st10">           Lastensuojelu</tspan></text>
<text transform="matrix(1 0 0 1 5.3887 200.9153)" class="st8"><tspan x="0" y="0" class="st4 st5 st6">39</tspan><tspan x="16.5" y="0" class="st4 st5 st6 st12">	</tspan><tspan x="36" y="0" class="st4 st5 st6 st16">			</tspan></text>
<text transform="matrix(1 0 0 1 41.3887 200.9153)" class="st4 st5 st6 st17">   </text>
<text transform="matrix(1 0 0 1 123.3887 198.9153)" class="st4 st9 st10">Kehitysaiheinen koulutus ja kummiviestintä</text>
<text transform="matrix(1 0 0 1 358.4887 198.9153)" class="st4 st18 st19">  </text>
<text transform="matrix(1 0 0 1 5.3887 226.7153)" class="st4 st5 st6">32</text>
<text transform="matrix(1 0 0 1 21.8887 226.7153)" class="st4 st5 st6 st15"> </text>
<text transform="matrix(1 0 0 1 41.3887 226.7153)" class="st4 st5 st6 st17">  </text>
<text transform="matrix(1 0 0 1 113.3887 226.7153)" class="st4 st5 st6">   </text>
<text transform="matrix(1 0 0 1 103.9887 224.7153)" class="st4 st9 st10">Seksuaali- ja lisääntymisterveys</text>
<text transform="matrix(1 0 0 1 5.3887 247.7153)" class="st4 st5 st19">miljoonaa euroa </text>
</svg>
