<?xml version="1.0" encoding="utf-8"?>
<!-- Generator: Adobe Illustrator 21.0.2, SVG Export Plug-In . SVG Version: 6.00 Build 0)  -->
<svg version="1.1" id="Layer_1" xmlns="http://www.w3.org/2000/svg" xmlns:xlink="http://www.w3.org/1999/xlink" x="0px" y="0px"
	 viewBox="0 0 357.4 422" style="enable-background:new 0 0 357.4 422;" xml:space="preserve">
<style type="text/css">
	.st0{fill:#BFBFBF;}
	.st1{fill:#74CEE2;}
	.st2{fill:none;}
	.st3{fill:#2A71B9;}
	.st4{font-family:'Veneer';}
	.st5{font-size:21px;}
	.st6{letter-spacing:7;}
	.st7{font-family:'Helvetica';}
	.st8{font-size:13px;}
	.st9{letter-spacing:14;}
	.st10{letter-spacing:15;}
	.st11{letter-spacing:13;}
	.st12{font-family:'Helvetica-Bold';}
	.st13{font-size:11px;}
</style>
<g>
	<g>
		<rect y="378.9" class="st0" width="85.1" height="22.2"/>
	</g>
</g>
<g>
	<g>
		<rect y="333.8" class="st1" width="103.7" height="22.2"/>
	</g>
</g>
<g>
	<g>
		<rect y="288.6" class="st0" width="124.9" height="22.2"/>
	</g>
</g>
<g>
	<g>
		<rect y="243.4" class="st1" width="138.2" height="22.2"/>
	</g>
</g>
<g>
	<g>
		<rect y="198.3" class="st0" width="151.5" height="22.2"/>
	</g>
</g>
<g>
	<g>
		<rect y="153.1" class="st1" width="178.1" height="22.2"/>
	</g>
</g>
<g>
	<g>
		<rect y="107.9" class="st0" width="241.9" height="22.2"/>
	</g>
</g>
<g>
	<g>
		<rect y="62.8" class="st1" width="257.8" height="22.2"/>
	</g>
</g>
<g>
	<g>
		<rect y="17.6" class="st0" width="356.2" height="22.2"/>
	</g>
</g>
<rect x="6" y="21.9" class="st2" width="429.1" height="430.1"/>
<text transform="matrix(1 0 0 1 5.9781 37.0906)" class="st3 st4 st5">134</text>
<text transform="matrix(1 0 0 1 28.2781 37.0906)" class="st3 st4 st5 st6"> </text>
<text transform="matrix(1 0 0 1 5.9781 53.5906)" class="st3 st7 st8">Disasters</text>
<text transform="matrix(1 0 0 1 5.9781 82.0906)" class="st3 st4 st5">97</text>
<text transform="matrix(1 0 0 1 21.5781 82.0906)" class="st3 st4 st5 st9"> </text>
<text transform="matrix(1 0 0 1 5.9781 98.5906)" class="st3 st7 st8">Education</text>
<text transform="matrix(1 0 0 1 5.9781 127.0906)" class="st3 st4 st5">91</text>
<text transform="matrix(1 0 0 1 20.0781 127.0906)" class="st3 st4 st5 st10"> </text>
<text transform="matrix(1 0 0 1 5.9781 143.5906)" class="st3 st7 st8">Early childhood education</text>
<text transform="matrix(1 0 0 1 5.9781 172.0906)" class="st3 st4 st5">67</text>
<text transform="matrix(1 0 0 1 21.7781 172.0906)" class="st3 st4 st5 st11"> </text>
<text transform="matrix(1 0 0 1 5.9781 188.5906)" class="st3 st7 st8">Children’s participation</text>
<text transform="matrix(1 0 0 1 5.9781 217.0906)" class="st3 st4 st5">57</text>
<text transform="matrix(1 0 0 1 21.6781 217.0906)" class="st3 st4 st5 st9"> </text>
<text transform="matrix(1 0 0 1 5.9781 233.5906)" class="st3 st7 st8">Clean water and sanitation</text>
<text transform="matrix(1 0 0 1 5.9781 262.0906)" class="st3 st4 st5">52</text>
<text transform="matrix(1 0 0 1 22.6781 262.0906)" class="st3 st4 st5 st11"> </text>
<text transform="matrix(1 0 0 1 5.9781 278.5906)" class="st3 st7 st8">Economic safety</text>
<text transform="matrix(1 0 0 1 5.9781 307.0906)" class="st3 st4 st5">47</text>
<text transform="matrix(1 0 0 1 21.6781 307.0906)" class="st3 st4 st5 st9"> </text>
<text transform="matrix(1 0 0 1 5.9781 323.5906)" class="st3 st7 st8">Child protection</text>
<text transform="matrix(1 0 0 1 5.9781 352.0906)" class="st3 st4 st5">39</text>
<text transform="matrix(1 0 0 1 5.9781 368.5906)" class="st3 st7 st8">Development-related education and sponsor communications</text>
<text transform="matrix(1 0 0 1 253.0781 368.5906)" class="st3 st12 st8">  </text>
<text transform="matrix(1 0 0 1 5.9781 397.0906)" class="st3 st4 st5">32</text>
<text transform="matrix(1 0 0 1 5.9781 413.5906)" class="st3 st7 st8">Sexual and reproductive health</text>
<rect x="6" y="6.5" class="st2" width="201.1" height="28.3"/>
<text transform="matrix(1 0 0 1 5.978 13.1325)" class="st3 st12 st13">Euro million </text>
</svg>
