<?xml version="1.0" encoding="utf-8"?>
<!-- Generator: Adobe Illustrator 16.0.0, SVG Export Plug-In . SVG Version: 6.00 Build 0)  -->
<!DOCTYPE svg PUBLIC "-//W3C//DTD SVG 1.1//EN" "http://www.w3.org/Graphics/SVG/1.1/DTD/svg11.dtd">
<svg version="1.1" id="Layer_1" xmlns="http://www.w3.org/2000/svg" xmlns:xlink="http://www.w3.org/1999/xlink" x="0px" y="0px"
	 width="200px" height="75.683px" viewBox="47.402 9.528 200 75.683" enable-background="new 47.402 9.528 200 75.683"
	 xml:space="preserve">
<g>
	<g>
		<path fill="#0072CE" d="M52.211,82.543c-0.034,0.6-0.878,0.605-0.895,1.158c-0.001,0.029-0.202,0.092-0.292,0.076
			c-1.67-0.373-2.327-1.105-2.506-2.738c-0.028-0.258,0.22-0.678-0.522-0.574c-0.357,0.047-0.274-0.551-0.101-0.6
			c0.835-0.25,0.924-1.1,1.632-1.449c0.454-0.225,0.104-0.277-0.168-0.426c-1.479-0.812-1.536-1.777-0.18-2.779
			c0.517-0.383,0.575-0.875,0.017-1.08c-0.75-0.279-0.484-0.818-0.361-1.07c0.185-0.371,0.528-0.59-0.022-0.953
			c-0.157-0.102,0.015-0.342,0.335-0.426c1.091-0.279,1.129-0.934,0.373-1.787c-0.367-0.41-0.948-1.109-0.102-1.635
			c0.362-0.225,0.335-0.451,0.341-0.725c0.024-0.975-0.392-1.916-0.257-2.9c0.019-0.135-0.033-0.248-0.201-0.35
			c-1.055-0.619-0.534-1.148,0.173-1.641c-1-0.77-1.143-1.801-0.394-2.691c0.024-0.028,0.094-0.061,0.084-0.073
			c-0.519-1.224,0.591-2.238,0.543-3.446c-0.048-1.156-1.216-1.964-0.943-3.139c0.075-0.329-0.109-0.712,0.444-0.888
			c0.271-0.089,0.32-0.322,0.152-0.631c-0.288-0.546-0.135-1.019,0.686-1.169c-0.899-0.511-1.02-1.036-0.45-1.704
			c0.27-0.312,0.283-0.648-0.004-0.926c-0.743-0.728-0.807-1.354-0.146-2.031c0.064-0.065,0.218-0.055,0.165-0.213
			c-0.566-1.649,0.218-3.256,0.284-4.887c0.058-1.374-1.254-2.373-0.893-3.722c0.052-0.205-0.133-0.316-0.378-0.326
			c-0.253-0.014-0.431-0.294-0.319-0.337c0.714-0.274,0.502-1.102,1.084-1.382c1.062-0.519,1.204-1.006,0.334-1.758
			c-0.37-0.321-0.771-0.369,0.072-0.733c0.932-0.402,0.934-2.018,0.203-2.761c-0.412-0.421-0.368-0.904-0.062-1.261
			c0.401-0.469,0.561-0.809-0.074-1.178c-0.1-0.059-0.173-0.158-0.258-0.232c0.967-0.798-0.839-1.676,0.207-2.643
			c0.798-0.737-0.304-2.08,0.556-3.024c0.338-0.361-0.235-0.344-0.331-0.528c-0.271-0.522-0.599-1.046,0.466-1.165
			c0.206-0.026,0.565,0.192,0.593-0.262c0.02-0.332,0.037-0.732-0.333-0.78c-0.668-0.091-0.521-0.479-0.485-0.802
			c0.054-0.519,0.562-0.332,0.867-0.319c1.127,0.045,2.174,0.055,2.359-1.263c0.062-0.441,0.518-0.254,0.805-0.269
			c3.937-0.168,7.875-0.292,11.817-0.229c1.412,0.021,2.788-0.441,4.254-0.081c0.354,0.085,0.973-0.755,1.759-0.571
			c0.446,0.103,0.955-0.199,1.287,0.49c0.195,0.413,1.47,0.344,1.665,0.078c0.458-0.63,0.981-0.327,1.471-0.339
			c1.238-0.02,2.477-0.016,3.713,0.024c0.269,0.005,0.331,0.007,0.508-0.213c0.352-0.434,0.908-0.486,1.176,0.096
			c0.188,0.41,0.589,0.381,0.788,0.281c1.687-0.834,3.507-0.224,5.246-0.409c0.79-0.084,1.626,0.188,2.353-0.386
			c0.197-0.155,0.692-0.16,1.022,0.094c0.451,0.344,0.88,0.779,1.361-0.042c0.155-0.267,0.625-0.105,0.811,0.178
			c0.334,0.518,0.697,0.538,1.106,0.094c0.23-0.249,0.531-0.149,0.797-0.152c1.235-0.01,2.478,0.002,3.714-0.008
			c0.25-0.002,0.631,0.305,0.706-0.235c0.036-0.289,0.479-0.263,0.603-0.18c1.373,0.919,2.667-0.444,4.075-0.05
			c1.492,0.416,3.1,0.266,4.661,0.237c0.688-0.009,1.464,0.243,2.03-0.389c0.082-0.088,0.49-0.108,0.587-0.021
			c1.035,0.932,2-0.279,3.064-0.056c1.188,0.253,2.46,0.213,3.694,0.247c0.416,0.012,0.964,0.239,1.149-0.469
			c0.088-0.343,2.183-0.116,2.527,0.246c0.482,0.504,1.616,0.516,2.123-0.024c0.247-0.26,0.524-0.174,0.778-0.165
			c1.102,0.043,2.195-0.058,3.309,0.153c0.574,0.105,1.412,0.437,2.005-0.455c0.286-0.434,1.42-0.231,2.112-0.081
			c0.535,0.113,1.052,0.171,1.575,0.146c3.186-0.138,6.355,0.327,9.541,0.218c0.415-0.016,1.003,0.241,1.127-0.472
			c0.043-0.25,0.335-0.22,0.581,0.033c0.62,0.644,0.976,0.666,1.518,0.04c0.148-0.169,0.234-0.087,0.384-0.058
			c0.954,0.198,2.139-0.377,2.84,0.677c0.048,0.068,0.294,0.127,0.33,0.092c1.188-1.148,2.702-0.333,4.048-0.485
			c0.942-0.105,2.254,0.278,2.849,0.012c0.868-0.391,1.208-0.3,1.788,0.153c0.095,0.074,0.51,0.016,0.559-0.075
			c0.334-0.623,0.603-0.971,0.927,0.002c0.018,0.053,0.405,0.095,0.438,0.048c0.843-1.266,2.244-0.637,3.266-0.553
			c3.371,0.268,6.743,0.307,10.115,0.474c1.136,0.056,2.27,0.127,3.406,0.111c0.501-0.009,1.14,0.254,1.387-0.51
			c0.053-0.155,0.821-0.434,1.137,0.229c0.218,0.467,0.805,0.498,1.213,0.194c0.867-0.644,1.131-0.625,1.703,0.281
			c0.59-0.374,1.114-1.372,1.862-0.096c0.106,0.183,0.603,0.388,1.036,0.109c0.908-0.576,1.836-0.851,2.677,0.127
			c0.141,0.163,0.359,0.134,0.54,0.016c1.185-0.771,3.019-0.809,4.095-0.062c0.321,0.22,0.457,0.096,0.776-0.086
			c0.469-0.265,1.237-0.598,1.429,0.343c0.091,0.463,0.476,0.331,0.761,0.331c2.808,0.01,5.616,0.006,8.426,0.006
			c0.079,0,0.203,0.027,0.244-0.006c0.687-0.64,1.508-0.23,2.276-0.272c0.308-0.014,1.017,0.299,1.017-0.484
			c0-0.178,0.673-0.202,0.904-0.077c0.937,0.506,1.727,0.372,2.505-0.234c0.072-0.059,0.232-0.242,0.476-0.008
			c0.464,0.444,1.092,0.321,1.396-0.201c0.101-0.169,1.157-0.316,1.225-0.143c0.119,0.34,0.609,0.381,0.62,0.4
			c0.902,1.54,1.149-0.035,1.269-0.292c0.45-0.974,1.366-0.628,1.884-0.406c0.554,0.235,1.113,0.314,1.46,0.095
			c1.607-1.021,3.508-0.817,5.257-0.939c3.71-0.254,7.388-0.722,11.095-0.929c0.193-0.009,0.535-0.059,0.549-0.128
			c0.302-1.495,1.75-0.541,2.583-0.916c0.48-0.216,1.058-0.376,1.541-0.532c1.508-0.484,3.19-0.447,4.815-0.343
			c0.444,0.029,0.167,0.494,0.306,0.736c0.166,0.292,0.563-0.286,0.667,0.146c0.116,0.493-0.598,0.315-0.606,0.468
			c-0.067,0.913-1.232,1.256-1.393,1.939c-0.158,0.668-0.286,1.612,0.319,2.211c0.74,0.727,0.604,1.588,0.36,2.239
			c-0.178,0.483-0.077,0.885-0.153,1.313c-0.156,0.897,0.542,1.812-0.175,2.737c-0.135,0.176-0.774,1.31,0.602,1.366
			c0.033,0.002,0.119,0.353,0.066,0.511c-0.281,0.78-0.358,1.583-0.499,2.382c-0.206,1.202-0.393,1.31,0.445,2.393
			c0.14,0.18,0.176,0.611,0.039,0.731c-0.597,0.51-0.178,1.374-0.876,1.824c-0.027,0.017-0.032,0.058-0.06,0.085
			c-0.543,0.632,0.879,0.75,0.459,1.343c-0.364,0.515-0.449,0.983,0.277,1.314c0.171,0.082,0.281,0.297,0.202,0.332
			c-1.051,0.482,0.045,1.584-0.807,2.114c-0.071,0.042-0.067,0.178-0.1,0.269c1.216,0.196,0.436,1.132,0.772,1.665
			c0.132,0.206,0.139,0.573-0.308,0.736c-0.301,0.109-0.321,0.411-0.271,0.667c0.222,1.063,0.455,2.097,0.187,3.214
			c-0.076,0.325,0.325,0.947,0.469,1.454c0.389,1.372,0.039,2.688-0.133,4.038c-0.106,0.837,0.099,1.715,0.257,2.563
			c0.086,0.469,0.402,0.891-0.409,1.119c-0.263,0.072-0.133,0.454-0.092,0.697c0.318,1.725,0.966,3.524,0.578,5.182
			c-0.278,1.212,0.495,2.592-0.673,3.694c-0.127,0.121-0.229,1.012,0.315,1.189c0.505,0.172,0.407,0.42,0.496,0.719
			c0.203,0.697,0.097,1.27-0.629,1.674c-0.316,0.18-0.665,0.363,0.006,0.484c0.358,0.066,0.34,0.248,0.359,0.463
			c0.062,0.67-0.677,1.402,0.233,2.014c0.092,0.066,0.106,0.529-0.183,0.545c-1.155,0.062-0.883,0.693-0.813,1.33
			c0.046,0.422,0.047,0.824-0.339,1.275c-0.303,0.355-0.311,1.057,0.315,1.629c0.61,0.559,0.731,1.561,0.383,2.225
			c-0.204,0.4-0.331,0.76-0.32,1.148c0.019,1.127-0.571,2.229-0.161,3.375c0.08,0.227-1.053,0.662-1.326,0.541
			c-0.746-0.336-1.749-0.096-1.888,0.338c-0.235,0.703-0.645,0.6-1.15,0.609c-1.271,0.025-2.524,0.012-3.799,0.184
			c-1.368,0.186-2.75-0.316-4.158-0.191c-0.826,0.07-1.658,0.027-2.33,0.6c-0.054,0.051-0.55,0.457-0.887-0.047
			c-0.227-0.34-2.485-0.254-2.845,0.012c-1.019,0.77-1.169,0.682-2.714,0.225c-0.336-0.102-1.474-0.336-1.814,0.508
			c-0.13,0.32-0.364,0.469-0.742,0.451c-0.656-0.023-1.29,0.102-1.935,0.188c-0.451,0.062-0.956,0.215-1.407-0.438
			c-0.428-0.615-1.461-0.012-2.16,0.117c-0.845,0.156-1.224,0.232-1.214-0.668c0.009-0.479-0.478-0.504-0.913-0.504
			c-4.211,0.004-8.425,0-12.636,0.004c-0.341,0.002-0.838-0.107-0.783,0.424c0.09,0.775-0.497,0.686-1.025,0.662
			c-5.561-0.256-11.135-0.244-16.692-0.631c-0.5-0.033-1.168-0.328-1.513,0.494c-0.123,0.303-1.154,0.348-1.536-0.035
			c-0.761-0.762-1.503-0.602-2.314-0.199c-0.155,0.078-0.217,0.133-0.396,0.041c-1.441-0.734-1.412-0.676-2.998,0.039
			c-0.468,0.209-1.295,0.34-1.682-0.234c-0.337-0.482-0.915-0.467-1.138-0.285c-0.951,0.762-2.043,0.17-3.025,0.379
			c-0.673,0.143-0.333-0.6-0.849-0.678c-0.658-0.104-1.014,0.426-1.513,0.432c-2.207,0.041-4.408,0.037-6.608-0.045
			c-0.487-0.018-1.099,0.043-1.533-0.506c-0.313-0.402-0.53,0.365-0.951,0.359c-1.445-0.021-2.919,0.152-4.326-0.059
			c-1.814-0.275-3.633-0.23-5.403-0.074c-0.798,0.068-1.652,0.348-2.521,0.348c-0.475,0-0.993,0.109-1.249-0.447
			c-0.142-0.305-0.655-0.258-0.646-0.061c0.047,1.039-0.87,0.516-1.15,0.467c-1.363-0.223-2.729-0.152-4.093-0.168
			c-0.264-0.002-0.562-0.104-0.774,0.184c-0.256,0.342-0.504,0.432-0.641-0.094c-0.008-0.047-0.326-0.104-0.414-0.049
			c-1.372,0.875-2.916,0.16-4.355,0.379c-0.231,0.037-0.5,0.025-0.542-0.291c-0.071-0.521-0.671-0.443-0.848-0.318
			c-1.021,0.719-2.182,0.289-3.271,0.398c-0.457,0.047-1.002-0.148-1.23,0.426c-0.021,0.066-0.228,0.15-0.27,0.125
			c-1.659-0.992-3.372,0.379-5.044-0.1c-0.25-0.072-0.428,0.043-0.503,0.326c-0.134,0.51-0.408,0.309-0.629,0.039
			c-0.488-0.609-0.586-0.648-0.811-0.092c-0.205,0.518-0.455,0.299-0.822,0.26c-2.16-0.225-4.402-0.375-6.475-0.008
			c-1.501,0.268-2.975,0.43-4.4,0.275c-1.73-0.191-3.496-0.33-5.145-0.078c-1.43,0.215-2.83,0.363-4.262,0.346
			c-0.725-0.008-1.465,0.146-2.181-0.164c-0.213-0.088-0.658-0.049-0.796,0.086c-1.044,1.039-2.375,0.387-3.559,0.477
			c-0.673,0.051-1.387-0.426-2.006,0.201c-0.124,0.123-0.429,0.123-0.553-0.055c-0.308-0.441-0.557-0.471-0.864,0
			c-0.057,0.088-0.333,0.15-0.445,0.104c-1.363-0.533-2.72,0.289-4.084-0.002c-1.248-0.268-2.38-0.791-3.808-0.576
			c-2.951,0.445-5.928,0.852-8.944,0.814c-1.73,1.191-3.848,0.711-5.776,0.98c-1.988,0.281-4.037,0.236-6.06,0.32
			c-0.527,0.021-1.963-0.777-2.362-1.166c-0.561-0.547-1.45-0.572-2.173-0.729C52.668,83.184,52.504,82.916,52.211,82.543"/>
		<path fill="#FFFFFF" d="M132.732,32.401c0-3.018,1.505-4.652,4.27-4.652h7.165c7.748,0,11.98,3.351,11.98,9.843
			c0,6.452-4.063,9.636-11.73,9.636h-3.267v7.623h-8.416L132.732,32.401L132.732,32.401z M141.022,41.111h3.06
			c2.557,0,3.894-1.258,3.894-3.52s-1.382-3.516-4.021-3.516h-2.933V41.111z"/>
		<path fill="#FFFFFF" d="M158.448,31.436c0-2.638,1.215-3.896,3.519-3.896h1.214c2.387,0,3.646,1.257,3.646,3.896v16.126h8.247
			c2.601,0,3.854,1.173,3.854,3.479v0.122c0,2.389-1.254,3.688-3.854,3.688h-16.626V31.436L158.448,31.436z"/>
		<path fill="#FFFFFF" d="M198.281,49.239h-8.754l-2.136,5.611h-8.377l9.676-25.007c0.419-1.342,1.549-2.304,5.315-2.304
			c3.816,0,4.776,0.961,5.197,2.304l10.094,25.007h-8.753L198.281,49.239z M190.951,43.207h5.821l-2.931-7.875L190.951,43.207z"/>
		<path fill="#FFFFFF" d="M210.385,31.436c0-2.596,1.299-3.896,3.436-3.896h0.797c1.968,0,2.595,0.587,3.768,1.969l9.717,12.649
			v-14.41h7.875v23.415c0,2.6-1.301,3.896-3.392,3.896h-0.67c-2.013,0-2.598-0.502-3.729-1.845l-9.926-12.855V54.85h-7.876V31.436
			L210.385,31.436z"/>
		<path fill="#FFFFFF" d="M133.38,63.733c0-0.693,0.414-1.039,1.024-1.039h0.354c0.635,0,1.063,0.346,1.063,1.039v6.91h-2.441
			V63.733z"/>
		<path fill="#FFFFFF" d="M137.641,63.819c0-0.76,0.381-1.135,1.001-1.135h0.234c0.572,0,0.754,0.168,1.097,0.576l2.834,3.686
			v-4.203h2.294v6.826c0,0.756-0.377,1.137-0.989,1.137h-0.194c-0.586,0-0.757-0.148-1.088-0.537l-2.896-3.75v4.225h-2.293V63.819z"
			/>
		<path fill="#FFFFFF" d="M146.397,63.793v-0.035c0-0.672,0.392-1.016,1.125-1.016h5.064c0.759,0,1.136,0.344,1.136,1.016v0.035
			c0,0.695-0.377,1.076-1.136,1.076h-1.279v5.773h-2.458v-5.773h-1.327C146.787,64.869,146.397,64.489,146.397,63.793"/>
		<path fill="#FFFFFF" d="M155.007,69.412v-5.314c0-0.879,0.438-1.355,1.244-1.355h5.288v2.113h-4.092v0.795h3.053v1.979h-3.053
			v0.918h4.102v2.096h-5.298C155.504,70.643,155.007,70.237,155.007,69.412"/>
		<path fill="#FFFFFF" d="M167.144,69.666l-1.122-1.486h-0.441v2.463h-2.443v-6.545c0-0.879,0.441-1.355,1.247-1.355h2.442
			c2.196,0,3.296,0.906,3.296,2.592c0,1.146-0.599,2-1.708,2.316l1.781,2.211c0.073,0.098-0.354,0.844-1.406,0.844
			C168.035,70.705,167.656,70.373,167.144,69.666 M165.545,66.444h1.026c0.733,0,1.098-0.33,1.098-0.914
			c0-0.611-0.354-0.932-1.123-0.932h-1.001V66.444z"/>
		<path fill="#FFFFFF" d="M171.689,63.819c0-0.76,0.375-1.135,0.998-1.135h0.23c0.577,0,0.763,0.168,1.105,0.576l2.829,3.686v-4.203
			h2.295v6.826c0,0.756-0.378,1.137-0.988,1.137h-0.196c-0.584,0-0.754-0.148-1.086-0.537l-2.894-3.75v4.225h-2.294V63.819
			L171.689,63.819z"/>
		<path fill="#FFFFFF" d="M185.754,69.012h-2.55l-0.622,1.631h-2.444l2.819-7.285c0.122-0.395,0.455-0.676,1.553-0.676
			c1.108,0,1.391,0.281,1.512,0.676l2.943,7.285h-2.551L185.754,69.012z M183.618,67.25h1.697l-0.852-2.295L183.618,67.25z"/>
		<path fill="#FFFFFF" d="M189.454,63.793v-0.035c0-0.672,0.392-1.016,1.126-1.016h5.066c0.756,0,1.133,0.344,1.133,1.016v0.035
			c0,0.695-0.377,1.076-1.133,1.076h-1.282v5.773h-2.452v-5.773h-1.332C189.845,64.869,189.454,64.489,189.454,63.793"/>
		<path fill="#FFFFFF" d="M198.153,63.733c0-0.693,0.414-1.039,1.025-1.039h0.354c0.634,0,1.06,0.346,1.06,1.039v6.91h-2.439V63.733
			z"/>
		<path fill="#FFFFFF" d="M202.146,66.688c0-2.393,1.744-4.113,4.174-4.113c2.433,0,4.166,1.709,4.166,4.113
			s-1.733,4.127-4.166,4.127C203.881,70.815,202.146,69.106,202.146,66.688 M208.065,66.688c0-1.16-0.695-1.953-1.745-1.953
			c-1.072,0-1.757,0.756-1.757,1.953c0,1.172,0.697,1.941,1.757,1.941C207.369,68.629,208.065,67.86,208.065,66.688"/>
		<path fill="#FFFFFF" d="M211.964,63.819c0-0.76,0.378-1.135,0.998-1.135h0.231c0.576,0,0.759,0.168,1.1,0.576l2.835,3.686v-4.203
			h2.294v6.826c0,0.756-0.378,1.137-0.989,1.137h-0.195c-0.588,0-0.757-0.148-1.087-0.537l-2.894-3.75v4.225h-2.292L211.964,63.819
			L211.964,63.819z"/>
		<path fill="#FFFFFF" d="M226.028,69.012h-2.551l-0.621,1.631h-2.445l2.824-7.285c0.124-0.395,0.45-0.676,1.548-0.676
			c1.114,0,1.393,0.281,1.516,0.676l2.941,7.285h-2.552L226.028,69.012z M223.893,67.25h1.697l-0.854-2.295L223.893,67.25z"/>
		<path fill="#FFFFFF" d="M230.17,63.819c0-0.77,0.355-1.135,1.026-1.135h0.355c0.695,0,1.06,0.365,1.06,1.135v4.699h2.407
			c0.757,0,1.124,0.344,1.124,1.014v0.039c0,0.695-0.367,1.072-1.124,1.072h-4.848L230.17,63.819L230.17,63.819z"/>
		<path fill="#FFFFFF" d="M66.092,30.612c-0.574,0.351-3.136,3.084-3.464,3.544c-0.143,0.205-0.642,1.056-0.681,1.104
			c-0.073,0.093-0.45,0.584-0.519,0.656c-0.06,0.056-0.336,0.912-0.404,1.017c-0.113,0.186-0.569,0.595-0.598,0.689
			c-0.017,0.058,0.213,0.565-0.418,1.098c-0.416,0.358-0.733,1.736-0.775,1.848c-0.095,0.253-0.64,0.889-0.547,1.473
			c0.042,0.251-0.109,0.501-0.251,0.716c-0.101,0.2-0.062,0.895-0.479,1.041c-0.359,0.125-0.229,0.733-0.136,0.909
			c0.274,0.515,0.049,1.016,0.047,1.055c-0.001,0.039-0.136,0.491,0.073,0.789c0.294,0.42-0.028,1.112-0.041,1.35
			c-0.082,1.26,0.806,1.63,0.549,2.374c-0.157,0.464,0.166,0.853,0.093,1.323c-0.056,0.387,0.247,0.557,0.302,0.687
			c0.036,0.074,0.3,0.709,0.283,0.817c-0.116,0.679,0.903,1.68,0.847,2.675c-0.047,0.858,0.965,1.231,1.032,1.315
			c0.498,0.599,0.498,1.317,1.03,1.67c0.047,0.036,0.625,0.47,0.694,0.509c0.324,0.188,0.023,0.407,0.071,0.514
			c0.419,0.95,1.332,1.555,1.332,1.555c2.195,2.506,7.41,5.797,7.914,5.859c0.501,0.07,0.981,0.158,1.37,0.48
			c0.413,0.344,2.282,1.021,2.285,1.021c0.271,0.115,0.56,0.088,0.836,0.176c0.258,0.094,1.878,0.676,2.112,0.758
			c0.327,0.117,0.718,0.35,1.93,0.637c0.524,0.119,1.057,0.428,1.597,0.533c0.607,0.117,1.131-0.408,1.64-0.09
			c0.561,0.348,1.345,0.568,1.71,0.623c2.597,0.564,6.292,0.67,8.926,0.596c0,0,0.839,0.182,1.736,0
			c0.922-0.047,1.963-0.355,2.882-0.41c1.326-0.377,2.887-0.689,4.134-1.324c0.437-0.1,0.92-0.574,1.196-0.598
			c0.602-0.234,1.468-1.018,1.562-1.076c0.096-0.055,0.901-0.547,0.901-0.547s0.265-0.172,0.536-0.348
			c0.181-0.148,2.333-1.859,2.333-1.859c0.172-0.355,0.585-0.49,0.898-0.729c0.03-0.053,0.066-0.102,0.11-0.146
			c0.115-0.119,0.264-0.199,0.408-0.285c0.069-0.041,0.133-0.08,0.194-0.133c0.028-0.033,0.056-0.061,0.076-0.092
			c0.024-0.045,0.035-0.088,0.059-0.127c0.016-0.02,0.032-0.035,0.057-0.035c0.037-0.004,0.062,0.037,0.098,0.031
			c0.028-0.002,0.044-0.053,0.057-0.072c0.025-0.049,0.052-0.068,0.095-0.098c0.061-0.037,0.044-0.123,0-0.166
			c-0.04-0.033-0.096-0.072-0.107-0.137c-0.017-0.094,0.074-0.166,0.151-0.211c0.073-0.041,0.16-0.027,0.231,0.016
			c0.058,0.041,0.08,0.119,0.146,0.141c0.072,0.027,0.13-0.062,0.124-0.125c-0.001-0.055,0-0.072,0.039-0.121
			c0.055-0.082-0.092-0.07-0.131-0.1s0.033-0.055,0.041-0.084c0.023-0.086-0.08-0.125-0.148-0.133
			c-0.085-0.004-0.15,0.045-0.205,0.104c-0.026,0.033-0.055,0.066-0.09,0.09c-0.02,0.008-0.056,0.008-0.07,0.023
			c-0.014,0.018-0.002,0.049-0.009,0.068c-0.01,0.043-0.06,0.033-0.092,0.031c-0.038-0.004-0.077-0.01-0.116-0.01
			c-0.051,0.004-0.111,0.018-0.158,0.033c-0.037,0.012-0.061,0.043-0.092,0.062c-0.052,0.027-0.101,0.041-0.158,0.043
			c-0.15,0.016-0.275,0.102-0.409,0.162c-0.1,0.049-0.2,0.115-0.31,0.133c-0.039,0.008-0.101,0.014-0.139,0.008
			c-0.04-0.008-0.055-0.023-0.093,0.006c-0.03,0.025-0.058,0.062-0.092,0.086c-0.03,0.027-0.076,0.035-0.098,0.066
			c-0.028,0.043-0.033,0.092-0.07,0.135c-0.04,0.055-0.088,0.084-0.147,0.104c-0.148,0.043-0.349-0.023-0.468-0.107
			c-0.164-0.109-0.201-0.355-0.238-0.539c-0.013-0.064-0.001-0.164-0.138-0.146c-0.055,0.014-0.098,0.08-0.131,0.123
			c-0.161,0.199-0.387,0.32-0.63,0.393c-0.127,0.027-0.253,0.039-0.382,0.051c-0.105,0.002-0.208-0.051-0.308-0.035
			c-0.066,0.006-0.08,0.066-0.1,0.121c-0.02,0.043-0.036,0.086-0.054,0.129c-0.054,0.096-0.133,0.123-0.235,0.08
			c-0.06-0.031-0.188-0.104-0.098-0.178c0.055-0.043,0.21-0.1,0.172-0.195c-0.021-0.055-0.104-0.014-0.138,0.006
			c-0.07,0.037-0.136,0.074-0.219,0.076c-0.12,0-0.28-0.051-0.292-0.188c0-0.021,0-0.047,0.01-0.07
			c0.014-0.025,0.041-0.037,0.063-0.049c0.032-0.012,0.076-0.037,0.097-0.068c0.023-0.043-0.035-0.086-0.023-0.131
			c0.009-0.047,0.124-0.115,0.159-0.164c0.055-0.084,0.089-0.158,0.19-0.207c0.082-0.035,0.268,0,0.307-0.082
			c0.045-0.113,0.018-0.229,0.104-0.342c0.095-0.127,0.185-0.113,0.082-0.258c-0.127-0.172-0.315-0.014-0.445,0.072
			c-0.064,0.045-0.144,0.105-0.229,0.109c-0.111,0.004-0.067-0.082-0.014-0.139c0.054-0.068,0.138-0.123,0.191-0.189
			c0.07-0.102,0.103-0.213,0.255-0.195c0.071,0.008,0.15,0.031,0.206-0.039c0.103-0.127-0.015-0.238-0.136-0.238
			c-0.151-0.006-0.296,0.055-0.416,0.131c-0.107,0.076-0.208,0.154-0.306,0.24c-0.094,0.072-0.171,0.164-0.297,0.102
			c-0.031-0.018-0.042-0.029-0.083-0.025c-0.074,0.012-0.138,0.076-0.194,0.119c-0.132,0.1-0.277,0.152-0.331-0.055
			c-0.015-0.053,0.133-0.115,0.172-0.152c0,0,0.324-0.047,0.395-0.062c0.101-0.023,0.292-0.07,0.361-0.158
			c0.022-0.029,0.03-0.061,0.062-0.094c0.145-0.16-0.049-0.393-0.234-0.283c-0.13,0.078-0.227,0.227-0.343,0.316
			c-0.082,0.072-0.184,0.145-0.298,0.145c-0.101,0-0.292-0.092-0.226-0.219c0.036-0.064,0.159-0.064,0.219-0.104
			c0.077-0.045,0.12-0.129,0.19-0.184c0.12-0.1,0.252-0.17,0.402-0.203c0.088-0.012,0.251-0.018,0.251-0.156
			c0.003-0.064-0.057-0.09-0.116-0.082c-0.076,0.016-0.132,0.035-0.213,0.025c-0.111-0.018-0.239-0.02-0.324-0.102
			c-0.068-0.062-0.03-0.219-0.138-0.225c-0.188-0.016-0.062,0.098-0.117,0.195c-0.054,0.094-0.358,0.168-0.415,0.045
			c-0.061-0.133,0.112-0.268,0.22-0.312c0.097-0.043,0.208-0.092,0.317-0.098c0.05-0.002,0.087,0.018,0.133-0.02
			c0.039-0.031,0.059-0.154,0.146-0.172c0.053-0.014,0.103-0.109,0.028-0.148c-0.048-0.018-0.122,0.02-0.17,0.027
			c-0.053,0.008-0.111-0.012-0.164,0.004c-0.121,0.037-0.137,0.141-0.196,0.23c-0.055,0.078-0.177,0.143-0.271,0.16
			c-0.133,0.023-0.166-0.107-0.271-0.156c-0.157-0.076-0.121,0.107-0.154,0.191c-0.039,0.105-0.161,0.109-0.251,0.154
			c-0.101,0.043-0.163,0.139-0.243,0.209c-0.203,0.188-0.464,0.156-0.709,0.229c-0.211,0.068-0.144,0.08-0.234,0.146
			c-0.188,0.133-0.416-0.078-0.615,0.008c-0.02,0.004-0.111,0.09-0.157,0.1c-0.063,0.021-0.063-0.047-0.123-0.047
			c-0.307-0.012-0.41-0.057-0.471-0.049c-0.093,0.021-0.167,0.082-0.214,0.158c-0.092,0.137-0.364,0.232-0.432,0.232
			c-0.082-0.004-0.133-0.082-0.183-0.146c-0.07-0.072-0.133-0.049-0.215,0.008c-0.091,0.064-0.09,0.205-0.141,0.236
			c-0.057,0.025-0.172,0.029-0.152-0.064c0.016-0.043,0.059-0.074,0.078-0.115c0.017-0.047-0.005-0.084-0.064-0.082
			c-0.034,0.002-0.116,0.072-0.147,0.09c-0.091,0.033-0.225,0.025-0.318,0.006c-0.044-0.018-0.093-0.029-0.136-0.045
			c-0.039-0.014-0.076-0.049-0.118-0.049c-0.071,0.006-0.087,0.096-0.159,0.107c-0.076,0.021-0.157-0.004-0.23-0.02
			c-0.054-0.02-0.135-0.049-0.195-0.035l-0.151,0.135c-0.104,0.018-0.216-0.004-0.32-0.004c-0.07-0.006-0.656,0.016-0.878,0.055
			c-0.397,0.072-0.765,0.221-1.164,0.27c-0.394,0.051-2.177,0.131-2.431,0.123c-0.246-0.008-1.381-0.049-1.504,0.07
			c-0.022,0.025-0.279,0-0.323-0.006c-0.098-0.006-0.103-0.137-0.189-0.168c-0.236-0.104-0.046,0.143-0.338-0.053
			c-0.193-0.131-0.455-0.076-0.769-0.068c-0.516,0.012-1.386-0.129-1.567-0.146c-0.317-0.043-0.645-0.18-0.826-0.391
			c-0.158-0.186-0.424-0.234-0.455-0.484c-0.08-0.629,0.152-1.579,0.206-1.846c0.057-0.265,0.136-1.257,0.223-1.329
			c0.049-0.043,0-0.077,0.049-0.125c0.355-0.346,0.228-0.36,0.294-0.711c0.107-0.589,0.339-1.464,1.012-1.631
			c0.319-0.077,0.704-0.27,0.922-0.348c0.267-0.095,0.802-0.023,1.213-0.205c0.09-0.043,0.152-0.093,0.255-0.105
			c0.402-0.039,0.805,0.079,1.2,0.029c0.388-0.049,0.817-0.082,0.911-0.068c0.153,0.034,0.033-0.134,0.095-0.159
			c0.186-0.066,0.177,0.169,0.402,0.227c0.162,0.045,0.827,0.076,1,0.076c0.043,0,0.008-0.08,0.04-0.117
			c0.116-0.128,0.232,0.113,0.301,0.171c0.173,0.141,3.076,0.463,3.276,0.505c0.326,0.07,0.813,0.046,1.217-0.15
			c0.179-0.081,0.787-0.354,0.909-0.484c0.048-0.053-0.033-0.133,0.002-0.182c0.117-0.127,0.246-0.376,0.187-0.667
			c-0.014-0.09,0.03-0.178,0.059-0.259c0.046-0.135-0.032-0.226-0.021-0.362c0.011-0.118,0.029-0.272,0.118-0.36
			c0.148-0.15,0.164-0.352,0.102-0.467c-0.125-0.226-0.333-0.323-0.382-0.356c-0.118-0.07,0,0.003,0.012-0.145
			c0.002-0.073-0.218-0.04-0.218-0.04s-0.421-0.016-0.565-0.068c-0.395-0.142-0.779-0.184-1.201-0.189
			c-0.655-0.007-1.286-0.269-1.934-0.215c-0.108,0.007-0.339,0.074-0.389,0.067c-0.108-0.012-0.006-0.191-0.398-0.179
			c-0.365,0.009-0.739-0.077-1.09-0.173c-0.316-0.089-1.241-0.032-1.347-0.089c-0.06-0.027-0.135-0.017-0.205-0.042
			c-0.136-0.045-0.197-0.236-0.478-0.25c-0.059,0-0.107-0.104-0.171-0.104c-0.111-0.002-0.301,0.049-0.362,0
			c-0.121-0.099-0.389-0.152-0.434-0.334c-0.077-0.347,0.592-0.756,0.814-0.923c0.204-0.149,0.44-0.396,0.709-0.376
			c0.161,0.008,0.236-0.105,0.348-0.231c0.233-0.272,1.136-1.469,1.421-1.697c0.307-0.241,0.07-0.539,0.463-0.836
			c0.124-0.094,0.274-0.491,0.32-0.572c0.193-0.347,0.127-0.932,0.48-1.176c0.023-0.017,0.094-0.127,0.149-0.261
			c0.047-0.123-0.07-0.235-0.096-0.282c-0.06-0.104-0.023-0.241-0.03-0.361c-0.006-0.085-0.025-0.866-0.025-1.022
			c0.004-0.234,0.104-0.349,0.334-0.332c0.161,0.015,0.004-0.349-0.021-0.459c-0.067-0.314-0.371-0.742-0.849-0.787
			c-0.565-0.053-1.004,0.357-1.361,0.759c-0.242,0.274-0.892,1.215-1.002,1.285c-0.187,0.117-0.013,0.199-0.237,0.481
			c-0.073,0.088-0.213,0.067-0.276,0.155c-0.081,0.112-0.244,0.391-0.239,0.525c0.003,0.102,0.036,0.207-0.054,0.277
			c-0.254,0.2-0.3-0.072-0.413,0c-0.09,0.059-0.133,0.172-0.176,0.207c-0.277,0.236-0.334,0.329-0.615,0.387
			c-0.168,0.036-0.504,0.068-0.601,0.252c-0.07,0.123-0.425,0.144-0.425-0.103c-0.002-0.172,0.169-0.791,0.186-0.857
			c0.09-0.302-0.409-0.489-0.17-0.797c0.133-0.165,0.111-0.339,0.008-0.511c-0.039-0.07-0.126-0.396-0.174-0.46
			c-0.145-0.187,0.056-0.245-0.113-0.493c-0.097-0.147-0.238,0.104-0.266-0.271c-0.016-0.224-0.245-0.292-0.358-0.398
			c-0.155-0.149-0.321-0.292-0.5-0.416c-0.468-0.33-0.998-0.56-1.556-0.686c-0.561-0.125-1.144-0.164-1.71-0.059
			c-0.146,0.024-0.38,0.013-0.38-0.129c0-0.041-0.05-0.043-0.086-0.069c-0.11-0.072-0.342,0.033-0.462,0.079
			c-0.357,0.144-0.011,0.306-0.2,0.367c-0.281,0.089-0.941,0.292-1.127,0.344c-0.077,0.025-0.222,0.067-0.42,0.067
			c-0.189,0-0.198,0.164-0.434,0.271c-0.452,0.203-0.348,1.256-0.322,1.518c0.005,0.046,0.034,0.176,0.129,0.145
			c0.095-0.033,0.208,0.094,0.192,0.32c-0.017,0.226-0.017,0.342-0.097,0.616c-0.078,0.271,0.101,0.118,0.08,0.385
			c-0.012,0.196,0.25,0.885,0.22,1.077c-0.008,0.061,0.055,0.129,0.08,0.182c0.018,0.048,0.056,0.057,0.104,0.063
			c0.129,0.017,0.111,0.273,0.212,0.513c0.065,0.17,0.122,0.4,0.263,0.515c0.094,0.073,0.101,0.173,0.147,0.234
			c0.068,0.091,0.109,0.157,0.063,0.219c-0.058,0.074-0.278,0.248-0.359,0.216c-0.132-0.051-0.516-0.079-0.64-0.12
			c-0.256-0.088-0.579,0.062-0.651-0.01c-0.084-0.085-0.213-0.086-0.324-0.13c-0.107-0.041-0.124,0.1-0.18,0.086
			c-0.118-0.037-0.147-0.124-0.219-0.2c-0.179-0.193-0.416-0.2-0.669-0.296c-0.318-0.124-0.646-0.233-0.923-0.427
			c-0.298-0.215-1.318-0.59-1.362-0.703c-0.058-0.153-0.378-0.087-0.39-0.126c-0.031-0.11-0.317-0.141-0.327-0.223
			c-0.014-0.112-0.208-0.089-0.297-0.151c-0.066-0.046-0.235-0.141-0.318-0.099c-0.094,0.046-0.219,0.102-0.315,0.031
			c-0.056-0.047-0.102-0.089-0.179-0.108c-0.206-0.055-0.339,0.024-0.49,0.146c-0.185,0.144-0.359,0.296-0.514,0.47
			c-0.087,0.108-0.124,0.241-0.183,0.367c-0.053,0.114-0.162,0.183-0.218,0.293c-0.072,0.137-0.049,0.278,0.112,0.317
			c0.175,0.042,0.014,0.182,0.139,0.25c0.193,0.102,0.269,0.474,0.507,0.708c0.293,0.28,0.391,0.711,0.48,0.888
			c0.126,0.251,0.594,0.051,0.679,0.367c0.035,0.131,0.308,0.366,0.796,0.797c0.177,0.151,0.925,0.556,1.215,0.589
			c0.767,0.087,1.101,0.441,1.414,0.662c0.143,0.095,0.418,0.016,0.76,0.651c0.129,0.244,0.197,1.067,0.265,1.479
			c0.141,0.893,0.492,0.753,0.326,1.068c-0.206,0.403,0.166,0.876,0.162,1.896c-0.003,0.241-0.125,0.631-0.247,0.924
			c-0.241,0.58,0.156,1.327,0.051,1.57c-0.143,0.33-0.208,1.603-0.498,1.867c-0.122,0.111-0.34,0.084-0.49,0.014
			c-0.275-0.117-1.125,0.1-1.325-0.084c-0.371-0.336-0.816-0.287-1.089-0.324c-0.236-0.034-0.547-0.222-0.725-0.308
			c-0.372-0.185-1.892-0.728-2.453-1.023c-1.391-0.731-3.311-1.552-3.451-2.298c-0.058-0.315-2.147-1.657-2.473-2.121
			c-0.18-0.251-0.549-0.641-0.609-0.755c-0.086-0.166-0.127-0.539-0.243-0.704c-0.268-0.376-0.608-0.418-0.747-1.134
			c-0.05-0.273-0.234-0.125-0.528-0.864c-0.759-1.916-0.664-4.121-0.633-4.952c0.022-0.712,0.646-2.28,0.828-2.831
			c0.108-0.333,0.519-0.545,0.602-1.123c0.024-0.18,0.918-0.785,1.231-1.306c0.274-0.456,0.886-0.995,1.326-1.274
			c0.246-0.154,3.527-2.566,3.81-2.904c0.111-0.132,0.42-0.601,1.097-0.612c0.163-0.003,0.53-0.241,0.546-0.373
			c0.052-0.362,3.432-1.175,3.966-1.756c0.168-0.177,1.182-0.468,1.691-0.568c0.142-0.032,0.109,0.146,0.438-0.158
			c0.246-0.226,0.786,0.149,1.095-0.159c0.396-0.393,0.511-0.479,1.296-0.468c0.783,0.012,0.674-0.401,1.294-0.446
			c0.337-0.024,0.88-0.205,1.058-0.539c0.135-0.248,1.592-0.375,1.883-0.592c0.699-0.528,1.22,0.054,2.076-0.124
			c0.106-0.022,0.475,0.102,0.672,0.087c0.201-0.022,0.529-0.313,0.65-0.045c0.072,0.16,1.398,0.083,1.724,0.068
			c0.098-0.004,0.311-0.137,0.29-0.044c-0.042,0.157,0.833,0.082,1.005,0.224c0.227,0.19,0.579,0.381,1.031,0.247
			c0.266-0.078,1.25,0.078,1.611,0.205c0.25,0.086-0.19,0.232,0.745,0.271c0.6,0.022,2.682,1.262,3.113,1.342
			c0.525,0.028,0.658,0.571,1.2,0.774c0.962,0.362,2.129,1.18,4.526,3.046c0.111,0.085,0.232,0.497,0.362,0.493
			c0.608-0.024,1.193,1.123,1.459,1.455c0.08,0.093,0.474-0.15,0.424,0.556c-0.006,0.109,0.314-0.047,0.323,0.439
			c0.01,0.557,0.995,0.869,1.234,2.065c0.025,0.118,0.167,0.214,0.214,0.322c0.177,0.438,0.831,2.445,0.821,3.176
			c-0.004,0.224,0.12,1.551-0.081,2.531c-0.183,0.874-0.508,1.713-0.836,2.545c-0.201,0.51-0.683,1.193-0.714,1.372
			c-0.031,0.175-0.156,0.356-0.117,0.541c0.023,0.122,0.027,0.302-0.103,0.348c-0.155,0.058-0.373,0.17-0.394,0.385
			c-0.01,0.124-0.307,0.139-0.292,0.286c0.016,0.18-0.322,0.169-0.345,0.364c-0.013,0.121-0.293,0.226-0.239,0.39
			c0.035,0.1-0.118,0.105-0.233,0.148c-0.143,0.05-0.433,0.491-0.432,0.568c0.006,0.084-0.164,0.029-0.186,0.305
			c-0.013,0.171-0.18,0.182-0.279,0.324c-0.086,0.122-0.196,0.158-0.209,0.185c-0.055,0.087-0.077,0.244-0.065,0.38
			c0.007,0.114-0.208,0.489,0.042,0.479c0.104-0.007,0.142-0.132,0.208-0.194c0.105-0.093,0.246-0.18,0.374-0.241
			c0.165-0.083,0.372-0.12,0.466-0.297c0.043-0.08,0.148-0.285,0.265-0.302c0.038-0.004,0.082,0.004,0.119-0.016
			c0.043-0.018,0.073-0.062,0.105-0.095c0.075-0.092,0.146-0.19,0.225-0.284c0.044-0.055,0.16,0.003,0.194-0.079
			c0.022-0.055-0.033-0.084,0.036-0.122c0.051-0.023,0.11-0.023,0.159-0.053c0.04-0.027,0.076-0.073,0.115-0.108
			c0.083-0.067,0.179-0.115,0.28-0.049c0.144,0.094-0.335,0.491-0.367,0.528c-0.118,0.128-0.151,0.307-0.264,0.438
			c-0.087,0.104-0.183,0.208-0.279,0.301c-0.039,0.028-0.088,0.055-0.12,0.097c-0.03,0.041-0.054,0.094-0.077,0.135
			c-0.049,0.077-0.131,0.118-0.193,0.185c-0.065,0.064-0.09,0.145-0.146,0.22c-0.088,0.103-0.135,0.174-0.091,0.316
			c0.027,0.09,0.086,0.122,0.172,0.081c0.079-0.037,0.108-0.118,0.148-0.192c0.038-0.073,0.078-0.138,0.143-0.187
			c0.072-0.051,0.145-0.087,0.22-0.132c0.056-0.028,0.089-0.094,0.125-0.146c0.093-0.145,0.21-0.28,0.319-0.415
			c0.064-0.072,0.12-0.169,0.215-0.21c0.051-0.015,0.117-0.015,0.145-0.074c0.023-0.058-0.002-0.158,0.087-0.162
			c0.079-0.004,0.072,0.096,0.081,0.147c0.01,0.064,0.033,0.078,0.094,0.078c0.092,0.003,0.127-0.04,0.163-0.112
			c0.028-0.071,0.086-0.16,0.15-0.19c0.073-0.042,0.146-0.062,0.21-0.121c0.098-0.092,0.196-0.18,0.284-0.274
			c0.067-0.064,0.131-0.133,0.19-0.201c0.054-0.062,0.099-0.148,0.176-0.179c0.05-0.022,0.09,0.008,0.144,0.013
			c0.05,0.006,0.047-0.011,0.067-0.054c0.018-0.03,0.047-0.075,0.089-0.072c0.096,0.002,0.091,0.131,0.091,0.203
			c0,0.029-0.012,0.082,0.011,0.11c0.023,0.034,0.083,0.023,0.119,0.02c0.071-0.012,0.117-0.012,0.092,0.075
			c-0.011,0.047-0.052,0.092-0.085,0.126c-0.097,0.097-0.195,0.178-0.275,0.287c-0.04,0.043-0.081,0.085-0.118,0.131
			c-0.118,0.142-0.234,0.282-0.352,0.426c-0.101,0.114-0.198,0.236-0.297,0.35c-0.054,0.066-0.11,0.142-0.176,0.19
			c-0.088,0.069-0.113,0.142-0.165,0.233c-0.066,0.119-0.164,0.186-0.247,0.277c-0.045,0.055-0.037,0.124-0.051,0.186
			c-0.023,0.077-0.061,0.107-0.11,0.163c-0.115,0.133-0.215,0.282-0.255,0.447c-0.018,0.074-0.013,0.213,0.087,0.135
			c0.059-0.051,0.071-0.127,0.136-0.167c0.052-0.035,0.127-0.043,0.189-0.064c0.093-0.028,0.175-0.09,0.219-0.178
			c0.033-0.068,0.025-0.191,0.08-0.242c0.044-0.039,0.136-0.032,0.194-0.051c0.076-0.019,0.159-0.044,0.235-0.062
			c0.067-0.013,0.156-0.017,0.218-0.054c0.005-0.009,0.013-0.014,0.02-0.018c0.012-0.014,0.021-0.027,0.031-0.042
			c0.01-0.025,0.018-0.064,0.015-0.097c-0.005-0.037-0.036-0.048-0.006-0.081c0.021-0.033,0.047-0.062,0.055-0.101
			c0.008-0.06-0.034-0.103-0.077-0.133c-0.059-0.042-0.16-0.093-0.17-0.176c-0.005-0.049,0.029-0.084,0.051-0.125
			c0.021-0.035,0.036-0.076,0.039-0.121c0.003-0.029-0.004-0.062,0.001-0.091c0.006-0.034,0.02-0.062,0.039-0.087
			c0.018-0.028,0.056-0.078,0.084-0.091c0.088-0.024,0.121,0.087,0.199,0.101c0.063,0.008,0.119,0.017,0.182,0.017
			c0.07,0,0.142,0.007,0.213,0c0.047-0.009,0.113-0.017,0.141-0.061c0.016-0.021,0.022-0.059,0.016-0.088
			c-0.009-0.063-0.081-0.104-0.087-0.156c-0.005-0.051,0.03-0.119,0.055-0.158c0.038-0.062,0.095-0.083,0.161-0.062
			c0.127,0.034,0.264,0.183,0.403,0.136c0.055-0.022,0.073-0.089,0.043-0.139c-0.01-0.026-0.043-0.041-0.06-0.066
			c-0.019-0.02-0.032-0.043-0.045-0.066c-0.036-0.096,0.009-0.188,0.07-0.261c0.055-0.067,0.131-0.155,0.218-0.18
			c0.04-0.016,0.083-0.04,0.125-0.045h0.031c0.057,0,0.092,0.068,0.097,0.12c0.006,0.061-0.013,0.12-0.046,0.172
			c-0.042,0.08-0.125,0.176-0.043,0.256c0.074,0.067,0.172,0.067,0.263,0.052c0.042,0,0.082-0.009,0.122-0.009
			c0.031,0,0.079-0.009,0.111,0.004c0.052,0.023,0.087,0.111,0.071,0.168c-0.019,0.081-0.093,0.143-0.134,0.222
			c-0.05,0.083-0.153,0.147-0.234,0.195c-0.05,0.032-0.112,0.043-0.17,0.057c-0.087,0.03-0.151,0.054-0.183,0.137
			c-0.03,0.085,0.015,0.119,0.096,0.132c0.096,0.015,0.188,0.071,0.188,0.177c0.002,0.182-0.152,0.278-0.295,0.354
			c-0.066,0.033-0.129,0.067-0.182,0.111c-0.028,0.024-0.051,0.052-0.069,0.081c-0.011,0.013-0.049,0.109-0.054,0.109
			c-0.071,0.019-0.121-0.073-0.174-0.103c-0.027-0.017-0.055-0.025-0.084-0.007c-0.02,0.013-0.028,0.028-0.042,0.048
			c-0.024,0.019-0.052,0.024-0.067,0.056c-0.011,0.024-0.008,0.062-0.011,0.093c-0.001,0.053,0.003,0.122-0.013,0.18
			c-0.011,0.032-0.047,0.095-0.039,0.136c0.016,0.069,0.132,0.031,0.168,0.006c0.043-0.033,0.06-0.089,0.1-0.115
			c0.065-0.056,0.143,0.091,0.127,0.146c-0.011,0.049-0.061,0.074-0.074,0.112c-0.027,0.052,0.017,0.093,0.063,0.108
			c0.078,0.022,0.276-0.08,0.271-0.172v-0.008c-0.014-0.063-0.1-0.156,0.007-0.183c0.054-0.015,0.102,0.026,0.141,0.056
			c0.034,0.026,0.078,0.076,0.126,0.076c0.057,0.002,0.097-0.098,0.133-0.132c0.063-0.068,0.14-0.118,0.21-0.163
			c0.112-0.07,0.264-0.099,0.351-0.191c0.094-0.109,0.171-0.275,0.206-0.419c0.021-0.064,0.042-0.153,0.089-0.197
			c0.114-0.113,0.303-0.058,0.411-0.177c0.046-0.043,0.071-0.1,0.09-0.154c0.016-0.054,0.042-0.101,0.071-0.146
			c0.042-0.054,0.023-0.109,0.025-0.17c0.003-0.059,0.035-0.128,0.08-0.162c0.059-0.043,0.111-0.041,0.168-0.003
			c0.088,0.068,0.228-0.032,0.31,0.032c0.091,0.078-0.015,0.222-0.084,0.278c-0.216,0.159-0.169,0.449-0.371,0.606
			c-0.074,0.06-0.181,0.063-0.249,0.129c-0.094,0.1-0.059,0.277-0.145,0.365c-0.042,0.042-0.118-0.042-0.168-0.015
			c-0.034,0.019-0.042,0.074-0.047,0.106c-0.002,0.026,0,0.057-0.006,0.079c-0.016,0.046-0.134,0.124-0.065,0.179
			c0.032,0.021,0.087,0.021,0.121,0.025c0.058,0.005,0.075-0.01,0.109-0.051c0.013-0.02,0.038-0.05,0.063-0.044
			c0.03,0.002,0.05,0.044,0.073,0.061c0.017,0.013,0.051,0.052,0.075,0.031c0.02-0.015,0.025-0.062,0.033-0.076
			c0.014-0.034,0.044-0.062,0.08-0.062c0.034,0.005,0.022,0.017,0.035,0.036c0.032,0.055,0.131,0.027,0.17-0.004
			c0.035-0.018,0.067-0.053,0.096-0.082c0.062-0.074,0.112-0.159,0.167-0.23c0.061-0.075,0.122-0.149,0.207-0.183
			c0.052-0.021,0.105-0.019,0.161-0.037c0.062-0.025,0.113-0.072,0.158-0.118c0.089-0.085,0.203-0.1,0.299-0.183
			c0.049-0.044,0.153-0.122,0.164-0.007c0.005,0.019-0.011,0.05-0.008,0.06c0.006,0.03,0.024,0.039,0.024,0.066
			c-0.004,0.112-0.203,0.156-0.238,0.25c-0.013,0.045,0.003,0.089-0.001,0.125c-0.018,0.136-0.144,0.103-0.233,0.159
			c-0.113,0.073-0.203,0.205-0.261,0.323c-0.031,0.06-0.028,0.066,0.006,0.13c0.018,0.021,0.075,0.07,0.052,0.108
			c-0.023,0.031-0.103-0.007-0.137,0c-0.107,0.016-0.062,0.126-0.08,0.193c-0.021,0.072-0.117-0.053-0.15,0.088
			c-0.02,0.071-0.011,0.153-0.041,0.228c-0.035,0.078-0.131,0.132-0.206,0.173c-0.021,0.011-0.043,0.013-0.066,0.024
			c-0.021,0.01-0.042,0.027-0.058,0.049c-0.02,0.027-0.013,0.074-0.029,0.108c-0.013,0.025-0.033,0.049-0.053,0.066
			c-0.038,0.039-0.095,0.082-0.108,0.137c-0.014,0.032,0.006,0.049,0.04,0.053c0.026,0.007,0.048-0.009,0.068-0.023
			c0.011-0.004,0.015-0.011,0.028-0.013c0.014-0.006,0.029-0.009,0.04-0.014c0.017-0.01,0.032-0.02,0.047-0.029
			c0.034-0.017,0.065-0.032,0.101-0.053c0.039-0.02,0.081-0.038,0.117-0.062c0.146-0.111,0.28-0.238,0.411-0.374
			c0.133-0.139,0.234-0.317,0.37-0.455c0.058-0.061,0.136-0.146,0.217-0.167c0.157-0.04,0.107,0.119,0.047,0.188
			c-0.032,0.034-0.034,0.079-0.067,0.112c-0.028,0.022-0.061,0.022-0.091,0.045c-0.033,0.026-0.073,0.084-0.099,0.126
			c-0.053,0.095-0.097,0.2-0.176,0.275c-0.061,0.047-0.132,0.063-0.182,0.129c-0.047,0.065-0.074,0.151-0.107,0.223
			c-0.027,0.062-0.045,0.13,0.047,0.142c0.118,0.016,0.129-0.079,0.188-0.146c0.061-0.072,0.185-0.079,0.265-0.126
			c0.08-0.053,0.088-0.123,0.113-0.202c0.012-0.039,0.082-0.158,0.122-0.152c0.014-0.095,0.093-0.082,0.146-0.147
			c0.026-0.036,0.009-0.047,0.058-0.063c0.082-0.034,0.212-0.057,0.198,0.069c-0.007,0.078-0.086,0.146-0.133,0.203
			c-0.134,0.174-0.263,0.323-0.368,0.512c-0.101,0.182-0.07,0.378-0.185,0.562c-0.056,0.084-0.119,0.194-0.199,0.26
			c-0.074,0.068-0.172,0.098-0.24,0.171c-0.065,0.069-0.124,0.156-0.177,0.232c-0.081,0.129-0.201,0.19-0.323,0.28
			c-0.049,0.037-0.089,0.076-0.123,0.129c-0.051,0.066-0.136,0.125-0.19,0.195c-0.053,0.068-0.071,0.145-0.123,0.205
			c-0.076,0.08-0.149,0.109-0.15,0.232c-0.058,0.012-0.065-0.008-0.113,0.033c-0.025,0.018-0.052,0.039-0.072,0.062
			c-0.03,0.037-0.059,0.082-0.088,0.119c-0.018,0.018-0.086,0.078-0.081,0.105c0.037,0.119,0.414-0.203,0.449-0.232
			c0.121-0.117,0.231-0.244,0.355-0.359c0.307-0.295,0.604-0.602,0.892-0.911c0.251-0.274,0.5-0.555,0.731-0.845
			c0.104-0.13,0.23-0.265,0.306-0.411c0.058-0.1,0.078-0.268,0.188-0.331c0.075-0.038,0.194-0.006,0.283-0.042
			c0.347-0.146,0.551-0.642,0.782-0.915c0.655-0.769,1.469-2.609,1.536-2.809c0.055-0.153,0.105-0.513,0.448-0.594
			c0.213-0.055,0.176-0.528,0.221-0.731c0.064-0.272,0.09-0.572,0.265-0.792c0.294-0.369,0.318-1.002,0.367-1.213
			c0.099-0.438,0.914-3.276,0.713-5.556c-0.04-0.444-0.037-3.094-0.768-3.906c-0.468-0.516,0.048-1.163-0.239-1.99
			c-0.068-0.203,0.234-0.292,0.295-0.492c0.198-0.658-0.206-1.202-0.551-1.272c-0.302-0.058-0.705-0.056-0.823-0.415
			c-0.048-0.147,0.212-0.77-0.131-1.416c-0.164-0.312-0.44-1.026-2.529-2.648c-0.698-0.546-1.215-1.291-1.839-1.918
			c-0.185-0.351-1.274-1.319-1.555-1.521c-0.197-0.138-0.506-0.787-1.408-1.111c-0.298-0.108-2.326-1.741-2.56-1.817
			c-0.865-0.277-2.344-1.347-2.618-1.412c-1.512-0.364-2.058-1.215-2.625-1.271c-0.434-0.042-1.643-0.113-2.28-0.825
			c-0.349-0.385-0.852-0.471-1.325-0.206c-0.309,0.175-1.274-0.685-2.642-0.516c-0.286,0.036-0.536-0.472-1.594-0.335
			c-1.009,0.133-1.67-0.527-2.03-0.659c-0.343-0.124-2.494-0.672-3.461-0.639h-0.597c-2.064-0.273-3.872-0.273-5.868,0
			c-0.47,0.121-6.453,1.662-7.008,1.983c-0.467,0.27-1.726,0.676-2.04,0.818c-0.653,0.305-3.192,1.133-3.272,1.414
			c-0.046,0.147-0.455,0.167-0.557,0.283c-0.065,0.072-0.693,0.746-1.521,1.051c-0.526,0.191-3.021,2.021-3.489,2.424
			C67.843,29.382,66.348,30.453,66.092,30.612"/>
		<path fill="#FFFFFF" d="M123.516,37.962c-0.014,0.2-0.038,0.412-0.237,0.537c-0.016,0.013-0.064,0.003-0.084,0.002
			c-0.024-0.002-0.047-0.007-0.071-0.016c-0.092-0.028-0.164-0.094-0.22-0.17c-0.03-0.033-0.061-0.074-0.093-0.108
			c-0.037-0.046-0.073-0.083-0.101-0.134c-0.024-0.048-0.043-0.11-0.038-0.166c0.003-0.044,0.018-0.088,0.037-0.135
			c0.018-0.042,0.045-0.079,0.082-0.11c0.032-0.026,0.085-0.061,0.126-0.062C123.193,37.589,123.452,37.677,123.516,37.962"/>
		<path fill="#FFFFFF" d="M108.521,56.415c0.004,0.011,0.004,0.024,0.004,0.041c-0.004,0.111-0.168,0.162-0.227,0.231
			c-0.062,0.075-0.097,0.246-0.23,0.175c0.025-0.144,0.176-0.368,0.298-0.449C108.427,56.375,108.506,56.344,108.521,56.415"/>
		<path fill="#FFFFFF" d="M109.132,56.715c-0.021,0.04-0.058,0.077-0.074,0.104c-0.066,0.084-0.136,0.167-0.203,0.254
			c-0.023,0.026-0.045,0.054-0.068,0.079c-0.152,0.182-0.312,0.357-0.482,0.516c-0.09,0.085-0.178,0.161-0.268,0.24
			c-0.049,0.033-0.199,0.199-0.262,0.121c-0.055-0.062-0.017-0.161,0.027-0.218c0.034-0.045,0.082-0.086,0.114-0.136
			c0.038-0.065,0.051-0.135,0.07-0.206c0.016-0.081,0.052-0.174,0.127-0.214c0.095-0.052,0.209-0.069,0.309-0.081
			c0.106-0.016,0.164-0.09,0.217-0.184c0.017-0.024,0.033-0.053,0.042-0.083c0.018-0.044,0.028-0.068,0.066-0.1
			c0.041-0.035,0.082-0.068,0.122-0.104c0.06-0.046,0.151-0.164,0.239-0.114C109.158,56.622,109.152,56.669,109.132,56.715"/>
		<path fill="#FFFFFF" d="M115.946,57.499c0.02,0.036,0.026,0.088,0.022,0.127c-0.01,0.063-0.084,0.089-0.132,0.103
			c-0.067,0.035-0.132,0.059-0.205,0.082c-0.069,0.018-0.144,0.042-0.217,0.056c-0.031,0.009-0.23,0.051-0.136,0.104
			c0.072,0.039,0.021,0.082-0.044,0.107c-0.053,0.017-0.16,0.041-0.207-0.005c-0.06-0.057,0.038-0.216,0.082-0.262
			c0.054-0.062,0.125-0.104,0.197-0.147c0.077-0.038,0.151-0.072,0.222-0.116c0.075-0.049,0.135-0.111,0.212-0.146
			C115.83,57.368,115.909,57.421,115.946,57.499"/>
		<path fill="#FFFFFF" d="M111.536,57.68c-0.004,0.004-0.008,0.009-0.008,0.009c-0.044,0.016-0.137,0.033-0.167-0.009
			c-0.058-0.076,0.083-0.133,0.138-0.133C111.563,57.548,111.602,57.658,111.536,57.68"/>
		<path fill="#FFFFFF" d="M111.654,57.82c0.028,0.035-0.05,0.049-0.071,0.056c-0.035,0.02-0.07,0.041-0.107,0.062
			c-0.073,0.044-0.137,0.101-0.192,0.168c-0.044,0.053-0.097,0.113-0.165,0.138c0,0.003-0.006,0.005-0.011,0.005
			c-0.009,0.003-0.02,0.007-0.032,0.007c-0.078,0.02-0.164,0.008-0.133-0.097c0.018-0.067,0.068-0.105,0.126-0.127
			c0.055-0.018,0.122-0.03,0.171-0.068c0.052-0.038,0.073-0.108,0.06-0.175c0.028-0.019,0.062-0.002,0.089,0.015
			c0.038,0.014,0.064,0.031,0.108,0.027c0.036-0.003,0.069-0.01,0.103-0.015C111.608,57.816,111.641,57.814,111.654,57.82"/>
		<path fill="#FFFFFF" d="M107.214,58.75c-0.203,0.238-0.552,0.484-0.776,0.299c-0.222-0.185-0.101-0.359,0.062-0.54
			c0.25-0.234,0.793-0.467,0.9-0.36C107.582,58.33,107.288,58.559,107.214,58.75"/>
		<path fill="#FFFFFF" d="M114.704,58.641c-0.051-0.003-0.059-0.127-0.053-0.16c0.002-0.03,0.005-0.059,0.001-0.09
			c-0.006-0.032-0.024-0.068-0.004-0.1c0.03-0.046,0.113-0.026,0.155-0.018c0.048,0.006,0.064,0.022,0.055,0.078
			c-0.01,0.052-0.058,0.101-0.081,0.15c-0.018,0.038-0.011,0.106-0.05,0.136C114.718,58.641,114.711,58.645,114.704,58.641"/>
		<path fill="#FFFFFF" d="M110.504,58.638c-0.061,0.007-0.121-0.184-0.069-0.278c0.022-0.05,0.07-0.016,0.103,0.017
			c0.042,0.045,0.039,0.109,0.03,0.165C110.562,58.583,110.568,58.627,110.504,58.638"/>
		<path fill="#FFFFFF" d="M110.164,58.927c0.029-0.036,0.047-0.079,0.071-0.116c0.021-0.034,0.05-0.05,0.05-0.091
			c0-0.068-0.067-0.104-0.129-0.078c-0.065,0.021-0.115,0.065-0.175,0.1c-0.098,0.058-0.209,0.091-0.326,0.106
			c-0.077,0.007-0.154,0.005-0.231,0.019c-0.042,0.008-0.117,0.017-0.143,0.055c-0.025,0.035,0.003,0.115,0.009,0.154
			c0.035,0.142,0.234,0.126,0.346,0.12c0.106-0.008,0.21-0.038,0.304-0.085C110.027,59.058,110.109,59,110.164,58.927"/>
		<path fill="#FFFFFF" d="M116.151,58.931c0.011,0.004,0.015,0.008,0.02,0.015c0.017,0.022-0.027,0.058-0.044,0.071
			c-0.034,0.022-0.058,0.035-0.078,0.071c-0.022,0.04-0.045,0.056-0.093,0.06c-0.062,0.005-0.079-0.069-0.062-0.12
			c0.02-0.069,0.099-0.092,0.158-0.096C116.07,58.929,116.124,58.927,116.151,58.931"/>
		<path fill="#FFFFFF" d="M109.198,59.56h-0.037c-0.066-0.006-0.129-0.093-0.079-0.152c0.042-0.054,0.187-0.089,0.209-0.009
			C109.317,59.482,109.273,59.55,109.198,59.56"/>
		<path fill="#FFFFFF" d="M105.424,60.606v0.01c0.002,0.043,0.025,0.064-0.032,0.059c-0.06,0-0.145-0.096-0.166-0.143
			c-0.028-0.068-0.015-0.072,0.042-0.111c0.065-0.043,0.125-0.109,0.191-0.145c0.068-0.039,0.133-0.039,0.096,0.049
			c-0.023,0.051-0.079,0.096-0.109,0.146C105.419,60.518,105.421,60.559,105.424,60.606"/>
		<path fill="#FFFFFF" d="M115.461,61.262c0.08,0.012,0.028,0.268-0.096,0.258C115.257,61.512,115.383,61.242,115.461,61.262"/>
		<path fill="#FFFFFF" d="M114.704,61.473c0.085,0.186-0.062,0.387-0.202,0.494c-0.08,0.057-0.155,0.104-0.254,0.084
			c-0.089-0.016-0.161-0.074-0.189-0.154c-0.055-0.154,0.057-0.314,0.176-0.396c0.064-0.047,0.146-0.084,0.232-0.094
			C114.525,61.405,114.673,61.416,114.704,61.473"/>
		<path fill="#FFFFFF" d="M114.097,62.315c0.005,0.027-0.041,0.053-0.063,0.072c-0.019,0.02-0.047,0.033-0.072,0.041
			c-0.046,0.016-0.143,0.031-0.175-0.014c-0.022-0.029,0.002-0.055,0.03-0.062c0.031-0.014,0.061-0.043,0.095-0.057
			c0.033-0.027,0.073-0.039,0.115-0.031C114.051,62.268,114.087,62.295,114.097,62.315"/>
		<path fill="#FFFFFF" d="M96.166,31.994c0.03,0.179-0.117,0.363-0.204,0.503c-0.043,0.067-0.072,0.161-0.127,0.218
			c-0.053,0.058-0.132,0.097-0.198,0.132c-0.115,0.067-0.235,0.094-0.347,0c-0.159-0.145-0.021-0.283-0.021-0.453
			c-0.067-0.228,0-0.444,0.111-0.646c0.089-0.158,0.18-0.373,0.344-0.474c0.096-0.057,0.157-0.163,0.281-0.093
			C96.196,31.371,96.12,31.741,96.166,31.994"/>
		<path fill="#FFFFFF" d="M93.18,33.063c0.065,0.169,0.101,0.357,0.214,0.505c0.11,0.142,0.132,0.509,0.063,0.509
			c-0.18,0.017-0.142,0.149-0.224,0.149c-0.146-0.002-0.631-0.012-0.754-0.325c-0.045-0.113-0.06-0.204-0.05-0.339
			c0.011-0.126,0.038-0.552,0.025-0.783c-0.016-0.214,0.279-0.227,0.42-0.109C92.942,32.725,93.153,32.998,93.18,33.063"/>
		<path fill="#FFFFFF" d="M99.162,33.436c-0.063,0.203-0.434,0.29-0.286,0.533c0.035,0.146-0.124,0.212-0.228,0.231
			c-0.277,0.085-0.562,0.369-0.847,0.211c-0.117-0.231-0.485-0.255-0.465-0.537c0.137-0.253,0.422-0.203,0.589-0.403
			c0.072-0.077,1.089-0.269,1.215-0.096L99.162,33.436z"/>
		<path fill="#FFFFFF" d="M92.154,35.391c0.004,0.101-0.009,0.235-0.092,0.322c-0.146,0.151-0.408,0.141-0.491,0.17
			c-0.19,0.054-0.467,0.008-0.554-0.012c-0.035-0.008-0.366-0.146-0.406-0.22c-0.038-0.058-0.1-0.342-0.073-0.411
			c0.044-0.128,0.212-0.192,0.335-0.216c0.174-0.031,0.374-0.057,0.521,0.027c0.293,0.171,0.588,0.065,0.685,0.137
			C92.112,35.212,92.153,35.35,92.154,35.391"/>
		<path fill="#FFFFFF" d="M97.515,36.834c-0.181,0.448-0.958,1.502-2.259,1.756c-0.485,0.097-1.073,0.312-1.508-0.042
			c-0.025-0.021-0.228-0.213-0.433-0.295c-0.222-0.092-0.282,0.022-0.449-0.114c-0.031-0.024-0.124-0.262-0.102-0.418
			c0.017-0.098-0.053-0.189-0.096-0.281c-0.048-0.108-0.2-0.312-0.178-0.499c0.012-0.066-0.069-0.436,0.116-0.697
			c0.059-0.079,0.257-0.472,0.057-0.505c-0.07-0.013-0.088-0.211,0.056-0.334c0.192-0.16,0.296-0.855,0.997-1.058
			c0.515-0.152,0.834-0.761,1.383-0.792c0.255-0.047,0.518-0.003,0.76,0.096c0.221,0.097,0.511,0.14,0.653,0.338
			c0.091,0.137,0.503,0.334,0.647,0.598c0.106,0.198,0.349,0.352,0.402,0.579c0.027,0.106,0.13,0.525,0.127,0.636
			C97.687,36.003,97.573,36.693,97.515,36.834 M96.222,35.467c-0.026-0.09-0.308-0.331-0.396-0.371
			c-0.154-0.076-0.343-0.045-0.51-0.098c-0.344-0.111-0.559,0.209-0.836,0.256c-0.119,0.024-0.179,0.152-0.276,0.217
			c-0.271,0.18-0.488,0.9-0.541,1.065c-0.126,0.396,0.275,0.655,0.43,0.663c0.224,0.011,0.47-0.021,0.68-0.073
			c0.344-0.12,0.634-0.355,0.872-0.627c0.176-0.198,0.282-0.437,0.438-0.642C96.296,35.573,96.228,35.484,96.222,35.467"/>
		<path fill="#FFFFFF" d="M99.514,36.942c0.102,0.032,0.223,0.091,0.203,0.22c-0.018,0.109-0.116,0.071-0.191,0.105
			c-0.13,0.063-0.089,0.31-0.268,0.29c-0.105-0.01-0.191,0.041-0.284,0.074c-0.22-0.007-0.51,0.016-0.703-0.097
			c-0.053-0.028-0.078-0.063-0.12-0.106c-0.043-0.038-0.203-0.066-0.191-0.254c0.003-0.06-0.032-0.064-0.067-0.105
			c-0.088-0.102-0.009-0.232,0.117-0.251c0.069-0.009,0.139,0.01,0.199-0.014c0.19-0.088,0.406-0.036,0.611-0.009
			c0.104,0.014,0.212,0.032,0.314,0.059C99.225,36.878,99.482,36.931,99.514,36.942"/>
		<path fill="#FFFFFF" d="M92.006,38.263c-0.003,0.027,0.051,0.073,0.064,0.095c0.071,0.12-0.047,0.245-0.144,0.31
			c-0.103,0.065-0.22,0.105-0.316,0.179c-0.048,0.037-0.293,0.146-0.37,0.161c-0.071,0.013-0.336,0.016-0.392,0.008
			c-0.131-0.025-0.248-0.145-0.261-0.277c0.094-0.497,0.667-0.583,1.046-0.741C91.845,37.948,92.029,38.054,92.006,38.263"/>
		<path fill="#FFFFFF" d="M96.9,39.067c0.126,0.106,0.237,0.194,0.314,0.344c0.077,0.144,0.104,0.292,0.144,0.449
			c0.047,0.195-0.187,0.237-0.258,0.386c-0.022,0.044-0.045,0.089-0.096,0.1c-0.084,0.015-0.203-0.033-0.287-0.058
			c-0.096-0.027-0.188-0.025-0.251-0.116c-0.053-0.073-0.072-0.164-0.08-0.25c-0.01-0.078-0.002-0.241-0.062-0.327
			c-0.025-0.037-0.057-0.071-0.067-0.116c-0.009-0.046,0.013-0.087,0.002-0.127c-0.038-0.139,0.077-0.144,0.057-0.252
			c-0.012-0.063,0.023-0.118,0.073-0.134c0.092-0.013,0.178,0.021,0.261,0.054C96.7,39.035,96.851,39.026,96.9,39.067"/>
		<path fill="#FFFFFF" d="M94.379,39.552c0.118,0.208,0.113,0.436,0.013,0.652c-0.074,0.171-0.188,0.325-0.299,0.474
			c-0.043,0.062-0.076,0.149-0.149,0.176c-0.18,0.065-0.304-0.074-0.347-0.117c-0.029-0.038-0.089-0.109-0.094-0.161
			c-0.028-0.484,0.358-1.198,0.547-1.211C94.191,39.352,94.274,39.504,94.379,39.552"/>
		<path fill="#FFFFFF" d="M109.921,63.492c-0.136,0.076,0,0.373-0.075,0.492c-0.073,0.123-0.241,0.154-0.373,0.107
			c-0.131-0.045-0.097-0.145-0.039-0.25c0.002-0.008-0.008-0.059-0.004-0.072c0.004-0.025,0.021-0.045,0.033-0.064
			c0.02-0.029,0.054-0.082,0.024-0.121c-0.012-0.016-0.043-0.021-0.055-0.049c-0.024-0.031-0.018-0.066-0.011-0.107
			c0.005-0.029-0.008-0.076,0.017-0.1c0.024-0.016,0.059-0.006,0.08-0.002c0.059,0.014,0.108,0.045,0.165,0.072
			c0.033,0.018,0.073,0.021,0.112,0.021c0.032,0,0.061-0.004,0.09-0.018c0.028-0.016,0.053-0.029,0.081-0.041
			c0.055-0.021,0.131-0.016,0.146,0.055c0.002,0.033,0.008,0.137-0.055,0.119c-0.026-0.006-0.041-0.037-0.063-0.051
			C109.97,63.477,109.941,63.481,109.921,63.492"/>
		<path fill="#FFFFFF" d="M106.547,60.86c-0.07,0.006-0.098,0.084-0.171,0.053c-0.055-0.025-0.048-0.08-0.033-0.125
			c0.015-0.041,0.001-0.105,0.023-0.146c0.074-0.117,0.255-0.012,0.31-0.16c0.028-0.061,0.109-0.316,0.205-0.186
			c0.064,0.08-0.048,0.205-0.037,0.291c0.002,0.068,0.011,0.084-0.042,0.143c-0.036,0.029-0.077,0.094-0.125,0.119
			C106.634,60.862,106.59,60.852,106.547,60.86"/>
		<path fill="#FFFFFF" d="M109.689,56.138c-0.032,0.011-0.083,0.048-0.092,0.081c-0.033,0.075,0.057,0.062,0.104,0.038
			c0.03-0.014,0.136-0.094,0.101-0.142C109.78,56.075,109.708,56.131,109.689,56.138"/>
		<path fill="#FFFFFF" d="M112.967,57.009c-0.025-0.059-0.256-0.013-0.244,0.093C112.732,57.152,113.032,57.131,112.967,57.009"/>
		<path fill="#FFFFFF" d="M113.354,55.923c-0.045,0.004-0.103-0.161-0.156,0.004c-0.015,0.058-0.069,0.123-0.025,0.164
			c0.05,0.063,0.184,0.043,0.245,0.011c0.056-0.036,0.115-0.115,0.043-0.166C113.433,55.913,113.382,55.913,113.354,55.923"/>
		<path fill="#FFFFFF" d="M111.888,55.506c-0.073-0.03-0.191,0.108-0.231,0.151c-0.138,0.135-0.265,0.281-0.357,0.454
			c-0.049,0.091-0.133,0.124-0.204,0.191c-0.024,0.025-0.056,0.067-0.021,0.089c0.05,0.021,0.156-0.029,0.197-0.046
			c0.045-0.018,0.077-0.06,0.117-0.096c0.036-0.03,0.079-0.043,0.121-0.074c0.031-0.017,0.051-0.054,0.074-0.087
			c0.03-0.033,0.061-0.066,0.097-0.096c0.029-0.022,0.059-0.055,0.08-0.082c0.051-0.064,0.098-0.127,0.151-0.186
			c0.034-0.044,0.084-0.175,0.021-0.21C111.915,55.503,111.905,55.515,111.888,55.506"/>
		<path fill="#FFFFFF" d="M114.442,55.443c-0.039,0.003-0.083,0-0.127-0.004c-0.163-0.035-0.156-0.087-0.186,0.104
			c-0.004,0.037-0.052,0.335-0.007,0.337c0.089,0.008,0.19-0.155,0.237-0.212C114.378,55.644,114.549,55.434,114.442,55.443"/>
		<path fill="#FFFFFF" d="M114.849,56.274c0.087,0.018-0.053,0.17-0.122,0.212c-0.074,0.043-0.174,0.024-0.259,0.054
			c-0.035,0.014-0.114,0.044-0.15,0.022c-0.033-0.026-0.009-0.087,0.012-0.118c0.03-0.043,0.067-0.065,0.116-0.081
			c0.056-0.019,0.092-0.06,0.142-0.085C114.671,56.231,114.763,56.254,114.849,56.274"/>
		<path fill="#FFFFFF" d="M110.188,56.791c0.126-0.021,0.051,0.127,0.015,0.17c-0.024,0.027-0.14,0.155-0.161,0.163
			C109.872,57.182,110.076,56.822,110.188,56.791"/>
		<path fill="#FFFFFF" d="M109.721,57.285c-0.075-0.068-0.202,0.154-0.302,0.239c-0.071,0.054-0.3,0.137-0.132,0.254
			c0.147,0.103,0.258-0.083,0.308-0.17C109.638,57.524,109.788,57.345,109.721,57.285"/>
		<path fill="#FFFFFF" d="M113.833,57.372c-0.013,0.037-0.051,0.056-0.06,0.091c-0.007,0.028-0.002,0.066,0.014,0.1
			c0.02,0,0.034,0.049,0.058,0.06c0.022,0.011,0.056,0.011,0.081,0.003c0.041-0.017,0.092-0.051,0.073-0.107
			c-0.019-0.036-0.068-0.065-0.095-0.096C113.893,57.412,113.844,57.331,113.833,57.372"/>
		<path fill="#FFFFFF" d="M113.878,57.83c-0.218-0.003-0.57,0.004-0.725,0.189c-0.138,0.162,0.003,0.357,0.18,0.403
			c0.104,0.028,0.269,0.03,0.356-0.046c0.074-0.059,0.078-0.194,0.149-0.261c0.054-0.06,0.183-0.064,0.202-0.152
			C114.061,57.865,113.96,57.834,113.878,57.83"/>
		<path fill="#FFFFFF" d="M116.905,58.804c-0.119,0.054-0.363,0.2-0.318,0.411C116.683,59.243,117.06,58.733,116.905,58.804"/>
		<path fill="#FFFFFF" d="M113.218,58.548c-0.082,0.007-0.25-0.157-0.265,0.022c-0.021,0.18,0.232,0.061,0.319,0.038
			c0.012-0.006,0.009-0.012,0-0.036C113.259,58.548,113.243,58.548,113.218,58.548"/>
		<path fill="#FFFFFF" d="M103.798,60.912c-0.059-0.08-0.199,0.02-0.25,0.061c-0.04,0.033-0.072,0.049-0.122,0.055
			c-0.053,0.002-0.113-0.021-0.16,0.018c-0.086,0.066,0.014,0.086,0.073,0.092c0.055,0.008,0.108,0.01,0.161,0.023
			c0.13,0.018,0.228,0.025,0.289-0.107C103.81,61.006,103.829,60.957,103.798,60.912"/>
		<path fill="#FFFFFF" d="M102.828,61.297c-0.025-0.051-0.042,0.008-0.06,0.021c-0.047,0.041-0.095,0.023-0.155,0.023
			c-0.042,0-0.079,0.014-0.101,0.059c-0.017,0.012-0.041,0.088-0.02,0.111c0.028,0.027,0.102-0.014,0.13-0.023
			c0.044-0.021,0.073-0.021,0.121-0.023C102.85,61.455,102.874,61.387,102.828,61.297"/>
		<path fill="#FFFFFF" d="M107.041,60.768c-0.061,0.051-0.114,0.104-0.172,0.168c-0.029,0.027-0.06,0.059-0.037,0.1
			c0.042,0.061,0.102,0.01,0.138-0.018c0.047-0.035,0.104-0.023,0.148-0.053c0.052-0.023,0.066-0.061,0.109-0.102
			c0.063-0.059,0.202-0.119,0.216-0.219c0.021-0.152-0.183-0.029-0.234,0C107.143,60.684,107.089,60.725,107.041,60.768"/>
		<path fill="#FFFFFF" d="M107.151,61.59c0.055,0.109,0.125,0.17,0.237,0.193c0.068,0.016,0.288,0.061,0.286-0.064
			c0-0.031-0.042-0.086-0.055-0.107c-0.03-0.051-0.038-0.057-0.108-0.045c-0.059,0.006-0.104,0.016-0.165-0.01
			c-0.074-0.027-0.181-0.186-0.214-0.145C107.105,61.455,107.147,61.584,107.151,61.59"/>
		<path fill="#FFFFFF" d="M107.688,61.371c0.005,0.047,0.031,0.092,0.093,0.135c0.232,0.145,0.128-0.045,0.217-0.193
			c0.032-0.053,0.126-0.119,0.106-0.186C108.066,60.998,107.673,61.186,107.688,61.371"/>
		<path fill="#FFFFFF" d="M108.094,61.807c0.043-0.029,0.081-0.057,0.12-0.082c0.063-0.049,0.161-0.1,0.205-0.17
			c0.003-0.01,0.06-0.17-0.002-0.15c-0.093,0.025-0.132,0.137-0.219,0.186c-0.064,0.043-0.398,0.203-0.392,0.285
			c0.006,0.039,0.094,0.062,0.118,0.059c0.068-0.012,0.038-0.029,0.082-0.07C108.037,61.848,108.066,61.823,108.094,61.807"/>
		<path fill="#FFFFFF" d="M108.227,61.926c-0.037,0-0.073,0.031-0.105,0.045c-0.041,0.02-0.084,0.029-0.125,0.051
			c-0.02,0.021-0.063,0.039-0.067,0.07c-0.008,0.043,0.04,0.074,0.065,0.104c0.042,0.043,0.08,0.059,0.138,0.059
			c0.044,0,0.072-0.066,0.048-0.104c-0.009-0.016-0.034-0.029-0.025-0.053c0.011-0.025,0.04-0.041,0.061-0.055
			c0.023-0.025,0.045-0.053,0.041-0.086C108.254,61.936,108.247,61.926,108.227,61.926"/>
		<path fill="#FFFFFF" d="M107.915,62.278c-0.022-0.008-0.045,0.004-0.07,0.016c-0.024,0.008-0.051,0.016-0.075,0.035
			c-0.037,0.023-0.107,0.074-0.061,0.115c0.031,0.023,0.069,0.023,0.108,0.023c0.025,0,0.054,0,0.074-0.01
			c0.02-0.014,0.032-0.033,0.042-0.053c0.015-0.023,0.023-0.051,0.023-0.078C107.957,62.309,107.93,62.28,107.915,62.278"/>
		<path fill="#FFFFFF" d="M110.624,63.52c-0.066,0.029-0.105,0.035-0.131,0.105c-0.023,0.051-0.043,0.121,0.032,0.111
			c0.112-0.012,0.254-0.102,0.367-0.152c0.01,0,0.255-0.16,0.206-0.168c-0.15-0.031-0.33,0.041-0.461,0.104
			C110.629,63.52,110.627,63.52,110.624,63.52"/>
		<path fill="#FFFFFF" d="M107.476,63.358c-0.038,0.062-0.186,0.178-0.19,0.266c-0.01,0.133,0.163,0.123,0.272,0.137
			c0.271,0.045,0.652,0.08,0.854-0.15c0.076-0.088,0.141-0.297,0.07-0.414c-0.092-0.152-0.197-0.02-0.329-0.002
			C107.875,63.229,107.669,63.059,107.476,63.358"/>
		<path fill="#FFFFFF" d="M112.112,62.924c-0.028,0.023-0.037,0.039-0.02,0.064c0.027,0.047,0.061,0.061,0.113,0.076
			c0.101,0.027,0.203,0.068,0.28,0.135c0.043,0.039,0.082,0.109,0.14,0.123c0.083,0.018,0.131-0.043,0.142-0.111
			c0.006-0.041,0.004-0.078,0.021-0.119c0.014-0.039,0.044-0.062,0.03-0.104c-0.028-0.088-0.16-0.133-0.242-0.139
			c-0.066-0.004-0.142,0-0.203,0.021c-0.04,0.016-0.07,0.029-0.11,0.035C112.215,62.912,112.153,62.893,112.112,62.924"/>
	</g>
</g>
</svg>
