<?xml version="1.0" encoding="utf-8"?>
<!-- Generator: Adobe Illustrator 21.0.0, SVG Export Plug-In . SVG Version: 6.00 Build 0)  -->
<svg version="1.1" id="Layer_1" xmlns="http://www.w3.org/2000/svg" xmlns:xlink="http://www.w3.org/1999/xlink" x="0px" y="0px"
	 viewBox="0 0 100 17" style="enable-background:new 0 0 100 17;" xml:space="preserve">
<style type="text/css">
	.st0{fill:#58CAE7;}
</style>
<g>
	<path class="st0" d="M98.7,1.2L99,1.3l0.7,0.8v1l-0.9,2.9l-1.2,2l-1,0.8l-0.9,1.3l-2.5,2.3l-2.8,1.5L86,15.6l-4.6,0.9h-3.7
		l-0.3,0.1h-1.8l-0.3-0.1h-1.8l-0.3,0.1H72l-0.3,0.1h-1.3l-0.3-0.1h-2.7l-0.3-0.1h-4.9L62,16.7h-5.8l-0.3,0.1l-1.6-0.2l-3-0.1
		l-2.7,0.2L48,16.5h-1.2l-0.3-0.2l-0.6,0.3h-3.1l-0.3,0.1h-4.9l-2.8-0.2l-0.3-0.3l-1,0.4L33,16.5l-0.4-0.6l-0.3,0.1L32,16.6
		l-0.4,0.1l-3-0.1l-0.3,0.1h-3.4l-1.2-0.2l-2.5-0.1l-0.3,0.1h-1.5l-0.3,0.1H6.4l-0.3-0.1l-1,0.2l-0.9-0.3l-1.2,0.1l-1-0.3l-0.4-0.3
		L0.9,15l0.4-1l-0.2-0.1l-0.3,0.2H0.6l-0.1-0.2v-1.8l0.1-0.2V8.1l-0.3-2l0.9-0.5L0.7,5.5L0.6,5.3V2.9l0.7-1.5l0.7-0.4l1.3-0.4h4.4
		L8,0.7l1.6-0.2h5.6L15.8,1v1.2l0.3,0.1L17,1.7l0.9-0.1l-0.1-0.3l-0.9-0.2L17,0.7l0.6-0.1l0.9,0.5l0.7,0.1l0.6-0.2l0.4-0.4h8.3
		l0.6,0.2l0.4-0.2l1.2,0.1l0.7-0.3h3.3l0.3,0.1h3.7L40,0.3l2.4-0.1l0.3,0.1h1.8l0.3,0.1h1.2l0.3,0.1h10.4l0.3,0.1h1.8L59,0.5h5.8
		l0.3,0.1H67l0.9-0.2h9.8l1.5,0.2l1.8-0.2h7.4l1.3,0.2h3L93,0.5h1.2l0.3-0.1h1.6L98.5,1L98.7,1.2z M1.2,13.1L1.8,13l-0.2-0.2H1.3
		l-0.4,0.4L1.2,13.1z M2.2,12.4l0.3-0.2l-0.2-0.8H2.1l-0.4,0.3l0.2,0.7H2.2z M3.2,12.9l0.3-0.5l-0.6,0.1l-0.1,0.4H3.2z M3.2,7.1
		L3.1,7L2.9,7.2L3.2,7.1z M3.7,6.2L3.1,6.5l1,0.1L3.4,7L4,6.9l0.3-0.4V6.2L4,6H3.7V6.2z M3.8,10.1L4,9.7L3.7,9.5l-0.1,0.5H3.8z
		 M3.7,2.8l0.2,0.1l0.3-0.1L3.7,2.6V2.8z M24,12.3l0.3,0.1l0.4-0.3L24.5,12l0.4-0.3l-0.1-0.1l-0.6,0.2l-0.4-0.2v-0.2l0.6-0.4v-0.2
		l-0.4-0.1l-0.2-0.5l-1.2-0.2l0.1-0.2l0.6-0.2l0.2-0.2L23,8.7l0.2-0.5l1-0.4V7.5l-0.9-0.1l-0.6,0.2h-0.6l-0.2-0.3l0.7-0.6l0.2-0.4
		l-0.2-0.4h-0.3l-0.3,0.4l-0.9,0.1l0.3,1L19.9,8V7.8l0.4-0.3V7.1h-0.6l-0.3,0.2l-0.3,0.8l0.1,0.4l1.2-0.4h0.4l0.7,1.4l-0.1,0.6
		l-0.7-0.3L20.1,9l-0.7,0.5H20l-0.2,0.2l-0.7,0.1l-2.2,0.7l0.3-0.5l1-0.5l-0.1-0.7l-0.4-0.4L18.5,8V7.6h-0.6l-0.4,0.3L17,8.5L16.1,9
		h-0.3l-0.4-0.5l0.9-0.3L16.4,8l-0.9-0.2l-1,0.4l-0.6-0.1l0.1-0.2l1-0.5L17,7.5l0.4-0.5L16.3,7l-1-0.9V5.6l-0.2-0.1l-0.3,0.2
		l-0.1,0.8l-0.4,0.1l-0.7-0.3L13,6.4V7l0.4,0.6l-1.2,0.1l-0.2-0.1l0.3-0.5l-0.9-0.3V6.6l0.9-0.7l0.3-1.2l-0.9,0.2L9.8,5L9.5,4.9
		l0.2,0.5l0.3,0.3l0.6,0.1l1-0.4l0.6,0.1h-0.3l-0.7,0.6l-0.6,0.1L10.1,6L9.6,7L8.7,7.1v0.5l0.2,0.1l1-0.2l0.3,0.6V9l1.3,0.3
		l-0.2-0.9l0.3-0.1l0.6,0.1l0.3,0.2l-0.3,0.2L13,9.7l-0.4,0.4l0.7,0.4l-0.4,0.3l-0.2,0.4l0.2,0.3l-1-0.3l0.7-0.7L12.4,10L12,9.7
		l-1.3,0.1l-0.3-0.2L9.6,9.4L9.2,9.7L8.6,9.4L8.1,9.5l0.6,0.7l-0.6,0.2l-0.7-0.1l0.2,0.1v0.3l-0.3,0.4v0.3l-0.7,0.3l-0.6-0.3v-0.2
		l1-0.5l-1.3-0.2l-0.4-0.4l-0.7,0.6h0.7L5.6,11l0.2,0.4l-0.3,0.1v-0.2l-0.6-0.1l-0.2,0.5l-0.4-0.3l-0.6-0.1v0.2L4.1,12l0.1,0.4
		l0.3,0.2l0.9,0.2l2.2-1h0.4l0.4,0.4l-1.3,0.2l-0.4,0.3L7.7,13h0.6l-0.2-0.1l0.6-0.1l-0.3,0.4l0.3,0.1l1-0.6l0.4,0.1l0.6,0.5
		l0.4,0.1l0.9-0.6h0.4l0.3,0.2l0.3-0.4l0.3-0.1l0.7,0.1L13.8,13v0.2l0.4-0.1l0.4-0.3l0.1,0.4l0.6-0.3l0.4,0.1l0.7,0.6L17,13l0.7,0.2
		v-0.4l-0.4-0.7l-0.4-0.3l-1.2,0.1l-1-0.3l0.6-0.1l0.4-0.3l1.9-0.2l0.6,0.2l0.2,0.3l-0.4,0.4l0.7,0.2l0.3-1.3l0.9-0.4V11l1.8,0.1
		l0.7,0.4l0.2,0.4l0.7-0.3l0.3,0.1l0.3,0.4L24,12.3z M4.3,8.8L4,9.3l0.7,0.3V8.8H4.3z M4.4,5.7V4.9l0.1-0.6L4.4,4.4V3.9L4.3,4.4
		L4.1,4.5l0.1,0.2L4.1,5.7H4.4z M4.3,8.5l1-0.4V7.8H4.9L4.3,8L4.1,8.2l0.1,0.4V8.5z M4.4,13.8l0.3-0.2l-0.3-0.3l-0.3,0.4L4.4,13.8z
		 M4.4,4.9V4.4H4.3v0.3L4.4,4.9z M5.3,2.8L4.9,3.4l0.6-0.1l0.1-0.4H5.3z M4.9,6.4h0.3L5,6.2L4.9,6.4z M6.8,9.7l0.4,0.6v-0.2l0.4-0.7
		L7.3,9.4L6.9,9.2l-0.3-1L6.4,8.3l-1,1V10L6.8,9.7z M5.8,6.2l0.7,0.3l0.3,0.3L6.7,7.5l1.2,0.8L7.7,8.5l0.2,0.7l1-0.6l0.6,0.1
		l0.2-0.2L9,8.3L8.4,7.7l0.3-1.3L8.4,6.3L8,6.6L7.7,6.3L8,5.6L7.3,5.4L6.9,5l2.5-0.2l0.2-0.3l0.6-0.1L11,4.7l0.4-0.3l1-0.3l-0.1-0.2
		l-1.2-0.5V4L11,4.1L10.1,4L9.5,3.7L9.2,4.1l-1,0.4V3.6L7.4,3.7L7.1,4.6L6.2,4.9L6.1,5.1l0.3,0.1L6.1,5.4l0.3,0.4L5.8,6.2z M7.3,6.9
		L6.9,6.8l0.4-0.2l0.3,0.3H7.3z M8.1,3.2L7.8,3.1v0.2l0.3,0.1V3.2z M8,14.6l0.3,0.1l0.1-0.1l-0.3-0.3l-0.3,0.1L8,14.6z M8.3,10.8
		L8.6,11v0.2l-0.3,0.1L8,11.1v-0.3H8.3z M9,11.6v0.2l-0.3-0.1L9,11.6z M8.9,1.4L9,1.6h0.3L8.9,1.2V1.4z M10.5,10.3l-0.3,0.4H9.8
		l-0.6-0.2v-0.2l1.3-0.2V10.3z M10.7,10.8l0.4,0.5l-0.4,0.8L10.1,12l-0.1-0.5l0.4-0.7L10.7,10.8z M10.2,2.6l0.1,0.1l0.2-0.4
		l-0.3-0.1V2.6z M11,14.5l0.3-0.2h-0.6l0.2,0.4L11,14.5z M11.4,7l0.2,0.1v0.7l-0.3,0.4H11l-0.2-1l0.3-0.3L11.4,7z M10.8,12.5
		l0.2-0.3l0.6-0.2H12l-0.2,0.5L11,12.7L10.8,12.5z M12.1,13.7l-0.3,0.1l0.3,0.2V13.7z M12.7,3.2l-0.1,0.2L13,3.2H12.7z M13.2,8.5
		v0.2h-0.3l-0.2-0.2l0.2-0.1L13.2,8.5z M14.1,14.7v-0.2l-0.6-0.1l-0.3,0.1l0.6,0.2l0.2,0.2L14.1,14.7z M14.5,2.7l-0.3,0.1l-0.9-0.1
		l0.4,0.5l0.4,0.2L15,2.9l-0.2-0.2H14.5z M13.9,9.7l0.1,0.3l-0.6,0.1l0.2-0.4H13.9z M13.8,11.6l0.2,0.2h-0.4v-0.3L13.8,11.6z
		 M13.8,9h0.3v0.2l-0.4-0.1L13.8,9z M14.2,5l0.3-0.4l-0.1-0.1l-0.4,0.2l0.3,0.4V5z M14.5,8.8l-0.3-0.3l0.6,0.1v0.2H14.5z M16.3,10
		l0.4-0.1v0.2l-1.5,0.7L15.1,11l-0.4-0.1l-0.3-0.5l0.4-1h0.4l0.6,0.6H16.3z M14.7,1.2H15L14.8,1L14.7,1.2z M15.4,10.1l-0.1-0.2H15
		v0.2H15.4z M15.8,15.9l0.4,0.3l0.3-0.2l-0.2-0.2l-0.6-0.1V15.9z M17,3.2l-0.9-0.1l0.3,0.3L17,3.5l0.1-0.2L17,3.2z M16.7,6.4L17,5.7
		h-0.3l-0.4,0.5l0.1,0.4h0.3V6.4z M17.3,14.2l-0.4-0.1v0.2l0.6,0.1L17.3,14.2z M17.6,14.3l0.4,0.1v-0.3h-0.6L17.6,14.3z M18.4,2.8
		L17.9,4h0.3l0.4-0.3l0.1-0.5l-0.3-0.3H18.4z M18.1,5.5l-0.2,0.1l0.2,0.2h0.3V5.6L18.1,5.5z M19.1,5.9l-0.7,0.2L18.1,6l0.4,0.8h0.3
		l0.9-0.6l0.1-0.4l0.3,0.3L20.6,6l0.2-0.3l-0.4-0.3l-0.6,0.1L19.1,5.9z M19.4,4l-0.3,0.2l0.1,0.1l0.4-0.2L19.4,4z M19.6,0.8
		l-0.1-0.3h0.4V1L19.6,0.8z M19.6,12.5l-0.1,0.2l0.6-0.1l0.1-0.3L19.6,12.5z M20.6,3.6L20,4l0.4,0.2L21,4.1l0.1,0.2l0.6,0.2l0.6-0.1
		l-0.2-0.3l-0.4-0.3L21.3,4l-0.4-0.3L21,3.5L20.6,3.6z M20.4,12.3l0.7,0.2l0.2-0.6l-0.2-0.4L20,11.7l0.1,0.5H20.4z M20.4,10.1
		l0.3,0.1v0.4l-0.3-0.1l-0.3-0.4H20.4z M20.7,14.5l-0.2-0.1l-0.3,0.2v0.2l0.4,0.3V14.5z M21.2,13.8l0.4-0.5l-0.3-0.1l-0.6,0.2
		l0.1,0.4H21.2z M21.6,5.7l0.3-0.3l-0.4-0.2l-0.3,0.4l0.2,0.2L21.6,5.7z M21.8,12.7l0.3,0.1l0.4-0.1l-0.2-0.3l-0.3-0.1l-0.6,0.2v0.2
		H21.8z M22.5,9.2h-0.9l0.2-0.4l0.4-0.2l0.3,0.1l0.1,0.4L22.5,9.2z M21.8,3.5l0.1,0.1l0.3-0.2l-0.4-0.3V3.5z M22.2,10.7l0.3,0.1
		l0.1,0.4l-0.6-0.1l-0.2-0.4H22.2z M22.4,14.3h0.9l0.3-0.2l-0.7-0.2v0.2l-0.6,0.1l-0.1,0.2L22.4,14.3z M22.5,15.3l0.1-0.5l-0.3-0.1
		l-0.3,0.6H22.5z M22.7,3.9l0.2-0.1l-0.3-0.2L22.7,3.9z M23.9,4.8l-0.4-0.6L23,4.1l0.2,0.1l-0.3,0.6l1,0.1V4.8z M24,2.5l-0.1,0.1
		L24,2.7l0.3-0.1L24,2.5z M24.3,8.7l-0.1-0.1l-0.3,0.1L24,8.9h0.3V8.7z M24.6,5.3l-0.4,0.4L24,6.2l0.2,0.2l0.7-0.2l-0.4-0.5l0.3-0.1
		V5.4L24.6,5.3z M25,14.1l0.7,0.2l-0.9-0.7l-0.1,0.5H25z M25.2,4.7L25,4.6l-0.2,0.2L25.2,4.7z M25.5,6.6l0.1-0.1L25,6.3v0.4l0.3,0.1
		L25.5,6.6z M25.3,13.4l0.6-0.2l0.2-0.4l-1,0.6H25.3z M25.6,10.5l-0.4,0.7l0.3-0.1l0.4-0.6H25.6z M26.1,8.6l0.2-0.1l-0.3-0.3h-0.4
		l-0.2,0.4H26.1z M25.8,9.2l0.3-0.1l0.2-0.3l-0.3-0.1l-0.4,0.4L25.8,9.2z M26.2,10.3l0.4,0.4l0.4-0.3L27,10.1l-0.9,0.1L26.2,10.3z
		 M26.4,5.1l0.2,0.4L27,5.8l1.2-0.1l0.4-0.2l0.3-0.6L28.2,5L28,4.8l-0.6-0.1l-0.9,0.2L26.4,5.1z M26.4,6.7l0.4-0.1V6.2l-0.4,0.2V6.7
		z M26.7,7.2l0.4,0.8l0.6,0.1V7.7l-0.6-0.5L26.5,7L26.7,7.2z M27,12.4h0.6l0.1-0.2l-0.3-0.1L27,12.3l-0.1,0.3L27,12.4z M27.4,5.4
		L27,5.5V5.1h0.4V5.4z M28.3,13.8l0.6-0.2l0.1-0.2l-0.1-0.2h-0.7L27,13.7v0.2l0.9,0.1l0.1,0.2L28.3,13.8z M27.1,3.9v0.2h0.3l0.3-0.2
		l-0.4-0.2L27.1,3.9z M27.7,3.1l-0.1,0.3h0.3l0.7-0.7L28,2.7v0.3H27.7z M27.9,11.3l-0.2-0.1l-0.1,0.2L27.9,11.3z M30.5,11.5l0.6-0.1
		l0.2-0.2l-1.9-0.8h-0.7l-0.2,0.4l0.7,0.1l-1,0.6h0.7l0.7,0.6l0.2-0.2l-0.2-0.3l0.3-0.1H30.5z M28.2,15l0.3,0.1l0.3-0.1v-0.2h-0.6
		V15z M29.5,3.9H29l-0.1,0.2l0.6,0.1V3.9z M29.3,8.6H29l-0.1,0.2L29.5,9l0.4-0.2l-0.4-0.3L29.3,8.6z M29.8,13l-0.2-0.3L29,12.6
		l-0.1,0.2l0.3,0.1L29,13.1h0.3v-0.2h0.3l-0.1,0.2L29.8,13z M29.5,6.4l-0.2-0.3v0.5L29.5,6.4z M30.5,5.8V5.6l-0.4-0.3l-0.4,0.2
		l0.7,0.6L30.5,5.8z M30.4,12.4l0.3-0.2h-0.4l-0.2,0.2H30.4z M30.2,13l-0.2,0.4h0.2V13z M31.1,12.2l0.9,0.7v-0.8L31.4,12L31,12.1
		L31.1,12.2z M31.6,8.1l-0.3,0.2l0.1,0.2h0.3l0.2-0.4H31.6z M31.6,4.1l0.1,0.5l0.4,0.3l0.2-0.4L31.9,4l-0.2,0.3L31.6,4.1z M31.7,9.1
		v0.5L32,9.8l0.3-0.1l0.1-0.3L32.2,9l-0.6-0.1L31.7,9.1z M32.9,10.8l0.1-0.2l-0.3-0.5l-0.6-0.2L32,10.3l0.1,0.5l0.4,0.1L32.9,10.8z
		 M32.2,13.3L32,13.1v0.4h0.1V13.3z M33.4,6.3l-0.6-0.1l-0.6,0.1v0.2l0.6,0.3l0.6-0.1l0.3-0.3L33.4,6.3z M32.2,11.5l0.3-0.2
		l-0.3,0.1V11.5z M32.5,5.7L33,5.8V5.6l-0.6-0.1V5.7z M34.4,13.3l-0.4-0.2l0.1-0.2l-0.6-1L32.9,12l0.1,0.1l-0.3,0.2l1,1l-0.4,0.2
		l0.3,0.6l0.4,0.1l0.2-0.8h0.3L34.4,13.3z M33.6,8.2V8l-0.3-0.2L33,7.9v0.2l0.4,0.3L33.6,8.2z M33.8,10.8l0.4-0.2V10l-0.4,0.2
		l-0.3,0.6H33.8z M34.7,5.5l-0.2,0.3l-0.6,0.3l-0.2,0.3l0.6,0.3l1.5,0.4l0.3-0.4L36,6.6l-0.9,0.2l0.3-1.7l-0.6-0.5l-0.3,0.5
		L34.7,5.5z M34.8,8.1l0.3-0.2L35,7.5h-0.3l-0.3,0.3l0.2,0.3H34.8z M36.6,9.4v0.2l1,0.5l1.2,0.2V9.9l0.3-0.5l-0.4-0.2l-0.3,0.2
		l0.1,0.4h-0.6l-0.6-0.2L38.1,9l0.1-0.4l-0.7,0.1l0.4-0.5L38.8,8l0.7-0.6l-0.4-0.7l-0.6-0.5l1.2-1.3l-0.3-0.1l-0.6,0.2l-1,1.7
		l0.9,0.6v0.2l-0.3,0.2l-0.9-0.1v0.3l-0.3,0.2l-1-0.3L36,7.9l0.1,0.5L36,8.7l-0.3-0.2l-0.9,0.4l-0.3,0.3l0.3,0.1L35.7,9L36,9.2h0.4
		L36.6,9.4z M36.8,12v-0.6l-0.6-0.7l0.2-0.5l-0.6,0.1v0.5l-0.4,0.1L35.1,11l0.2,0.2H36l0.1,0.3l-0.3,0.3l-0.7,0.2l0.3,0.2l1.2-0.1
		L36.8,12z M36.3,3.9l-1,0.4l1.2,0.4L36.6,4L36.3,3.9z M35.7,15.5l-0.4,0.2l0.1,0.2h0.3V15.5z M36.3,9.5l-0.2-0.1l-0.3,0.2L36.3,9.5
		z M37.6,2.9l-0.2-0.3l-0.1,0.4L37.6,2.9z M37.4,6.1h0.1V5.9h-0.1V6.1z M37.6,12.3h0.3l-0.2-0.2l-0.3,0.1L37.6,12.3z M39.9,11.2
		l-0.1-0.1l-0.4,0.1l-0.2,0.4l-0.3,0.1l-0.3-0.4l-0.9-0.4v0.6l1,0.4l1.2-0.5V11.2z M38.4,12.6l-0.4-0.1l-0.2,0.2l0.3,0.1L38.4,12.6z
		 M38.8,12.8l-0.1,0.1h0.1V12.8z M39.1,12.3l-0.3-0.1l0.3,0.3V12.3z M39.4,2.8l-0.2-0.1l-0.2,0.2L39.4,2.8z M40,7l0.6,0.1l-0.1-0.2
		L40,6.8V7z M40.8,8.7h0.9l-0.1,0.5l1.3-0.5l-1.6-0.8l-0.7,0.7L40.8,8.7z M44.9,10.4L44,10l-2.7-0.3l-0.4-0.2v0.4l0.6,0.3h1.8
		l-0.1,0.4l0.7,0.6l0.4-0.4l0.6,0.1V10.4z M40.9,11.9l0.3,0.1l0.3-0.1v-0.2h-0.6V11.9z M41.1,7.5h0.3l0.3-0.7l-0.3,0.4L41.1,7.5z
		 M41.1,12.7l0.7,0.1l0.3-0.1v-0.2l-0.4-0.1l-0.6,0.1V12.7z M42.4,3.9l0.4,0.2V3.9l-0.4-0.1V3.9z M43.9,2.5l-0.3-0.1l-0.3,0.1
		l0.4,0.3L44,2.7L43.9,2.5z M44,12.8h0.3v-0.3L44,12.4l-0.4,0.2l0.2,0.3L44,12.8z M44,7.9l-0.2,0.4l0.3,0.2l0.6-0.1L44,7.9z
		 M44.3,8.8l-0.1-0.1L44,8.9L44.3,8.8z M46.4,10.2V10l-0.6,0.1v0.3L46.4,10.2z M47,9.4V9.2h-0.4v0.3l0.3,0.1L47,9.4z M47.1,5.5
		l0.1,0.3l0.3-0.2V5.4l-0.3-0.1L47.1,5.5z M47.6,6.7l0.1-0.3h-0.4v0.4L47.6,6.7z M50,8.3l-0.2-0.2l-0.6,0.1l-0.2,0.3l0.4,0.2L50,8.6
		V8.3z M49.1,10.3l0.3,0.2l0.3-0.1l-0.6-0.3V10.3z M50.8,10.5l0.2-0.4l0.3-0.1H51l-0.6,0.3v0.2H50.8z M50.8,5.1l-0.2,0.1l0.2,0.3
		h0.3l0.3-0.2V5.1H50.8z M51.1,9.8v0.1l0.4-0.1H51.1z M52.9,10l0.1-0.2l-0.4-0.1l-0.2,0.2l0.3,0.2L52.9,10z M53.4,8.4l-0.3-0.1
		l-0.3,0.6l0.3,0.3h0.3V8.4z M53.5,8l0.2-0.2h-0.3V8H53.5z M53.7,11.6v0.1l0.3-0.1H53.7z M54.6,12.8l-0.9-0.4l0.3,0.4H54.6z M54.7,4
		l-0.6-0.4v0.2l0.4,0.4l0.2-0.1V4z M54.1,9.4l0.4,0.8l0.4,0.2l0.6-0.1l-1.5-1.5V9.4z M54.8,5.9l0.4-0.5l-0.7,0.1l-0.3,0.4H54.8z
		 M54.7,11.1l0.3-0.2v-0.2L54.4,11L54.7,11.1z M57.1,8.1l-1.6,0.2l1.9-0.2H57.1z M55.7,11.1l0.4-0.3h-0.3L55.6,11L55.7,11.1z
		 M57.8,9.7l-0.6-0.1l0.3-0.1l0.2-0.3L57.4,9l-1,0.1l-0.6,0.5l0.1,0.3l0.3,0.1l0.2-0.2l0.6-0.2l0.9,0.2V9.7z M57.4,7.7l-0.2-0.3
		l-0.1,0.4L57.4,7.7z M58,8.1l0.3,0.2h0.3L58,7.9V8.1z M58.9,12l0.2-0.2h-0.3l0.1-0.2v-0.2l0.7-0.7l-0.4-0.3L59,10.7l-0.6,0.2
		l-0.2,0.2l0.3,0.1v0.5l-0.4,0.3l0.4,0.3l0.3-0.1V12z M58.4,7.1v0.3l0.4,0.2l-0.3-0.7L58.4,7.1z M58.4,13h0.3l-0.3-0.2V13z
		 M58.6,11.7v0.6l0.2-0.6v-0.1L58.6,11.7z M58.7,5.9l0.4,0.4l0.3-0.5l-0.3-0.6l-0.4-0.2V5.9z M59.1,4.6l0.2,0.1l0.2-0.2l-0.3-0.1
		V4.6z M60,5.1l-0.4,0.2l0.6,0.4h0.3l0.4-0.3L60,5.1z M59.9,7.3l-0.3,0.3L60,7.8l0.1-0.4H59.9z M59.9,12.5h0.3L60,12l-0.3-0.1
		l-0.2,0.3l0.3,0.1l-0.3,0.1L59.9,12.5z M60.5,11.2l0.1-0.3l-0.4-0.2v0.5H60.5z M60.3,11.5l0.3,0.1l0.4-0.1l-0.2-0.2h-0.7L60.3,11.5
		z M60.5,9.9l0.4,0.3V9.8l-0.4-0.1V9.9z M61.1,7.7l-0.2-0.2h-0.3v0.2l0.4,0.2l0.1-0.1L61.1,7.7z M62.7,8.4l-0.4,0.1l-0.4-0.2
		l-0.7,0.4l-0.2,0.5l0.2-0.1l1.5,0.1V9L63,8.7V8.4H62.7z M61.4,13.4l-0.2-0.1l-0.1,0.2L61.4,13.4z M61.7,1.3l-0.3-0.1l-0.2,0.1
		l0.4,0.2V1.3z M63,11.3l0.2-0.4l0.4-0.3l0.2-0.4l-0.3,0.1l-1-0.3L62,10.3l-0.6,1.2l1.5,0.1L63,11.3z M61.8,5.5v0.2l0.3-0.1L62,5.3
		L61.8,5.5z M62.3,6.5L62.4,6l-0.3-0.1L62,6.5H62.3z M62.1,7.2H62v0.3h0.3l0.2-0.2L62.1,7.2z M62.1,4.7v0.1l0.4-0.1H62.1z M64.6,6.7
		H64l0.3,0.2l0.4-0.1L64.6,6.7z M64.2,11.2l0.6-0.2l0.3-0.4l-0.9,0.2L64,11.1L64.2,11.2z M64.6,2.8l-0.4,0.2l0.1,0.2l0.6-0.2V2.8
		H64.6z M64.5,5.7V5.6l-0.3,0.2L64.5,5.7z M64.9,9.8l-0.4,0.1l0.3,0.2l0.1-0.1V9.8z M64.9,5.7l0.6-0.4h-0.6l-0.3,0.2v0.3L64.9,5.7z
		 M65.7,10.5l0.4-0.5l-0.3-0.1l-0.4,0.3l0.2,0.4L65.7,10.5z M66.3,8.5l-0.1-0.2h-0.4l-0.1,0.4h0.7V8.5z M66,3.9v0.2l0.3,0.1V4
		L66,3.9z M66.9,5.3l0.3-0.1L66.9,5V5.3z M67.2,8.8L67,8.7l-0.1,0.2L67.2,8.8z M67.3,4.4l0.3-0.1L67.8,4l-0.6,0.3L67.3,4.4z
		 M67.6,9.9l0.3,0.1l0.3-0.3h-0.7L67.6,9.9z M68.5,11.6l0.1-0.5L68,11.2l0.2,0.4H68.5z M68.6,10.8l0.6-0.4l0.1-0.6h-0.3l-0.3-0.2
		l-0.4,0.1l0.3,0.4v0.3l-0.3,0.3L68.6,10.8z M68.9,3.9h-0.3V4L68.9,3.9z M69.5,9.2l0.6-0.4l-0.4-0.3l-0.4,0.6L69.5,9.2z M69.7,11.6
		l0.6,0.1l-0.4-0.3l-0.3,0.1L69.7,11.6z M70.3,4.7l0.4,0.8V5.3l0.4-0.5H70.3z M70.6,9.7h0.9l-0.1-0.4l0.1-0.4l-0.7,0.1L70.6,9.7z
		 M71.2,11.2L71,11.4l0.4-0.2H71.2z M71.6,12.1v-0.2l-0.4,0.3l0.3,0.1L71.6,12.1z M72,14.6l0.3-0.2H72V14.6z M72.2,12.2h0.3l0.2-0.3
		L72.2,12V12.2z M72.3,15.6h0.4l-0.1-0.2h-0.4L72.3,15.6z M73.4,4.5l-0.3-0.2h-0.3l0.2,0.4l0.4,0.2V4.5z M76.6,9.1h0.4l0.3-0.6h-0.9
		l-0.1,0.2L76.6,9.1z M77.7,12h0.6l-0.2-0.3v0.2l-0.4-0.1V12z M78,14.5l0.4-0.3l-0.3-0.1l-0.4,0.3L78,14.5z M78.1,15.7l0.2-0.1
		l-0.4-0.3l-0.1,0.4H78.1z M78,10.3l0.1,0.1l0.4-0.5l-0.7,0.2L78,10.3z M80.2,11.4v0.1l0.3-0.1H80.2z M80.2,13l0.2,0.2h0.3V13
		l-0.4-0.2V13z M92.8,4.6h0.3l0.2-0.1l-0.2-0.2L92.8,4.6z M94,4l0.6-0.2l0.3-0.4L93.3,4H94z"/>
</g>
</svg>
