<?xml version="1.0" encoding="utf-8"?>
<!-- Generator: Adobe Illustrator 21.0.1, SVG Export Plug-In . SVG Version: 6.00 Build 0)  -->
<svg version="1.1" id="Layer_1" xmlns="http://www.w3.org/2000/svg" xmlns:xlink="http://www.w3.org/1999/xlink" x="0px" y="0px"
	 viewBox="0 0 206.1 204.4" style="enable-background:new 0 0 206.1 204.4;" xml:space="preserve">
<style type="text/css">
	.st0{fill:#74CEE2;stroke:#FFFFFF;stroke-width:2;stroke-miterlimit:10;}
	.st1{fill:#2A71B9;stroke:#FFFFFF;stroke-width:2;stroke-miterlimit:10;}
	.st2{fill:#808080;stroke:#FFFFFF;stroke-width:2;stroke-miterlimit:10;}
	.st3{fill:#BFBFBF;stroke:#FFFFFF;stroke-width:2;stroke-miterlimit:10;}
	.st4{fill:#404040;stroke:#FFFFFF;stroke-width:2;stroke-miterlimit:10;}
</style>
<g>
	<g>
		<g>
			<path class="st2" d="M103.2,102.1l-46-90.3c14.8-7.5,29.4-11,46-11V102.1z"/>
		</g>
	</g>
	<g>
		<g>
			<path class="st1" d="M103.2,102.1l-19.3,99.4C29,190.9-6.9,137.7,3.8,82.8C10,51.1,28.5,26.5,57.3,11.8L103.2,102.1z"/>
		</g>
	</g>
	<g>
		<g>
			<path class="st0" d="M103.2,102.1l96.3-31.3c17.3,53.2-11.8,110.4-65,127.6c-17.2,5.6-32.8,6.6-50.6,3.1L103.2,102.1z"/>
		</g>
	</g>
	<g>
		<g>
			<path class="st3" d="M103.2,102.1L124.3,3c36.1,7.7,63.9,32.7,75.3,67.8L103.2,102.1z"/>
		</g>
	</g>
	<g>
		<g>
			<path class="st4" d="M103.2,102.1V0.8c8.1,0,13.2,0.5,21.1,2.2L103.2,102.1z"/>
		</g>
	</g>
</g>
</svg>
